<mxfile host="app.diagrams.net" agent="Mozilla/5.0 (Windows NT 10.0; Win64; x64) AppleWebKit/537.36 (KHTML, like Gecko) Chrome/135.0.0.0 Safari/537.36 Edg/135.0.0.0" version="26.2.7">
  <diagram name="Page-1" id="zSpyoZVyuEY6f8Xtw75z">
    <mxGraphModel dx="819" dy="450" grid="1" gridSize="10" guides="1" tooltips="1" connect="1" arrows="1" fold="1" page="1" pageScale="1" pageWidth="850" pageHeight="1100" math="0" shadow="0">
      <root>
        <mxCell id="0" />
        <mxCell id="1" parent="0" />
        <mxCell id="GABv936FElZK7gfd_OVg-1" value="" style="shape=image;verticalLabelPosition=bottom;labelBackgroundColor=default;verticalAlign=top;aspect=fixed;imageAspect=0;image=data:image/jpeg,/9j/4AAQSkZJRgABAQAAAQABAAD/4gHYSUNDX1BST0ZJTEUAAQEAAAHIAAAAAAQwAABtbnRyUkdCIFhZWiAH4AABAAEAAAAAAABhY3NwAAAAAAAAAAAAAAAAAAAAAAAAAAAAAAAAAAAAAQAA9tYAAQAAAADTLQAAAAAAAAAAAAAAAAAAAAAAAAAAAAAAAAAAAAAAAAAAAAAAAAAAAAAAAAAAAAAAAAAAAAlkZXNjAAAA8AAAACRyWFlaAAABFAAAABRnWFlaAAABKAAAABRiWFlaAAABPAAAABR3dHB0AAABUAAAABRyVFJDAAABZAAAAChnVFJDAAABZAAAAChiVFJDAAABZAAAAChjcHJ0AAABjAAAADxtbHVjAAAAAAAAAAEAAAAMZW5VUwAAAAgAAAAcAHMAUgBHAEJYWVogAAAAAAAAb6IAADj1AAADkFhZWiAAAAAAAABimQAAt4UAABjaWFlaIAAAAAAAACSgAAAPhAAAts9YWVogAAAAAAAA9tYAAQAAAADTLXBhcmEAAAAAAAQAAAACZmYAAPKnAAANWQAAE9AAAApbAAAAAAAAAABtbHVjAAAAAAAAAAEAAAAMZW5VUwAAACAAAAAcAEcAbwBvAGcAbABlACAASQBuAGMALgAgADIAMAAxADb/2wBDAAMCAgICAgMCAgIDAwMDBAYEBAQEBAgGBgUGCQgKCgkICQkKDA8MCgsOCwkJDRENDg8QEBEQCgwSExIQEw8QEBD/2wBDAQMDAwQDBAgEBAgQCwkLEBAQEBAQEBAQEBAQEBAQEBAQEBAQEBAQEBAQEBAQEBAQEBAQEBAQEBAQEBAQEBAQEBD/wAARCAIvA4cDASIAAhEBAxEB/8QAHQABAQEBAQEBAQEBAAAAAAAAAAcIBgUEAwIBCf/EAGgQAAAFAwECBg0GCgQJCAgFBQABAgMEBQYHEQgSExchWJXVCRQWGCIxOFd3lpe10xU3QVG0tiMyNFZhcXaF0tQzYoGzGSRCUnOEkaGyJTlDcnSmscEmNTZTY3WCg1Rkh5KiVYaTlMP/xAAXAQEBAQEAAAAAAAAAAAAAAAAAAQID/8QAHBEBAQEAAgMBAAAAAAAAAAAAAAERAjEhQVFx/9oADAMBAAIRAxEAPwD/AKpgAAAAAAAAAAAAAAAAIHeOL8aZO2nlw8k48tm7GINhR3IrVcpEeehhaqg+SlIJ5CiSZkREZlproL4JUx5U830fxfeL4B3p2yxzacVeptO+CHenbLHNpxV6m074IqoAJV3p2yxzacVeptO+CHenbLHNpxV6m074IqoAJV3p2yxzacVeptO+CHenbLHNpxV6m074IqoAJV3p2yxzacVeptO+CHenbLHNpxV6m074IqoAJV3p2yxzacVeptO+CHenbLHNpxV6m074IqoAJV3p2yxzacVeptO+CHenbLHNpxV6m074IqoAJV3p2yxzacVeptO+CHenbLHNpxV6m074IqoAJV3p2yxzacVeptO+CHenbLHNpxV6m074IqoAJV3p2yxzacVeptO+CHenbLHNpxV6m074IqoAJV3p2yxzacVeptO+CHenbLHNpxV6m074IqoAM4ZIwRg/HlzYuuKwMNWNbNVK+4LBTqPbsOFIJtUeTvI4RptKt09C1LXQ9CGjxKs8fl2L/SBTvs8oVUAAAAAAAAAAAABP9oW6a7Y2Asl3ra07tKtW/Z9ZqlOk8EhzgJTEJ1xpzcWSkK3VoSeiiNJ6aGRlyAKAAlXE3kXnY5V6NtXqYOJvIvOxyr0bavUwCqgJVxN5F52OVejbV6mDibyLzscq9G2r1MAqoCVcTeRedjlXo21epg4m8i87HKvRtq9TAKqAlXE3kXnY5V6NtXqYOJvIvOxyr0bavUwCqgJVxN5F52OVejbV6mDibyLzscq9G2r1MAqoCVcTeRedjlXo21epg4m8i87HKvRtq9TAKqAlXE3kXnY5V6NtXqYOJvIvOxyr0bavUwCqgJVxN5F52OVejbV6mDibyLzscq9G2r1MAqoCVcTeRedjlXo21epg4m8i87HKvRtq9TAKqAlXE3kXnY5V6NtXqYOJvIvOxyr0bavUwCqgJVxN5F52OVejbV6mDibyLzscq9G2r1MAqoCVcTeRedjlXo21epg4m8i87HKvRtq9TAKqAlXE3kXnY5V6NtXqYOJvIvOxyr0bavUwCqgJVxN5F52OVejbV6mDibyLzscq9G2r1MAqoCVcTeRedjlXo21epg4m8i87HKvRtq9TAKqAlXE3kXnY5V6NtXqYOJvIvOxyr0bavUwCqgJVxN5F52OVejbV6mDibyLzscq9G2r1MAqoCVcTeRedjlXo21epg4m8i87HKvRtq9TAKqAlXE3kXnY5V6NtXqYOJvIvOxyr0bavUwCqgJVxN5F52OVejbV6mDibyLzscq9G2r1MAqoCVcTeRedjlXo21epg4m8i87HKvRtq9TAKqAlXE3kXnY5V6NtXqYOJvIvOxyr0bavUwCqgJVxN5F52OVejbV6mDibyLzscq9G2r1MAqoCVcTeRedjlXo21epg4m8i87HKvRtq9TAKqAlXE3kXnY5V6NtXqYOJvIvOxyr0bavUwCqgJVxN5F52OVejbV6mDibyLzscq9G2r1MAqoCVcTeRedjlXo21epg4m8i87HKvRtq9TAKqAlXE3kXnY5V6NtXqYOJvIvOxyr0bavUwCqgJVxN5F52OVejbV6mDibyLzscq9G2r1MAqoCVcTeRedjlXo21epg4m8i87HKvRtq9TAKqAlXE3kXnY5V6NtXqYOJvIvOxyr0bavUwCqgJVxN5F52OVejbV6mDibyLzscq9G2r1MAqoCVcTeRedjlXo21epg4m8i87HKvRtq9TAKqAlXE3kXnY5V6NtXqYOJvIvOxyr0bavUwCqgJVxN5F52OVejbV6mDibyLzscq9G2r1MAqoDH+2Y/m/Z22bLwzHZW1DkCbWrf+T+1mKpSLacir4efHjr30t0ptZ6IeUZaLLwiLXUtSMA2AAAAAAAAAAAAAAAAAAlTHlTzfR/F94viqiVMeVPN9H8X3i+AqoAAAAAAAAAOPyNliycVMUl68pVUSuuzTp1Nj0yiTqrJlSCaW6aEMQ2XXT0bbWoz3dCJJ8o+G286YyuuVT6fSq1Oan1OovUlmBUaLOp8xEtqMclbT0eSy26wfAFwhG6lJKSaTSZ6lrxO0pZd13pdmHWLWqNxUg4N4PSZdZokNiQ9TWfkuanhVdsMPsISpSkt7zjZlqsiLRRkY5a99mihPXxjuHcMauZDi1e659Xu2oV6MxIRM0oz8dgpbUdhqKhlJJYbSgmkINSU6kpZmZhp0fNUp7FKp8mpym5K2YjK33Exozkh1SUkZmSGmkqccVoXIlCTUZ8hEZnoMR2tj66aDCxpjw6HUIjGSIj9r16NNUtt+HTKPUnpTO826ZLNpcFx2MR6HolyOXIRlr/tfx9NRceWE2xi+qVKq1eh3aiTUplkT6fWWzeaVwLJ1dDi4lbYcXuIjx2077LZNa6KaURhuBh5Ehlt9slklxJLSS0KQoiMteVKiI0n+gyIy+keZdt10CxraqN33TP7SpFJYVJmSOCW5wTafGrdQSlK/URGYy9bFuQqbk2dMyNhe7Ljvcp9NesyswqPJbTT6UmlMoNn5WI0sw2kvpmE7GW6lazcM+Bd4RO9ErdsC+5lCvGXR8Oy6I5cGMJ0eowqTjyr0d12s9tRnO1pciY887V5aCcd0lmlJO7zpoUs98kB/wBJEqJaSWk9SUWpD/R+bBGTDZGRkZIIjI/1D9AAAAAAAAAAAEqzx+XYv9IFO+zyhVRKs8fl2L/SBTvs8oVUAAAAAAAAAAAEq2sfJYzJ6P7h93PiqiVbWPksZk9H9w+7nwFVAAAAAAAAAAAAAAAAAAAAAAAAAAAAAAAAAAAAAAAAAAAAAAAAAAAAAAAAAAAAAAAAAAAAAAAAAAAAAAAAAAAAAAAAAAAAAAAAAAAAAAAAAAAAAAAAAAAAGVeyj+Qnk39y++IQB2UfyE8m/uX3xCABqoAAAAAAAAAAAAAAAABKmPKnm+j+L7xfFVEqY8qeb6P4vvF8BVQAAAAAAAAAB4F71G9aVQXJ1hW7RK1U21kZxavWHaYxwREZqVwzUWSreLQtE8Hoep+EWnL74/GW0p+K8wgyJTjakEZ+LUy0AZ8xRml29W7Jy9fuMbAtB+/qcpmk1Jq4H59S+T0R3pjjLriqYyltKOCJZoU8TehrVvbySSvq29rHAzlCqFxHeE5qJTFQOFQ9b1Sakuomu8FDdYjrjk9JZec8Ft5lC21Hroo9BwrWyxdNQw1inFVbr1KYVaFHqFJrcqK444Sik0mTC34xKbTv6LfSrRe5yEf08g5q2dkfIDLEZyuRbbiy6c/bLDTq70uGvrlRadUmpchWtRUbcRCktFwUVppRJUZ6vmkwF6o+fcYV264tlQKpV01WWtLKCk27Uo0dEhUcpParkl1hLLUomT3zjLWl5JchoIy0FDEQjYnyRGzs5fNOOjUWgvVFU2bKpdx1NK6qwcXgijyqKtCoHD75IM5yXCdNLKEklOpi3gAAAAAAAAAAAAACVZ4/LsX+kCnfZ5QqolWePy7F/pAp32eUKqAAAAAAAAAAACVbWPksZk9H9w+7nxVRKtrHyWMyej+4fdz4CqgAAAAAAAnN3Zsp1rXtIsCFYl43LVYVKh1iWVDp7b7cePKektMb6luo8JSoUjkIj5E/pHwcfE7zD5V6Gj/zACqgJVx8TvMPlXoaP/MBx8TvMPlXoaP/ADACqgJVx8TvMPlXoaP/ADAcfE7zD5V6Gj/zACqgJVx8TvMPlXoaP/MBx8TvMPlXoaP/ADACqgJVx8TvMPlXoaP/ADAcfE7zD5V6Gj/zACqgJVx8TvMPlXoaP/MBx8TvMPlXoaP/ADACqgJVx8TvMPlXoaP/ADAcfE7zD5V6Gj/zACqgJVx8TvMPlXoaP/MBx8TvMPlXoaP/ADACqgJVx8TvMPlXoaP/ADAcfE7zD5V6Gj/zACqgJVx8TvMPlXoaP/MBx8TvMPlXoaP/ADACqgJVx8TvMPlXoaP/ADAcfE7zD5V6Gj/zADxs/fOjgT9uZPuaoDltonJuQqFeN0022MnN2REsbHrl7MpVBhyEVqSUh1BsyDkIWsoyCYQhRMcE5rJIydLRJDoL2vKy8l05mj5G2TLzuqBGeKQzFrdpQJzLbpJNPCJQ88pJK0UotSLXQzL6R5KXMPpp1Eo6diSulAtqQqZRYpWLS+Bpj6lktTsZHCbrKzWRKNSCIzMiPXUBxknNOWa1XW7u4x3LXZYyFbdnqsw6fAW29FlsRH31qcdaOUT6ykOGk0uJSTTZ/g9/VwvxxvkS9rmORa7WVIOMqdbNNrNzO1JmkUtESafdBOjmUpt1skpjNIjpN02jYdWp/eN5KuU/TuC37ZuvL8PMdy4hzNPqFOejvxYKrVoLTTZseEyg5TTaZ7jSHSJ4mnJSm+EIjNJkREXY1St41raaUitbHF0T00KW5PpZSrMpzpQJTjnCrfY3nT4JxTnhmtOijVymevKAnFSzrf8AOy7TI1KvC5qnaVxXRW7XNL9LocWguIiQJRuNxEpeXV1vtPxy3nnNGVnvmlKUqbI6djGxbJyBse4/o1+WdQ7kp7NmU6U3Fq9PZmMoeTBTuuEh1KkkstT0URalqY/ButY0auSXeTWxvdCK/PeKTKqqbMpxTJDxJUgnHHuF31qJK1p3jMz0UovEZjoYGX41KpLFApezlkmHTIrCYrEKPb8RthplKd1LaW0yCSlBJ5CSRaEXIAzRaDtGwPs4YQv7GGN7TjVufbM6sVA2KDFQ/U5ca3Jb7anHkt8LvmtOilpUSzSpaTVooyP1YuY9o9NClUSRetap0irOWa9BqtaK1XqnGKpVJEaUbEemuvt9puNHvMOSGTWSuEI1ubpaXaJke3oEajw4Oy7fsePbyTRSGmrYhIRTkm2bZlHST+jJcGpSPA08EzLxHoPJoNYxnasKRTbY2Nrno8OXOaqciPAsumx23pjSiW1IWlDpEp1CkpUlZ+EkyIyMjIB47eQr+sjK6zvnKVemWfCqLtKZltRaFKo8kmKYbzjM045N1CLUt9p55aiQUVKSSkkJ3yIvK2f6VOp+fKPUavHWxVLixg/cdQbcLRbcifW1yltn9PgcMSOXl0QRDsJlwY5qFyzbzn7Hl1SbgqURUCbVnrNpy5kmKpG4plx43d9bZoIkmgzMjSWmmg+a85uKMjSYkzIWxZcV0SIDHa0R2s2RTJq47OuvBtqddUaE68u6WhAOTyLnDINLzaxHte7LqeoMO/KNZsyMil0NigoVJbaU/HcW+6qqvyiQ+ThOsJQyWiUmgyQ4tXz1vaFy5QrSv1MOpNVOvYgoNTRcCnoTCETKi7L3Ka6siJCUEUNpclaUqbQZPI1NKfF2yahitFcbudOxdcZVlpqMwiolZNMKSlqObZx0E7wu+SWzaaNBa6JNtGmm6Wn7WdeES0DuN9WFcx1qZddRcqNVl1OjQVuPmbaWkM7rbqGyabZbbaSkk/ip1UalKUpQS2BkraKlVyBjSdf1yUJVQu+iwU1arJtSRcDUKVT5j0hpbFOOTEbSZxm3GHHGEKMlmR8ISTM9nsNraZbacfW8pCSSpxZJJSzIvxj3SItT8fIRF9REIFbVexxZkCPSrP2OrqoUKJO+VI8amWbTorTMzgzb7YQht0iS7uGaN8i3t0zLXQdZx8TvMPlXoaP/ADACqgJVx8TvMPlXoaP/ADAcfE7zD5V6Gj/zACqgJVx8TvMPlXoaP/MBx8TvMPlXoaP/ADACqgJVx8TvMPlXoaP/ADAcfE7zD5V6Gj/zACqgJVx8TvMPlXoaP/MBx8TvMPlXoaP/ADACqgJVx8TvMPlXoaP/ADAcfE7zD5V6Gj/zACqgJVx8TvMPlXoaP/MBx8TvMPlXoaP/ADACqgJVx8TvMPlXoaP/ADAcfE7zD5V6Gj/zACqgJVx8TvMPlXoaP/MBx8TvMPlXoaP/ADACqgJVx8TvMPlXoaP/ADAcfE7zD5V6Gj/zACqgJVx8TvMPlXoaP/MBx8TvMPlXoaP/ADACqgJVx8TvMPlXoaP/ADAcfE7zD5V6Gj/zACqgJdSs90+ZddvWjWca35br90TXqdTpVXpjTUZyS3EkSzbNaHlGRmzFfMuT/J0+kVEAAAAAAAAAABlXso/kJ5N/cvviEAdlH8hPJv7l98QgAaqAAAAAAAAAAAAAAAAASpjyp5vo/i+8XxVRKmPKnm+j+L7xfAVUAAAAAAAAAAAAAAAAAAAAAAAAAAAAAAAABKs8fl2L/SBTvs8oVUSrPH5di/0gU77PKFVAAAAAAAAAAABKtrHyWMyej+4fdz4qolW1j5LGZPR/cPu58BVQAAAAABKrc8qfIfo/s33jcYqolVueVPkP0f2b7xuMVUAAQqyq3tJZKg1i5aFkPGtEprF0XFRIcGXYk+c+2xTqvLgNqcfTWGUuLWmKSzMmkFqsyIuQdB3ObU/nkxV7NKj16AqoCVdzm1P55MVezSo9eh3ObU/nkxV7NKj16AqoCVdzm1P55MVezSo9eh3ObU/nkxV7NKj16AqoCVdzm1P55MVezSo9eh3ObU/nkxV7NKj16AqoCVdzm1P55MVezSo9eh3ObU/nkxV7NKj16AqoCVdzm1P55MVezSo9eh3ObU/nkxV7NKj16AqoCVdzm1P55MVezSo9eh3ObU/nkxV7NKj16AqoCVdzm1P55MVezSo9eh3ObU/nkxV7NKj16AqoCVdzm1P55MVezSo9eh3ObU/nkxV7NKj16AqoCVdzm1P55MVezSo9eh3ObU/nkxV7NKj16AqoCVdzm1P55MVezSo9eh3ObU/nkxV7NKj16AqoCVdzm1P55MVezSo9eh3ObU/nkxV7NKj16AqoCVdzm1P55MVezSo9eh3ObU/nkxV7NKj16AqoCVdzm1P55MVezSo9eh3ObU/nkxV7NKj16AqoCVdzm1P55MVezSo9eh3ObU/nkxV7NKj16AqoCVdzm1P55MVezSo9eh3ObU/nkxV7NKj16AqoCVdzm1P55MVezSo9eh3ObU/nkxV7NKj16AqoCVdzm1P55MVezSo9eh3ObU/nkxV7NKj16AqoCVdzm1P55MVezSo9eh3ObU/nkxV7NKj16AqoCVdzm1P55MVezSo9eh3ObU/nkxV7NKj16AqoCVdzm1P55MVezSo9eh3ObU/nkxV7NKj16AqoCVdzm1P55MVezSo9eh3ObU/nkxV7NKj16AqoCVdzm1P55MVezSo9eh3ObU/nkxV7NKj16AqoCVdzm1P55MVezSo9eh3ObU/nkxV7NKj16AqoCFXrW9pLGsGj3LXch41rdNfui3aJMgxLEnwX3GKjV4kBxTb6qw8ltaEyjWRm0stUERlyi6gAAAAAAAAAAJVmT5xcE+kCZ91a8KqJVmT5xcE+kCZ91a8KqAAAAAAAAAAAyr2UfyE8m/uX3xCAOyj+Qnk39y++IQANVAAAAAAAAAAAAAAAAAJUx5U830fxfeL4qolTHlTzfR/F94vgKqAAAAAAAAPnqFQgUmE9UqpOjw4kdJrekSHUtttpLxmpSjIiL9JgPoHw1iuUW3YC6rcFYhUyE2ZEuTMkIZaSZ+LVazIi1/WJJc+0GczfhY0pSZpeI6xUULbhp/S01yOP/r8BB+Mlq8QmU1ubW6imt3TVZNbqKNeDflmW4xr4yZaSRNtF/wBVJGf+UavGLiaruYrruFMy3bftKrSGY9dhT5jsimpSt5xtjtfdJtfLupNLyzNSNFchGRl9PN2tmK6LXWmLcrTlw0fXRMpnQ50ZP1KI9CkJL+xzQuXhVGOWxTBZpuZ7ZiwlutxTg1ZxEUnFcA0tRMmtTbeu6g1HpvbpERmRH4+UXO7MZ0S5DXNikVPqKtTN9tBGlw//AIiPEr9fIf6Q6Hv27c1Au2mIq9uVRidFWe6a2z5UKLxoWk9FIWWvKlREovpIh6gzPWLWuiwa0VViPyKNUDMkIqEQ95iUkvEhwjLdcL+o4Wpamad09DHf2lnWGtSKXkOOzR5R6JTUW9e0Hj+tRqMzjmf1LM0+IicMz0DDVZAf4lSVpJSVEaTLUjI+QyH+iKAAAAAAAAAAlWePy7F/pAp32eUKqJVnj8uxf6QKd9nlCqgAAAAAAAAAAAlW1j5LGZPR/cPu58VUSrax8ljMno/uH3c+AqoAAAAAAlVueVPkP0f2b7xuMVUSq3PKnyH6P7N943GKqAlWzT83VX9IF9/eqqCqiVbNPzdVf0gX396qoKqAAAAAAAAAAAAAAAAAAAAAAAAAAAAAAAAAAAAAAAAAAAAAAAAAAAAAAAAAAAAAAAAAAAAAAAAAAAAACVbS3zdUj0gWJ96qWKqJVtLfN1SPSBYn3qpYqoAAAAAAAAAACVZk+cXBPpAmfdWvCqiVZk+cXBPpAmfdWvCqgAAAAAAAAAAMq9lH8hPJv7l98QgDso/kJ5N/cvviEADVQAAAAAAAAAAAAAAAACVMeVPN9H8X3i+KqJUx5U830fxfeL4CqgAAAAAAIFlqg1W8suu0RmOqpMUq2oVTYguPHwaHVSpaFuobM9w3DJLZamWuieQX0Z/yfWyoGc3p6onDl3MU1HguqacR/jc495C08qVcnj5S0MyMjIxYlcdLW3BJ05q+1+AMyeJ78GbZlyHvErxDha9k6LH3o9BZKQvxcO4Rkgv1F4z/AN39ooebblhXLZZSmZEeS+jwFvLaJqXu6p0Q6RFuqIvoUk9P6qT8ecRueWVg2bqrUavnOmyajLcfc+Tp2m8fIkt1PIReIi/UNpjEOy789lM/+XTv+FA28M8u2o/KVEjTo7kSZHbfYdTurbcSSkqL6jIxKb0xIxHSqXbjiUtL1I4chXgan9CFn+Lr9SuQ/Fr9ArY/xaEuJNC0kpKi0MjLUjL6hJSzWZaZd1zYjJ44ckmqZDMu2aLUjWllsjPT8EZEamNT5C3CU3y67hmeo0JZt0Q71tamXXT2XWY9TjpkNod03kkf0HoIPtP086bbrcYlqU0RLNneMzNDZvMmSOX6CMzIi+odbhnJuNrdxNatMuDIVtUyYxTWuFjzKtHYcb1LUt5K1kZakZHy/QZBfpFlAcC/tA4GjflObbBa0/z7lhJ/8XB57+1DszxvynaIxk1p/n3dT0/+LoiqcAlXfXbMJ/0W0Ljl7/QXLDd/4XDDvqtnM/6LMlsPf6CYTv8Aw6gKqAlXfS4FP+iyFHe/0EKS7/wtmHfQYWV/RXDV3v8AQWzVHf8AhjmAZ4/LsX+kCnfZ5Qqoy/mnaIxlVJmOVQO654od8QZTulk1stUJYkke5rE8NWqi0QnVR8uhHoYpffLY6V/Q27lF7/R4suYy/wBvaGn+8BVQEq7420l/0Fh5Vd//AE5rbf8Axxkh3wlLX/QYpyq7/wD2bMb/AONKQFVASrj7dX/QYPyq7+4EN/8AG8kOPKvL/oNnbKrv+p01v/jmpAVUBKuOm91/0Gy5lV3/AO/bzf8Ax1VIcb+TV/0WypkdH+nq1tJ/4aooBVRKtrHyWMyej+4fdz4caeX1/wBFsxXQj/T3DRU/8MtQmm03f+YZ+zbleJUMAyqbCfseutyZb1ywXO12jgPEtzcbNRr3SMz3S5T00AagASru82gl/wBFs/UpH+nvVpP/AAxlB3YbSi/6LBllo/0+QHk/8NMUAqo+aDUafU2nHqbPjy22nnYzi2HUuJQ62s0ONmaTPRSVpUlSfGRkZHykJn3SbUi/xMOYvbL63Mj1Az/2FRP/ADH/ACry/dG07YW3ZddF2Woj1Nu6rPsVCv29Z096r0hU51tCnnHifjMtq130rcU43o2ta/DLlJIf9VLc8qfIfo/s33jcYqozTszzM3T8wXnK2hKPbVMvFdgWcciNQX1usIb+ULi3d81akTuu9vEhSkeLdVy6FpYBKtmn5uqv6QL7+9VUFVEq2afm6q/pAvv71VQVUAAAAQi5No262L5va1rBxbEuhnHCYjlwRSr5sV19DzSXjXTqaiM720ng1ESDceYJxxK20/i7x+9UdpXHFty5sS66i9GeRXfkCBEp1LqdRnSZXaLcw2lRmYnCE8TThqNDfCp3Uke/vbyEcZnPBmRspTqvTV2njC448wjK3Lqrxrj1uzOEQhKzhoZhuG+ptxvthtZSYyzWaUKURIJw/tomz5d9OyrCvidWKTMhxL0kXIaluOHJWw5b7dOI93g90njeQpRlvabh67xn4IDpKztW4FoNsUi8p17PuUet0t6txpESiz5ZtQGTJLsmQhlhS4raFmSFKfJsiXqk/CIyL+Yu0rYzBXLIuJEqFFo1xNW/TUwYkqpzKw45AjzCUxDjMqfNRIfUZoQhZpS0pajItd3OGR8bZOxBa8y1LWoqrouC9bJqlqTI8OjVuXGjm9UJj0R5mTHhripUfbriHG5TsVJaIXwpISevdVzZQvue4m5o8qnyKpCulNdh05q6qnQeHjOUWLT3W11Gno7YjOpWwpZcGl1C0luqLwzNAWy8c227RsEVrPVnExdFIp1CkVyGhqQcdMxLSFK4M1mhSmj1SaVEpBqQZGRp1IyHMQNoC4rar8WlZxtS1LRhVC3Z1yRqjSbqeqrbUaIbHD9spegxTa5JCN008ISjJSeQ93e+d/AlfVslVzBEI6FDrtboVShqNE2fIgNzJhuLXrIlrflOp33T3nFmalcqtxGpIT6VQ2erftLFVy27s/2rZ+O7wrdGKCmr0WlM041vpT4JuPR2icItTWROERqRvmtJbxaAPSjbS+HZNAqtwnW6zFbo02JTpcGbbNUi1MpMoknGbbp7sdMt03SURo4NpW9orTXdVp/Ctp/Ch2pDvOPc9RmU+oTplOjMwrfqUmc5IiGopSShNR1SSJncVwija3UaeEZakIBUMIZHxSVQyzUmUyaoxclCrdJozFZui8FKcjR5cV+PJl9qSJxtqakqcQ8mOaG1mlJt6J3nP8t3Z9ynf1p27k1+iJhXI1XbrnnRJVzVq0jXCq0snm3O2oKe3WVJ4Fo+AeaI1pWZLQysiJIaLyhmqmWVhGdmu0IsK7YCIkWZTkNVDgI85uQ6222on0tubqT4UlbxIVyF4h41MzjclvXnNtDOFq2taKY9uSLobqVJul2qREQ47qG3+2DfhRFMGRutmkyStKy3+UjTofm3fs+1StbJ6dnyl/IDU35LgwVJWuWdO1bkNOuoI5C5Eg2zJCyTwinFHqWp/VzF3bG1HZevu3sQ0q1LOtLJduFArUKFBKGcSqRlEcOTHRHbTq2tKloebJxvTRK0eGpZmFLibS2G5tuzrlauKpNtU2dGpr9PkW9UmKr21ISSo7SKa4wmY4p1J7yCQyrfSSjTqSVGX6ubRmI0WhBvZuu1STAqUyTT40aLb1SkVJUmMayktnT22FS0KaNtfCEpotwi1VoRlrGI2zbmiLQKzOpLlLotbq9WpCpsCPlC6ZT1TpcNDm/Hcr0glS4u848paUxo6N1KNxS3CcM0/ZY2ztmTGEa3bltt21K1clBqtzufJ9VuOp9qvwqu8h5JqnusyJC32VtNpNTjazdLePfQZ8gVfF+fLayxfN3WjbUCauJbLdOkR6t2rJKJUmZcdLyXGnFspa0LeIiJLi95PhlyBb+cIldzFW8Wqt1+NDpzDnaNaU/vNVGXHJk5sdKCT4JslJj8prM1GbpbpcGZn8+OrFyda9+XvddzO2vP7qoNKfTIgOyI/wDyjGiEw6g4y0L4Ng1ESkr4dxeh6Gnk1Od0HZXui06FZt40y55M3J1JrZVuvvTLnqrlGmLlrc+VUR4alKjs77ch0m1JjIVqhGpp1UYDuqXtc7PlXpVRrsS/HUUymUt+tOzZNGnx2HYTCkofdYcdYSmTwS1JS6TJrU2o91ZJPkH+ubTViVNFIVZaJVXXPueDbkxiZElUp+F20w4+1J4GUwlxxpSGyNCiSSHCMzSs90xmV/Bmdbj2XYLdx25BgKtOw6xT6FSoLEmRVahKn7haS4S46OAU0hG7uIW8bpq3jNvTdO0FgbLF13tEydeb9rU2qordAdVTKbPkSY7VOprMwjWTy4zSlPuuzlnwZtpQhKSLfUfKYdNYe1HaVzWkq8Lmaj0NlFIpNSXCjLl1GaTk9bqGWEstxSN5alNbraWDccWZmRoRone9OrbVGDqLR4tcm3TUlxpMWTNcRGt2pyZECPHdNqQ7NYajqdgobcJSFqkpbJKkqI9DSekitjZQyjadMpFRiVW15dbtpq1pECK5OktRJkmmdupfaedJg1NNrbm+A4TbhkpOpt/X9uaMF7S2Zae7FrdxW1Haq1uVClO02l3hXKRBpEt5xZtPmmKhJ1guBNttaZHAIM0KUltJOKQAoETabt+fk6sY2j0h1hVLrdJo7VQmMz2o8/t2Kp8lMOFEU0pZbuiUm4SFp1XwiS0I/vRtWYDUzXpSr84KLbkGVU5cp6lzW478SM7wUh+I6pkkTm2nNErXGN0kmadTLeLXh17PeR3b/j1px+200f5atmtvOJqMjtlKqfTnIkhlLXa+6ZGakqQvhC15SNKdNT46o7JWYLgseHjmtVWy26ZZdrVe2ralsyZTj9W7dU2hD05C2P8AFCQy0klIbXI31qNW8kkkkwtRbSmP63btUqNiKnVmrwKlCordGnU6ZSJK50zdOKlaJbKHEMrSvhOGJtSeDStSd/d0H5OZ+U1YeWr1XaRb2LZ1ShHFKoclROJEbkb2/wAF+C3uE3dN1emmvLroXM37ie6qRfNXy/EjJqcaHWrbrEem0/hXZbjEKPJizC4Ik+Gompa3G0INSlm3ukW8ZEfg3HsX2neNvZkl3JYGPKtd9+1KpzrcrdRpLb8mnofiNtRyckOMG6ypDiFK0b3t3XUtT1IB115ZrzTQchWpZFv4ismpMXu3Kdo0yZfMuIskxoyH3e2GkUp0mz8M0p3Fua6anu66F+drbVMGqu5bjXLaJUd/Fa317jNR7a+VY7Zuo4RvVpBoUbzDjZIMleNB6+FoXVV/GNequSMVXhHl09MKxo9UaqLa3Fk66cmGhlvgSJBkoiUkzPeNPJppqfIJXVNlS96hfEC4GbhokWnSr2qdXuFpCnjem0V2ZHnxo6D3CInUyYjRLSfg7jjuijPQjDs8MbSM3K1WtaiVKwCoEy4bXnXFIQVV7aKG5GqJQlRteBRwmp6q4TwdNNN0/GLeMv2fg/OmLLltW6LTpNiXG7Sbcq9DmxqjckymJJUqrHNbcaW3T5G+RI0SolJR4RnoZkWp3+2a3dFSqNSp1x2uxTO0G4hokRpjkhmQ64zvvIQpbLRmltfgkoiMlEZGZIVvISE0j57vetvVW57NxD8vWBRKw/RpNTj1hZ1iWuO9wEl+FTERlpkMtuktPLJQ4smnDQ2rwCc+F/aTumddN4Q7NxUxcNDsCss0avtxq4o7jSpZNmciPSERl8Kxo5vJNchpbiW3TQg9Ekr/AGi44z/YEaq47xzVLPatao1yXVINxz5khVVo0eZJVJkMJp5xlsSloW48TTi5LaSJaN5tXBmTnjZYwJknI9cksy7dxpUXu3m3aHkObvsXNbUTh0vEzGZZhmTi2jJZNuFLZJRKLfSeiuED2H9pO6Z103hDs3FTFw0OwKyzRq+3GrijuNKlk2ZyI9IRGXwrGjm8k1yGluJbdNCD0SSryR6kRlry/WQzdljAmScj1ySzLt3GlRe7ebdoeQ5u+xc1tROHS8TMZlmGZOLaMlk24UtklEot9J6K4S50ep16uM16LMpa6K5DnPQIEreN3tlom0GiUSVtoIvCWot3RSdWz0UojIwE1yntLU/FVbvemVS1HpcezbVp1yHJbmpb4dUyW/GS0slpJLLaFMktbylmSUKUZp8Dwuhxpke+rorUig3zjuHRzXTWKxTaxQKw5WqJUIrpmkkomrixt18jIlG3wZkba0LStRGok8BbOI9oUq1cuQLku604V5yLbo9u0+TD35sWpdoSHn3ZExC47JRylcOptTTKV8ClRqQ4oyIh+WPcW3niOuXLkmj4ksC02plMiU5qy7GmvLiVGQUreVPfdKDHSTyUOGhJFGPwSPfdJJlwYVu/MhFZFbsqjqpPbhXfXVUU3eH4PtTSHJk8Lu7p8J+Tbu7qn8fXXk0Pgj20NnTtXt1F5VZ1hcNdQZcatSruFJit/wBM+zuxT4Ztk+R5be8lk+R00GOwybYNYvS4Mf1WlyYbTNqXGurzUyFrSpxk4EuPut7qTI178hB6GaS3SVy66Ecmo2zNe9Ms627dVU7fJ+j4xr1lyDbee4NU+cqOpt1P4IjNojZWalGRK1MtEq1PQKfVtojEFFuWJak26H1y5jkFkpEWkzZUBh2aZFEbkTWWVRoy3d5BoS84g1EtBkWikmf5x9pDDMm9FWA3dziKsUmZESt2lzGoTr0RtTktLc1bRRXOAShRO7jpk2ot1e6oyIRO69mHONxVqnMyLppsyj0uTa8qApy8axFYhNU04qpMQqSw2UOTwjjLziZTxqWRrSk0ESUqTykHG9831eMHAzNHqDdlW/ULwecuR6hVeG8TFTjzGk76p8VmO6tDk00JOM9JJ5KeFM2UlooNIUnadwnWqNV67CuyWmPRGIsqQ1JodQjSXmJSzRFdjRnWEvS23lluNLYQ4l1XgoNR8g7Syb6trIdD7oLWky3IpPuxXW5tPkQJLDzat1bb0aSht5pZH/krQk9DI/EZGea7S2Wcg0mgVxFYtyzZdSXRKbRILU6+7oqxTERpJPOLKXJcJdJ5UJUwUZl1cd3wycc0JJ17FNLyVYNOoto3ZGXVSqcyoyXnvl+ZVioUYiSqPG7elMpfmkZmZcI+aHCNWhEpKfBD177ztizGlcjW9edyOwpj7TUhw2qbLlMwmHXeBaemPMtLahNLc1SlyQptCjSvQz3VaczbW1BY1WhXfUK3Ta5SWrWup21WWyodRkSao+lJKScWOiNwr6zLhFG2yl00oRvme6ZGOHzvsv3RkTI9Yu23m6XUIF3USDQ6qxUrwr1GaiIjuumbiotLWhFTQtuQsuAecZ3VI5HNHFEn6nMD5Wotefue20WpMlUTIEi8KHFmViXHaqEaVTVQn48paYzhxXG981oWlMkl7uhkjeMyCqWzmGgXXclIpdIQT1JuWjOVehVRKlp7bNh0m5UdxlaErYdaNxnVCvC5XCMkG2oh3wkNOpOQ7gybZMu9oMFEy06PUJ1XmUyO+3TlTJppaZiRlveE9wbaHjcXyHqTajQ3whIKvAAAACVbS3zdUj0gWJ96qWKqJVtLfN1SPSBYn3qpYqoAAAAAAAAAACVZk+cXBPpAmfdWvCqiVZk+cXBPpAmfdWvCqgAAAAAAAAAAMq9lH8hPJv7l98QgDso/kJ5N/cvviEADVQAAAAAAmF3ZLu+de0jFuI7egVGt0+K1LrVXqzjiKXRUO6my2tLZb8mQ4lKlEwg0bqNFrcQSmyX5Fdu3PuKac9dl+RbVvy24SeGqh2tR5dLqVPjlyrfbivSZRTCQkjUpCXG3DSRmhK1ESFfVhaVFpt/Zbs6ouobr5XUVecbUf4STT5UKMiLJSXjNsijuRtfoVEWX0FrSrkuShWfb9Ruu6KrHplIpEVybOmSF7rbDDaTUtaj+oiIzAfTTKlT6zTYlYpMxqXBnMNyY0hlRKQ80tJKQtJl4yNJkZH9Rj6RNNmujVS38C2LSaxT3afIZozCigvFouE0st9qMovoNptSGzL6DRoKWAAAAAlTHlTzfR/F94viqiVMeVPN9H8X3i+AqoAAAAAADPmVI9Ol5vkw6isk8NalP4Hwt1RqTMm6mn69N4uQkq/GItNTIy0GOevKwbUv6AiDc9Jbk8CZqjyEmbciMs/8AKadTopB/Xoeh+I9S5BYVlTJNEdpFvTD4dDrThESFchK1JZakadT5S/QZlrqWupHpFTMiIzM9CIahv/BmT1QytuhTGLkp0laW48yW63Gkwy1Llkn4nEEkvxmyNXiImtNTHyM4axlhdiFUchsTL2uKYhx6HTWY2kMuCNG+rcUe5upNxGq3lmXKRpSR8g1LGcSPFdi5UrdTZvCwWGqdEgtuG7WKm4caATXIa9HSLfVpuF4TZKItD3uQXzHu0tGdnJtjIDPak0lqaalIMltSCTyGtpafAfR/WRy6eNJDyKpmC+6guXTqtTKEikzIbkWRQS3mlNsKQRLQUtXieSlxv8ZpLf4RKPxiUaeOk0xuq0+RT3IDtz0uGhPbcR6NuVqmEnwd6RGIz4QiP/p45qTrqZEjTUpfJ019CnQqlFbm0+U1IYdLVDjaiUk/7SH7jG9qXNe2PkprVh1xdyUJ3w1xVukt9Kf0GZ6PEXLyK0WXiJZnyDQGOM6WfkBoo6ZKYFRQfBuxnzNBpc+lJ7xEaFf1VER/Vr4xLFlcNta/+oYv+hV/fMjqMHWLZFTxPatVqVnUOXNeprRuyX6cy46sy5C3lmkzPQiIuU/ERDmNrT/1DF/0Kv75kUPAHzMWj/8ALUf+Jh6PbqWLPtKNp2ta1Ia08W5BaT/4JH3sU+BG/JoMdrT/ADGkp/8AAh9ACKAAAAAACVZ4/LsX+kCnfZ5QqolWePy7F/pAp32eUKqAAAAAAAAAAACVbWPksZk9H9w+7nxVRKtrHyWMyej+4fdz4CqgAAA8S27Hs2zn6rKtO1KTR367OdqVUdgw22XJ0txRqW++pJEbrhmo/CUZnyj2wASq3PKnyH6P7N943GKqJVbnlT5D9H9m+8bjFVASrZp+bqr+kC+/vVVBVRKtmn5uqv6QL7+9VUFVAAAAAAAAAAAAAAAAAAAAAAAAAAAAAAAAAAAAAAAAAAAAAAAAAAAAAAAAAAAAAAAAAAAAAAAAAAAAABKtpb5uqR6QLE+9VLFVEq2lvm6pHpAsT71UsVUAAAAAAAAAABKsyfOLgn0gTPurXhVRKsyfOLgn0gTPurXhVQAAAAAAAAAAGVeyj+Qnk39y++IQB2UfyE8m/uX3xCABqoAAAHCXfnrBmPqyq3L+zPYttVZDaXlQKxcUOHIShX4qjbdcSoiP6D00Md2ADO1/ZX2L8gTIFcmbTePKRcNJQ43Ta9Rr9p8SoRELMjW2SyeNLjSt0jU06lbZmRGaTMiMppizKGzhe1M+Xs+bYNuXhLpFz1pqm0q4bwosSChiFV5LNOlqhxEx25Clx2Y76XHkuJNThONkkjRptQSrZp+bqr+kC+/vVVADvsdljnLYq9cqd8YU+JLiz4rM6DJakxpLaXmXmVktDiFFqlSVFyGRkZGRlyGRj9gAAAAASpjyp5vo/i+8XxVRKmPKnm+j+L7xfAVUAAAAAAAAAAchkLGtKyAzEeenSqdVKal0oE+MrVTJObu+lSD8FaFG2jUj5fBLQ0nyjrwAZSuW3a/jx4o1701CKabpcDV4RaRFr1MkKNehriuaLcIkq1b3nln+FWRKLxaghSXIslhMg1wuEXGdbcUzIjIb1JKmnycPc/BkfKkzJLaGiUnfW4SdhvsMSmHI0plt5l1JocbcSSkrSZaGRkfIZGX0CMXfs9LaJ+Ti6psUpMhKkLpE1SzgoUficZUklLYNJ6K3CJSD3SIiRrvFdTEn+U6TV7lhQpk1cKv1iWxGi1uBHQhcl11SUtlUYZKJt7lURKeYUlRH4J6bqh0LezLfV3XWmsXJVoVrtU5BMpkUvR6RNURFqpJmRETR8nI6RnyKLcLkUfT07Z1iY5tqp3bSjcuy/Y0VyRT5UxsjaZlEnkUxHNW7vEfKk1qUrUiLeIjHK2HaeTq9eUWvUFmv05tmS09PrdbcfYckpSsjcaNlwiU7vJ3i3d0m06mRGg0pF/B+OQsc5tehtWNPpy7nbX+CpdViGSGt3hEKUUgnFaxzJKNfxlIPxJPUySNCYxtebZVgUK1ai6y5KpsNDDymVGpBrLlPdMyIzLl01Mi1+oh04CaYAACKAAAAAACVZ4/LsX+kCnfZ5Qqogu11kW0MWUjGd331Vk0ykMZFpbT0pSFKQ1vMSi3lbpHoki1Mz+giMXGnVGn1inxqtSZ8ebBmNJfjSYzqXWnm1FqlaFpMyUkyMjIyPQyMB9IAAAAAAAAAAlW1j5LGZPR/cPu58VUSrax8ljMno/uH3c+AqoAAAAAAlVueVPkP0f2b7xuMVURDu1s2z9qe++627aLRO28f2h2v8oz2o3DblRuLe3OEUW9pvJ108W8X1jvOOrDfnaszp6L8QBHcJbQuArGte4bWvXOGP7frULIF8ds06qXNCiSmN+56ktG+044lad5C0qLUuVKiMuQyFA77HZY5y2KvXKnfGHRcdWG/O1ZnT0X4gcdWG/O1ZnT0X4gDne+x2WOctir1yp3xg77HZY5y2KvXKnfGHRcdWG/O1ZnT0X4gcdWG/O1ZnT0X4gDne+x2WOctir1yp3xg77HZY5y2KvXKnfGHRcdWG/O1ZnT0X4gcdWG/O1ZnT0X4gDne+x2WOctir1yp3xg77HZY5y2KvXKnfGHRcdWG/O1ZnT0X4gcdWG/O1ZnT0X4gDne+x2WOctir1yp3xg77HZY5y2KvXKnfGHRcdWG/O1ZnT0X4gcdWG/O1ZnT0X4gDne+x2WOctir1yp3xg77HZY5y2KvXKnfGHRcdWG/O1ZnT0X4gcdWG/O1ZnT0X4gDne+x2WOctir1yp3xg77HZY5y2KvXKnfGHRcdWG/O1ZnT0X4gcdWG/O1ZnT0X4gDne+x2WOctir1yp3xg77HZY5y2KvXKnfGHRcdWG/O1ZnT0X4gcdWG/O1ZnT0X4gDne+x2WOctir1yp3xg77HZY5y2KvXKnfGHRcdWG/O1ZnT0X4gcdWG/O1ZnT0X4gDne+x2WOctir1yp3xg77HZY5y2KvXKnfGHRcdWG/O1ZnT0X4gcdWG/O1ZnT0X4gDne+x2WOctir1yp3xg77HZY5y2KvXKnfGHRcdWG/O1ZnT0X4gcdWG/O1ZnT0X4gDne+x2WOctir1yp3xg77HZY5y2KvXKnfGHRcdWG/O1ZnT0X4gcdWG/O1ZnT0X4gDne+x2WOctir1yp3xg77HZY5y2KvXKnfGHJYmy7ihrIuaKhLyfaTLcq8oSYq3K1GSTzKLepJGtBmvwk8IbqdS5N5Ci8ZGKfx1Yb87VmdPRfiAOd77HZY5y2KvXKnfGDvsdljnLYq9cqd8YdFx1Yb87VmdPRfiBx1Yb87VmdPRfiAOd77HZY5y2KvXKnfGDvsdljnLYq9cqd8YdFx1Yb87VmdPRfiBx1Yb87VmdPRfiAOd77HZY5y2KvXKnfGDvsdljnLYq9cqd8YdFx1Yb87VmdPRfiBx1Yb87VmdPRfiAOd77HZY5y2KvXKnfGDvsdljnLYq9cqd8YdFx1Yb87VmdPRfiBx1Yb87VmdPRfiAOd77HZY5y2KvXKnfGDvsdljnLYq9cqd8YdFx1Yb87VmdPRfiBx1Yb87VmdPRfiAOd77HZY5y2KvXKnfGDvsdljnLYq9cqd8YdFx1Yb87VmdPRfiBx1Yb87VmdPRfiAOd77HZY5y2KvXKnfGDvsdljnLYq9cqd8YdFx1Yb87VmdPRfiBx1Yb87VmdPRfiAOd77HZY5y2KvXKnfGDvsdljnLYq9cqd8YdFx1Yb87VmdPRfiBx1Yb87VmdPRfiAOd77HZY5y2KvXKnfGDvsdljnLYq9cqd8YdFx1Yb87VmdPRfiBx1Yb87VmdPRfiAOd77HZY5y2KvXKnfGDvsdljnLYq9cqd8YdFx1Yb87VmdPRfiBx1Yb87VmdPRfiAOd77HZY5y2KvXKnfGDvsdljnLYq9cqd8YdFx1Yb87VmdPRfiBx1Yb87VmdPRfiAI7m3aFwFfNr29a1lZwx/cFam5AsftanUu5oUuU/uXPTVr3Gm3FLVuoQpR6FyJSZnyEY0qOM46sN+dqzOnovxA46sN+dqzOnovxAHZgOM46sN+dqzOnovxA46sN+dqzOnovxAHZgOM46sN+dqzOnovxA46sN+dqzOnovxAHZgOM46sN+dqzOnovxA46sN+dqzOnovxAHO5k+cXBPpAmfdWvCqiFZEyFYN2ZSwZTrVvi36zLbvua+tin1NmQ4lsrXrpGs0oUZkkjUktfFqovrF1AAAAAAAAAAAZV7KP5CeTf3L74hAHZR/ITyb+5ffEIAGqgAAAAAAEq2afm6q/pAvv71VQdnkC/bdxnac28bokOIhw9xtDTKOEflSHFk2zHYb8bjzrikNoQXKpS0kJbs61uuWi9UMO5NpEWhXbOnVe9YMZiWUhiZDqVRemyENO6FvuRZExUd1JFyFwLhGaXSAXQAAAAAABKmPKnm+j+L7xfFVEqY8qeb6P4vvF8BVQAAAAAAAAAAAAAAAAAAAAAAAAAAAAAAAAGGey/UCtXZs42falt056oVatZEpcCBEZTvOSJDsWalttJfSZqMiIeN2OfBm05hVyfbNcyzQpdq0WsS6XclnzY778ilSkt8K07CdJRJSl5LkZ4tdEKbfNRo3y5NU55SSpuLyURGXGBTj5f+zyh812p4tc40DIDZ8HQ7/batGvcvgNVFBrcpUk/oLeNUiIo9NVKeikZ6IIBXwAAAAAAAAABKtrHyWMyej+4fdz4qolW1j5LGZPR/cPu58BVQAAAAAB5NVtO1a9ITMrls0qovoQTaXZcJt5ZIIzMkkaiM9NTM9P0mPj4uMefmHbvRbH8I6IAHO8XGPPzDt3otj+EOLjHn5h270Wx/COiABzvFxjz8w7d6LY/hDi4x5+Ydu9FsfwjogAc7xcY8/MO3ei2P4Q4uMefmHbvRbH8I6IAHO8XGPPzDt3otj+EOLjHn5h270Wx/COiABzvFxjz8w7d6LY/hDi4x5+Ydu9FsfwjogAc7xcY8/MO3ei2P4Q4uMefmHbvRbH8I6IAHO8XGPPzDt3otj+EOLjHn5h270Wx/COiABzvFxjz8w7d6LY/hDi4x5+Ydu9FsfwjogAc7xcY8/MO3ei2P4Q4uMefmHbvRbH8I6IAHO8XGPPzDt3otj+EOLjHn5h270Wx/COiABzvFxjz8w7d6LY/hDi4x5+Ydu9FsfwjogAc7xcY8/MO3ei2P4Q4uMefmHbvRbH8I6IAEMwlYNizK3laU/ZdBdSq/ZDbRLprJkhDdOgNbqdU8hatqPQvpMxUeLjHn5h270Wx/COM2fPwtPvyb/8AicgXBy/Xwco2f/8Alp/YKqA53i4x5+Ydu9FsfwhxcY8/MO3ei2P4R0QAOd4uMefmHbvRbH8IcXGPPzDt3otj+EdEADneLjHn5h270Wx/CHFxjz8w7d6LY/hHRAA53i4x5+Ydu9FsfwhxcY8/MO3ei2P4R0QAOd4uMefmHbvRbH8IcXGPPzDt3otj+EdEADneLjHn5h270Wx/CHFxjz8w7d6LY/hHRAA53i4x5+Ydu9FsfwhxcY8/MO3ei2P4R0QAOd4uMefmHbvRbH8IcXGPPzDt3otj+EdEADneLjHn5h270Wx/CHFxjz8w7d6LY/hHRAA53i4x5+Ydu9FsfwhxcY8/MO3ei2P4R0QAOd4uMefmHbvRbH8IcXGPPzDt3otj+EdEADneLjHn5h270Wx/CHFxjz8w7d6LY/hHRAA53i4x5+Ydu9FsfwhxcY8/MO3ei2P4R0QAOd4uMefmHbvRbH8IcXGPPzDt3otj+EdEADneLjHn5h270Wx/CHFxjz8w7d6LY/hHRAA8Wn2VZtImN1ClWlRYUprXg348BptxGpGR6KSkjLUjMv1GY9oAAAAAAAAAAAAZV7KP5CeTf3L74hAHZR/ITyb+5ffEIAGqgAAAfy442y2t55xKG0JNSlKPQkkXjMz+gh/QkGSEVfLd38S9JN+La0FLUq+p24pvtuM4k1M0hhZGRmb5eE+pP4jHgcinyNIfNYxOZ2vKNmKctL1hURR9wsRSfBnyNFIdray10NKkmpuLqXI0px7/AKZG52GWcdyL+oDLtvVNujXdQnvlG2qyps19ozSSafDSRkbjDiDU083r4bbii5Fbqi7ONGjw47UOHHbYYYQltpptBJQ2hJaElJFyEREREREP1AcZivI8fI1Afekwvku4aJKVSrjo63CW5TKi2lJuNGZfjoUSkuNueJxpxtZcitC7MSXKlArll3ExnSwYDkmTAZTGu6kRmzU5XKOjeMlNp1IlTIpqW4z9K0qdZ8biDRUKXU4NapkSsUyQT8Oew3JjukRkTjS0kpKtD0MtSMj5eUB9QAAAJUx5U830fxfeL4qolTHlTzfR/F94vgKqAAAAAAAAAAAAAAAAAAAAAAAAAAAAAAAAAlWePy7F/pAp32eUOuyZY0LJVhVux5slcUqrFU2xLbL8JDkpMlsSUf12nUtuJ/rIIcjnj8uxf6QKd9nlCqgOIwxfM7IeOaVX65Fbh15knabXobZ6pi1WK4piW0WpEe6Tza90zIt5BoVpooh24kdH1x5tC1ahH+DouT4Hy5CLxJbrUJDbExBfQRvRTiOEXJqcaQrlMz0rgAAAAAAAAlW1j5LGZPR/cPu58VUSrax8ljMno/uH3c+AqoAAAADP+N7dyjlCk1u7Zu0nkCif+mF00uPTqXTbd7VixYNcmwo7aDkUt109GYzeprcUo1anrygNAAJVxN5F52OVejbV6mDibyLzscq9G2r1MAqoCVcTeRedjlXo21epg4m8i87HKvRtq9TAKqAlXE3kXnY5V6NtXqYOJvIvOxyr0bavUwCqgJVxN5F52OVejbV6mDibyLzscq9G2r1MAqoCVcTeRedjlXo21epg4m8i87HKvRtq9TAKqAlXE3kXnY5V6NtXqYOJvIvOxyr0bavUwCqgJVxN5F52OVejbV6mDibyLzscq9G2r1MAqoCVcTeRedjlXo21epg4m8i87HKvRtq9TAKqAlXE3kXnY5V6NtXqYOJvIvOxyr0bavUwCqgJVxN5F52OVejbV6mDibyLzscq9G2r1MAqoCVcTeRedjlXo21epg4m8i87HKvRtq9TAKqAlXE3kXnY5V6NtXqYOJvIvOxyr0bavUwCqgJVxN5F52OVejbV6mDibyLzscq9G2r1MAbNn4Swa3M+mVft6OfrSm46ghJ//tQkVUZf2dcT35UsUw6lE2m8lU1uZV65J4CLAttTe8uqy1Kc1dpK1byzM1q8LTeWe6SU6JKl8TeRedjlXo21epgFVASribyLzscq9G2r1MHE3kXnY5V6NtXqYBVQEq4m8i87HKvRtq9TBxN5F52OVejbV6mAVUBKuJvIvOxyr0bavUwcTeRedjlXo21epgFVASribyLzscq9G2r1MHE3kXnY5V6NtXqYBVQEq4m8i87HKvRtq9TBxN5F52OVejbV6mAVUBKuJvIvOxyr0bavUwcTeRedjlXo21epgFVASribyLzscq9G2r1MHE3kXnY5V6NtXqYBVQEq4m8i87HKvRtq9TBxN5F52OVejbV6mAVUBKuJvIvOxyr0bavUwcTeRedjlXo21epgFVASribyLzscq9G2r1MHE3kXnY5V6NtXqYBVQEq4m8i87HKvRtq9TBxN5F52OVejbV6mAVUBKuJvIvOxyr0bavUwcTeRedjlXo21epgFVASribyLzscq9G2r1MHE3kXnY5V6NtXqYBVQEq4m8i87HKvRtq9TBxN5F52OVejbV6mAVUBKuJvIvOxyr0bavUwcTeRedjlXo21epgFVASribyLzscq9G2r1MHE3kXnY5V6NtXqYBVQE02eK5c1fxs69d9yS7gqVOui6KIdSlsR2X5LECuzocdTiYzbTJL4GO0RmhtJGZGenKKWAAAAAAADKvZR/ITyb+5ffEIA7KP5CeTf3L74hAA1UAy0Vl4iyBKzLdudIlHkXBaValst1OqOEmTa9KajocgvwnjMlwCUgzkE6ypClOmtW9vJ0TnzKFiXNktul3Pk+6KmdfPHljHIYlUWkP8AubWCjykF21CdcQThEpa0b+i1LUlwlNkTaQ/6UAMd2Zc11LuubhS1r4j42pMWqXhNRWaRRKQwZN0x+IwywppyOcfgyTINx1RNk4om0kTiC11/Dj6zhU8qvyKHWHp9tUW7qHbZuRXrcjW3VIUuLGcdkKXKllUu2nTlKdjpjqW2pLbSCS8alqMNlgM+bQlzZRYyBAtSxMkzLSgpsW4rjkuwqdCkvuyoa4hRyI5TLqSRq8sllu8qVHoaVaKTOIuastUGh1KPc2VarUJtxWxZ1ZpjkC3KauXDqFZlvMLhU9tZsxySe4hLS5q3SbPwnFOkRpMNlAMY2blLOV8y7fsBOTbjt99zJFZtmfUpsCgv1ooMakqlpZd7VaepxPoe8DeaQZbqdFFvbw5+7tozMLWH4NWp+QLqdua3rMqtdqz1AolAZYWuNNfjMTai7U3EoJhZxlbzEFond7hDJSSNtADdwDIM7MuVqncZXQ3lI6DGi5Etyze5NNOgLYlxJTMR5541uNqkk86UhxSTS4SUsoPRG9q4XN0naG2hJrtRu6RIqkGm1Ni8WW4lRcttFPhLprUk4q6a2h/5TefbXHQT6JLTifwi1braUpIBuISpjyp5vo/i+8Xx72Fm7o4r7cn3neM65qzU6dHqEudLjxWTJx5pK1NtojMtIJtJqMk6pNemm8pR8o8Fjyp5vo/i+8XwFVAAAAAAAAAAEVyFm7ItCyTXMfWDjW2q4m3LWj3TUJlau16k6tOuyWyaaSiBISpRdqqM1LWhPhF4tDMWoZozLs7XBe2bJ2S04cxLkWmy7Wh0ONHvWoOR3abJZkSXVPMkVNlloon2y1SptWqP1GAoFG2m8T1IqbHn1So0qdNtiNd0piVSZfBUumvsrdS7MlIbONHLRp0tXHE6mjQtTMiP7rS2i8Q3s5FYoNxzSky6gxS24k+iT4Ekn34y5LBrZkstuIbdZbWpt1SSbXumSVGfIJrD2XLwlWtetr3RfjFRk3Vjmk2b8uOG87LVMjFM4WQ6lZ7ymzVJbMvwpqUSVbxkfKfyVbZ/zResO7r3uaRZFGv6ZBoMW22KdMlS6dEepTzj6JD0hbDLxm66+8k0JbPg29CJThmZgKk/tJYXYoMK5TvFTlPqTU16GtmmTHVyCiyW4ryUNIaNal8O600hBJ3nFLSTZL1IfzN2kcRU+2oV0ya1WOAqEuTCYgt21VHKrw0YjVISunJjnMb4NJbyzWyRJSaVGZEpJnM2dli4aLGu5qnKtyux5UCmQbfp9VlS4qG0NqZdmqVJjJJ6I848whxqQ1wi2loQ5oZlujy7g2Y8r1em2lcMmrN1Sv229WWGqO/kevwkxoE7gjQymvRmyqEk2lx0KPh2jJwnVJPd3G1EFvomd8WXNdtOsi2bjfrNUqtJj12MqnUuXKidoPk4bMhyW20qO0hfBOEnhHE6mnQuUyI+/EVwRgmq4kuCRUJSqGUNdoUKgNNU5yWvg34bkxb+720t13gTOSjcNbziz3T3tNC1tQAAAAAAAAAACVZ4/LsX+kCnfZ5QqolWePy7F/pAp32eUKqAl20VSKgvH6b7oENcmvY8nNXbTWmy1ce7WJRSo6P6z8NyWwXKXK8Qo1JqtOrtKhVykS25UCox25cV9s9UusuJJSFl+g0mRl+sfUZEZGRlqRiTbO3/o1Rbhw294KscVp2kwEH//AEd1KZNN3f6qIz6I+pf5UZfi00AVoAAAAAABKtrHyWMyej+4fdz4qolW1j5LGZPR/cPu58BVQAAASrZp+bqr+kC+/vVVBVRKtmn5uqv6QL7+9VUAVUAAAAAAAAAAAAAAAAAAAAAAAAAAAAAAAAAAAAAAAAAH8uOIabU6s9EoI1Gf1EQCWbLHh7PtlSf/AMZT1TNfr4Z1bmv/APMVUSzZUbWjZjxKpwtFu2TRH1l9S1wmlq/3qMVMAAAAAAAAAAAAAAAAAAAAAAAAAAAAAAAAAAAAAAAAAAAAAAAAAAAAAASrZp+bqr+kC+/vVVBVRKtmn5uqv6QL7+9VUFVAAAAAAABlXso/kJ5N/cvviEAdlH8hPJv7l98QgAaBuXFeMLzr1Nuq8McWvXa1RjSdNqVSo8eVKhGle+k2XXEGtvRfhFumWh8vjHo1OzrRrUp2dWbWpE+S+2wy69JgtOrcbYd4ZlKlKSZmTbpm4gj5Er8ItD5R7AAOTuLEeKbup50m7MY2nWoJ1BdWONUaLGktHOXrvydxxBlwx6nq5pvHqepj95eM8cVC74WQZ+P7bk3TTGSjwq49SmF1CM1ootxuQaOEQnRay0Soi8JX1mOlAB5063LeqkwqjU6DTpcsoj0An34qHHCiumk3Wd5RGfBrNCN5HiVup1I9CHlVPGONa1TZFGrOPbZn0+ZBj0yREk0mO6y9DYUamI60KQaVNNqMzQgy3UmZmRFqOmABzdDxpji2Ew0W3YFt0lNPd4eGUGlMMFHd4Ao++3uJLcVwCUtalofBkSfxS0Hw1PDGHq2qmLrOKLNnqopPpppyqFFdOETyjU8TO8g+D31GZq3dN4zMz1HZAAjlW2XLCruVablWr1Ga+/RlxVU+lopdIjx46IxEcdopLMJE9bLbhE6llcpTe+RGaTIiSXct4oxa1cNXu5rG1qortwRlw6vU00aOUuoR1klKmpD25vuoMkpI0rMyMkkWnIQ6oAH5RYsWDFZgwYzUePHbS0yy0gkIbQktEpSkuQiIiIiIuQiEvY8qeb6P4vvF8VUSpjyp5vo/i+8XwFVAAAAAAAAAAAAAAAAABwNyZwsC26iqlKmyqpJYXuTE0uMqUUP6+FNHISi+ltOrn1JMddQ6/RbmpjVZt+qRqhCfLwH47hLSZl4yPTxGR8hkfKR8hkRgPQAAAAAAAAAAAAASrPH5di/0gU77PKFVEqzx+XYv9IFO+zyhVQASa4f/AEL2jLYuJP4OBkOjv2vMPxEqowicmwP0amwqqEf0+CgvoFZEt2lYMvimqF3UphbtTsaVFvCGhstVuHT3kyHmUl9Jux0PsaeMyePTQ+UBUgH4QZsSpQo9RgSEPxpTSH2XUHqlxtREaVF+gyMjH7gAAAAJVtY+SxmT0f3D7ufFVEq2sfJYzJ6P7h93PgKqAAACVbNPzdVf0gX396qoKqJVs0/N1V/SBff3qqgCqgAguOaztOZNs+FfEDJWL6RGqbkg2YT2P6hKWwhD7jaUqeKtNks9EEZmSElqfiIBegEq7nNqfzyYq9mlR69Duc2p/PJir2aVHr0BVQEq7nNqfzyYq9mlR69Duc2p/PJir2aVHr0BVQEq7nNqfzyYq9mlR69Duc2p/PJir2aVHr0BVQEq7nNqfzyYq9mlR69Duc2p/PJir2aVHr0BVQEq7nNqfzyYq9mlR69Duc2p/PJir2aVHr0BVQEq7nNqfzyYq9mlR69Duc2p/PJir2aVHr0BVQEq7nNqfzyYq9mlR69Duc2p/PJir2aVHr0BVQEq7nNqfzyYq9mlR69Duc2p/PJir2aVHr0BVQEq7nNqfzyYq9mlR69Duc2p/PJir2aVHr0BVQEq7nNqfzyYq9mlR69Duc2p/PJir2aVHr0BVQEq7nNqfzyYq9mlR69Duc2p/PJir2aVHr0BVRkPb62kcv7K0a18j25QqbcNgVbtmg1+nvNm1IjS3E78aQ1ITru6pS6nRSTSW74jNaTTZ+5zan88mKvZpUevRwubtnrO+fMX13FF9ZexkukV1lLbi42Oag2+ytC0uNuNrVW1ElaVpSZGaVF9BkZGZGEx7HBtDZY2g7faR3HUq28X49t+DasRZ78ibVqoyyyk3Ce1ShCG2myUbZN6l2ygt5empbdGb8H7PGdcBYvoeKrEy1jBmlUVk0pXIxxUHX33VqNbjrrhVtBLWpSjMzJKS8RESSIiLu+5zan88mKvZpUevQFVASruc2p/PJir2aVHr0O5zan88mKvZpUevQFVASruc2p/PJir2aVHr0O5zan88mKvZpUevQFVASruc2p/PJir2aVHr0O5zan88mKvZpUevQFVASruc2p/PJir2aVHr0O5zan88mKvZpUevQFVASruc2p/PJir2aVHr0O5zan88mKvZpUevQFVASruc2p/PJir2aVHr0O5zan88mKvZpUevQFVASruc2p/PJir2aVHr0O5zan88mKvZpUevQFVASruc2p/PJir2aVHr0O5zan88mKvZpUevQFVASruc2p/PJir2aVHr0O5zan88mKvZpUevQFVASruc2p/PJir2aVHr0O5zan88mKvZpUevQFVASruc2p/PJir2aVHr0O5zan88mKvZpUevQFVASruc2p/PJir2aVHr0O5zan88mKvZpUevQFVASruc2p/PJir2aVHr0O5zan88mKvZpUevQFVASruc2p/PJir2aVHr0O5zan88mKvZpUevQFVASruc2p/PJir2aVHr0eVdjO1Pa9q1m5uNrFUn5Ip8idwHFvUUcLwTal7m98unu67umuh6a+IwFqAeJZFblXLZdAuOc203JqtLizXkMkZISt1pK1EkjMzItVHpqZnp9Jj2wEq2afm6q/pAvv71VQVUSrZp+bqr+kC+/vVVBVQAAAAAAAZV7KP5CeTf3L74hAHZR/ITyb+5ffEIAGqgAAAAAAAAAAAAAAAAEqY8qeb6P4vvF8VUSpjyp5vo/i+8XwFVAAAAAAAAAAABnbJ9+XZWrxrtnMXE5R6NSJDUU2oCTYkSjVHZdVwkneNSU6u6ETZNnycqj10Fk0U29sy2hZshykIddrNbQRa0ynaOOtmfiN5RmSGS5SPw1EZl+KSvEI5c97Xzfe+1XqmVLpa9S+SaW6pCVJ+p+RyOO/pJPBoMuQ0q8Y8aFToVLjlDgRG4zSTM9xtO6Wp+Mz+sz+kz5TH0C4zr8o0WNCYRFhx2mGWi3UNtIJKUl9REXIQ/unPVW3qmquWpVXaTUFmRvKbTvMySL6H2T8FwtOTXkWRfiqSPFrt40WgkpuQ/wANILxMNcqtf0/Qn+0Tmv33Wq3vMoc7TinycE0fKov6yvGf+4v0C5qNlYny8nIcmfQZ9MRGq9JabckuRXidiOpUZkRoPXfQrVJ6oUXJ9Cl6GYpAylsYf+0l1/8AYYf946NWjNmVuAAAgAAAAAACVZ4/LsX+kCnfZ5QqolWePy7F/pAp32eUKqAD85MdiZHdiSmUOsvoU242stUrSZaGRl9JGRj9AASvZlkSGMRU6z5zq3JljS5tnvG4eq1IpshcZhxR+MzcjtsO6nymThGfLqKoJPj0u53O2UrR/FZrTdHvOMn6DVIjqgPkn6tFUttai+t7XxqMVgAAAABKtrHyWMyej+4fdz4qolW1j5LGZPR/cPu58BVQAAASrZp+bqr+kC+/vVVBVRKtmn5uqv6QL7+9VUAVUSrZc+Yq2f8AXftjwqolWy58xVs/679seAVUAAAAAAAAAAAAAAAAAAAAAAAAAAAAAAAAAABmXM1TvaJfl04mpN31ynuZQZoabelsT3GnKYrhlMVQ4iyWRsmiM0h8twiPfcNXjMBpoBi9zP2RKBRCvt9dSqFTtmhUSypEbgZkuK5cU2prjS5bsCN+ElLZKMhxLbf4VSXTQk0cJvD64WYNoS/b9x/QqYuNblXVVrkppz6za1ZpFLrENqHGfZm/I8t1mSsy31NE2p8yS4lxaXDSW6YbFAcPhLIMzKWLLfvqow40WdUWFomNRVmtgpDLq2XTaUfKbZrbUaNeXdNOvLqO4AAAAAAAAAAAAAAAAAAAAAAAAAAAAAAAAAAAAAAAAAAAAAAAAHKZY+ay8v2fqP2ZwdWOUyx81l5fs/UfszgBif5rLN/Z+nfZmx1Y5TE/zWWb+z9O+zNjqwEq2afm6q/pAvv71VQVUSrZp+bqr+kC+/vVVBVQAAAAAAAZV7KP5CeTf3L74hAHZR/ITyb+5ffEIAGqgAAABPcx3rc1twKJa9gNQl3feVSKkUhyclS40MiacfkTHkpMjWhlhl1ZI1TwjnBN7yd/eLx0bPEKQz27WsuZTnV9Rby6s1eEyGnhPpUmBHWiAktfEg45pIuQ9QFaATHFd03pFui4cSZLqTFVrlvsRqnT600wlj5YpMlTqGnnWkESG5DbrDzTqUESD0bcSlBOkhNOAAAAAAAAEqY8qeb6P4vvF8VUSpjyp5vo/i+8XwFVAAAAAAAAAAEHgMW9KyhkuPc9KdkwV1GJvSW2zV2ofaMfRZmnwkkf+cXJycvILwMv3FXqvb2Xr1n0ec5GeKqMEZpPkUXaEXkUR8ii/QYsSugurGs+gQlVygzUVeiEnhN4llwjSPr1LkUX6S/tIZ8u2+qw/NlUuCvtOOy4prebP8IvQ9NTV9Hi8RaePxmL8d80up0GpRyU5RJ8lhZOsx078KaZly/gz/oln/nF/br4hl2v/wDryof9pc/4jGoj4TMzMzM9TMf4ADSNE7GH/tJdf/YYf946NWjKWxh/7SXX/wBhh/3jo1aOfLtqAAAigAAAAAAlWePy7F/pAp32eUKqJVnj8uxf6QKd9nlCqgAAACUXh/yFtF46ryfBauGjVy2HvqcfIo86P/alESbp/wBdQq4lO0F/ydGx9d5ch29f9EVvf5pT3F0pR/q3akoj/QZirAAAAAJVtY+SxmT0f3D7ufFVEq2sfJYzJ6P7h93PgKqAAACVbNPzdVf0gX396qoKqJVs0/N1V/SBff3qqgCqiVbLnzFWz/rv2x4VUSrZc+Yq2f8AXftjwCqgAAAAAAAAAAAAAAAAAAAAAAAAAAAAAAAAA8Cr2Jadeuqg3tVqOiRW7YKUVKlm4tKoxSEEh4t0jJKt5JEXhEenjLQ+USHaTvDI1t1aA5aN31ikUam0WdVqwVttUWVUo5Nrb3JcmLUzJTtPQknd8oplIUs0pSfKWk6qeds4TczVFdDcqbdtUO9KNbPazi7fh0SXClRo63VvnNkN1Qpq+2lLZQyRoUTbSCQ4ZrMBouVhbGUyg3HbMi10HTrsqSqxVWkyn0qcnKNCu2G3CWS2HEqbbWlTJoNC0ktO6rlHOObK+EHIMKH3N1ZD8CZMqLNTbuaqoqnbUpKEPvrqCZJSnHFttob31umomy3CMkapEVg5wynjeyKTnTIeRZletmddNx0eqUx6FAYjwGGnprVNJhbUdDu+p2KwyZuOqJSpBeLkH5sX7l2h3zEse4bmYp1yXU1ZlIrFxw6RT0S4D0pipvv7ilsmhxW/HSw0l5DqEcIZkgzUe8GtrbtyhWhQKfa1s0uPTaTSo6IkOIwndbZaQWiUkX6CL9Z+Mx6QxXlPM+caBWZtn2DkeXc6bNtJ6uuXHS02xGiz5iJ8hlSKwqoSGm247JRktPnB4JZOOLUfAeA2NjUObIqVFp9RlstsvyorTzrbbiXEoWpBGZEpJmlREZmWpGZH9Bn4wH3AAAAAAAAAAAAAAAAAAAAAAAAAAAAAAAAAAAAAAAAAAAAAAAOUyx81l5fs/Ufszg6scplj5rLy/Z+o/ZnADE/zWWb+z9O+zNjqxymJ/mss39n6d9mbHVgJVs0/N1V/SBff3qqgqolWzT83VX9IF9/eqqCqgAAAAAAAyr2UfyE8m/uX3xCAOyj+Qnk39y++IQANVAA8S76/VraoyqpRbIrd2SUuJQVOo70JuQoj8ayVMkMNaF9Ormv1EYDg86NVO3p1m5fptHm1Zix6m+7V4MFk3pK6XKjLYfdZbT4Ti2VKZfNCSNSm2nUpI1KSQ7SlZHx/XLVK+KRe1DlW8bXDHVG57RxUo011U5vbqdPpIzIy+kcbxyZF5p2VekrV65EIuxqiVbahs65apsLV5+qvWnc0p5mTEtJyZNfTOom5M4T5TNCjYJbiN5bhOF23+DJSVOmkLRiqqFlLKNw5ppMZ9u1UUiNbNuy3WzR8rJbedflTmiPlOOpa2WmlGRb/AADi06oWhR2QSrjkyLzTsq9JWr1yOwse7K9dkWTIr2MrlsxxhwkNsVyRTXVyCMtTWg4EuSkiLxeGpJ6+IjLlAdKAAAAAAAlTHlTzfR/F94viqiVMeVPN9H8X3i+AqoAAAAAAAAAAzPW6KxWsp38w46426mqRuCNGijNRwI3JueNfi8ST3vqSrlItMCS33iq5UV6pXvj2qNOS6oaF1KjTyT2vMNDaGyNCzIySrdbT4KyUkzIjI2+VQsSpFU6LPpKiOS2SmlqNKH2z3m1mXjIj+gy+lJ6KL6SIQ+v/APryof8AaXP+Ixo6Td0aaxUaFV4Uqi1xljSRTppKS4ZFyJNJnvb6P801b6eTwHS8QzjXtVXBMZbQtx12W4httCTUtxRqPRKUlyqP9BFqNxl8A/uOzJmzGadAiPy5klW4xGjNKdedV9SEJI1KP9RCz472Vr4u3g6heDq7XpiuXgjSlc91PL4kHqln6OVe8f1oIagsLFtjY0hqjWlQmozrqSS/McM3ZUjl18N1WqjLXlJOu6X0EQXkuJhsv4lvOwTrFwXhDZp66uxHajwuGJx9CUKWo1ObvgpM98tEkpR+PXQ+QXsAHO3WgAAAAAAAAAEqzx+XYv8ASBTvs8oVUSrPH5di/wBIFO+zyhVQAAABKdqj8Ds+XtWS8dAp5XCR/wCadPdRMJX9na+v9gqw4nN9KTXsL3/Q1J3iqNr1WIZfWTkRxOn+8etjyqnXbAtmtqVvHUaPClmf18IyhWv+8B0AAAAJVtY+SxmT0f3D7ufFVEq2sfJYzJ6P7h93PgKqAAACVbNPzdVf0gX396qoKqJVs0/N1V/SBff3qqgCqiVbLnzFWz/rv2x4VUSrZc+Yq2f9d+2PAKqAAADlL6yxizF/aPGZku1LS+U+F7S+XazGgdtcHu8JwXDLTv7vCI3t3XTfTr4yHViVXH5U+PPR/eXvG3ADvsdljnLYq9cqd8YO+x2WOctir1yp3xhVQASrvsdljnLYq9cqd8YO+x2WOctir1yp3xhVQASrvsdljnLYq9cqd8YO+x2WOctir1yp3xhVQASrvsdljnLYq9cqd8YO+x2WOctir1yp3xhVQASrvsdljnLYq9cqd8YO+x2WOctir1yp3xhVQASrvsdljnLYq9cqd8YO+x2WOctir1yp3xhVQASrvsdljnLYq9cqd8YO+x2WOctir1yp3xhVQASrvsdljnLYq9cqd8YO+x2WOctir1yp3xhVQAQe7c07Cl/P02VfWWcD3G9Rnu2Kc5Vq9R5ioTupHvsm6tRtq1Sk9U6H4JfUP8m5n2E6neMPIlSyxgeXddOa4CHXX67R3KhGb0UW43JNfCITotZaEoi8NX1mLyPPuCvUm1qFUbmr0xMSmUmI7OmSFJUommGkGta9EkZnolJnoRGZ/QQCPv552I5NCO15OZsHu0Y5HbZ05dxUhUU3+G4fheCNzc3+G/Cb2mu/4Xj5R+dezjsOXVHqkS58wYLq7FcZZj1RqfcFHkInNMqNTSHyW4ZOpQpSjSStSSZmZaaj17W2lLZrNRp8G7LNuewmK3Sn63Rp9zFBaiVKEwhLjziXI8l7gDQ0tDikSSZXuGZ7p7i93qGs24Zfo1VuNjLlluUmhyUwqpPRX4hx4MhR7qWX3Cc3WlmZkRJUZGZn4gEuqOTOx81inUKkVbIGzzNg2tu/IUWRVqI4zStN3TtVClmTGm6nTcJP4pfUQ7HvsdljnLYq9cqd8YeoWfcQR6ZMr9ayLa1HoseWiIxVZ1xU5MSZvRm5KVtOJfUREbTqVETm4s0+ESdxSVq++r5ow7b9Po1Wr2WLNpsG4mVSaPKmV6Ky1UWUpJRuR1rWRPJJKkmakGZaGR/SA5zvsdljnLYq9cqd8YO+x2WOctir1yp3xh6GZc72NhC3aXX7okFKXXagxTKVBjz4MZ6c+6fJwa5khhndIvCUpThERfWZkR+yzlnF7tXrFunkW2EVm3Ypzq3TFVmMcqlMEklKclNks1MoSSkmalaJ0Mj10MgHLd9jssc5bFXrlTvjB32OyxzlsVeuVO+MPbr+ase0jFVezLR69Fum2rfhS5r8i3pbE3hijkrhW2lk4TanCNJp0NZaGWhmQ5ePtK0mGp9i+sZXrZUk6HNuCms1hNNe+Vo0RrhZCIzkKZIbJ1CDSrg3VtqMlapIySs0h9vfY7LHOWxV65U74wd9jssc5bFXrlTvjCjUCsxbjoVNuGC26iPVIjMxlLpES0ocQS0koiMyI9FFroZlr9I+8BKu+x2WOctir1yp3xg77HZY5y2KvXKnfGFVABKu+x2WOctir1yp3xg77HZY5y2KvXKnfGFVABKu+x2WOctir1yp3xg77HZY5y2KvXKnfGFVABKu+x2WOctir1yp3xg77HZY5y2KvXKnfGFVABKu+x2WOctir1yp3xg77HZY5y2KvXKnfGFVABKu+x2WOctir1yp3xg77HZY5y2KvXKnfGFVABKu+x2WOctir1yp3xg77HZY5y2KvXKnfGFVABKu+x2WOctir1yp3xg77HZY5y2KvXKnfGFVABxVlZvwvkqqu0LHOXrKuqpMR1S3YdEr8Sc+2wlSUqdU2y4pRIJS0JNRlpqtJfSQ7USq4/Knx56P7y9424KqAAAAAAAAOUyx81l5fs/Ufszg6scplj5rLy/Z+o/ZnADE/wA1lm/s/TvszY6scpif5rLN/Z+nfZmx1YCVbNPzdVf0gX396qoKqJVs0/N1V/SBff3qqgqoAAAAAAAMq9lH8hPJv7l98QgDso/kJ5N/cvviEADVQAAAJVcflT489H95e8bcFVEquPyp8eej+8veNuAKqAAAAAAAAAAJUx5U830fxfeL4qolTHlTzfR/F94vgKqAAAAAAAAAAAAA5687Cta/qeVPuSmpeNrVUaS2ZtyIqz/y2nC8JB/q5D8RkZcg5ihYxtTD9HnXDallVO6a+lJrWtDkQ6pOUpXKltyQthhvxmZpJTSNC+vx0gAEYsjajte6KTV7puuzK9jq2KHMlUybcN4VKiRKe3Ojye1nIxrZnurJfCkpJKNJNq3eRZ6p1o7eQrBegOVRq+LfXCapaK45JTU2TaRTlko0TDXvaEwokL0d13D3T0PkMZeq+CcwxrSo1TpkG4YlStzKtyXWUO3pdIOpPwJrs1DD8b5RJyCayTJQs0P7qiQa9DS4RJP9qLgLIzFjWTSodjyYUiynJtzOMVitQ3n6q7InKkHQ1uU9MZhKFaJdcLgjjNuoipQb6W1qAaCx5mjH2Uq9d9t2ZXYs6dZFUTSqohqUw7o4bSHCWkm1qPg9VKb1UST32XU6eCY7kSrDlCuyiXtlGXcNpTqXCuK4Y1bpkp6RFcRIaXTYjK291p5a0uNuR1pXvJJJ6pNCllqZVUAAAAAAAAAABKs8fl2L/SBTvs8oVUSrPH5di/0gU77PKFVAAAAHm3LGTNtyqw1FqT8J9oy/Qpsy/wDMcbs5yVTdnvGExR6m/ZtFdM/0qgsn/wCY7isOJapE51XiRGdUf6iSY4HZmbU1s34paV40WRQkn+soDIClAAAAlW1j5LGZPR/cPu58VUSrax8ljMno/uH3c+AqoAAAJVs0/N1V/SBff3qqgqolWzT83VX9IF9/eqqAKqJVsufMVbP+u/bHhVRKtlz5irZ/137Y8An+EtnrAV82vcN03rg/H9wVqbkC+O2ajVLZhS5T+5c9SQjfdcbUtW6hCUlqfIlJEXIRCgd6dssc2nFXqbTvghs0/N1V/SBff3qqgqoCVd6dssc2nFXqbTvgjlKRifFmL9qeyuLPGlqWl8p4/u3t35Co0aB21wdRt7g+F4FCd/d4Re7va6b6tPGY0AJVku18p8adoZMxnQbUrfyJb9eoU2FXa/JpX5dJpbzbrTjMKVv7vyctKkqSn+kSZGehkAqoCVd0e1P5m8Ve0uo9RB3R7U/mbxV7S6j1EAqoCVd0e1P5m8Ve0uo9RB3R7U/mbxV7S6j1EAqoCVd0e1P5m8Ve0uo9RB3R7U/mbxV7S6j1EAqoCVd0e1P5m8Ve0uo9RB3R7U/mbxV7S6j1EAqoCVd0e1P5m8Ve0uo9RB3R7U/mbxV7S6j1EAqoCVd0e1P5m8Ve0uo9RDn7HyztJX/RZNdo2E8asx4tYq1EWmTkielZv0+oSILyiJNDUW4p2M4pB66mg0mZJMzSQXUBKu6Pan8zeKvaXUeog7o9qfzN4q9pdR6iAVUBCpuWdpKBf9Gxy9hPGp1KuUep1uO6nJE/gEsQXoTLqVq+Q94lmqoMmkiSZGSXNTToRK6Duj2p/M3ir2l1HqIBVR5V1xKrULYq8GhM0p6oyIL7URuqtKchOPKQZITIQnwlNGZkSiLl3TPQT/uj2p/M3ir2l1HqIO6Pan8zeKvaXUeogGfLmx/eNs2HeDtpYnuvGFow7EuUrgpFUuxmoUeS+7FUplukwWZklEVCHuFXvJbiFuK3eDPe3UfrFwxkfIUKhV5vEjdr0unU+xqMmlLmwjOc1Taq3LfmI4F5SO1m2TMmkuGl8/DI2kHoSr93R7U/mbxV7S6j1EHdHtT+ZvFXtLqPUQCftYVvSRnaPeVStZt2jRskzLkbkLksKJEVdtNwm3yRv72vbBKRu6bxfjaEnRQzrkilP4PsWtWHeFDoE+uXxjyfbNJt9VepaJtPfOqznmCahrd4eQ3IKSzuFEQ8vhY6UqQnkUnZXdHtT+ZvFXtLqPUQd0e1P5m8Ve0uo9RAP9ybZly3LbeOodFphyHqJdVCqc9BuobNmNHVq8vw1Fvbpf5KdVH9BGM617Z9zJV7eVj6LjFEV62HL5qCLm+UoXB3B8rsTExozCUOE8lbipbSnjkNtNpVGLRThbqhonuj2p/M3ir2l1HqIO6Pan8zeKvaXUeogHy5bx7cNb2VLjxfalEJ+tSLLco0CnIfbbJT/avBoaJa1E2XKRFqaiT+nTlE9vm08vZrjUyM7iWt2bDtG2q2htuuVGlOSKvU5dMchR2WChSpCENpJ11S3Hlt8ptkSTI1KRTO6Pan8zeKvaXUeog7o9qfzN4q9pdR6iAdvYNMnUWxbco1TY4GZApMOLIb3iVuOoZSlSdUmZHoZGWpGZD3hKu6Pan8zeKvaXUeog7o9qfzN4q9pdR6iAVUBKu6Pan8zeKvaXUeohz83LO0lAv+jY5ewnjU6lXKPU63HdTkifwCWIL0Jl1K1fIe8SzVUGTSRJMjJLmpp0IlBdQEq7o9qfzN4q9pdR6iDuj2p/M3ir2l1HqIBVQEKhZZ2kp9/wBZxyzhPGpVKh0emVuQ6rJE/gFMTnprLSUK+Q941kqnvGojSRESm9DVqZJ6Duj2p/M3ir2l1HqIBVQEq7o9qfzN4q9pdR6iDuj2p/M3ir2l1HqIBVQEq7o9qfzN4q9pdR6iDuj2p/M3ir2l1HqIBVQEq7o9qfzN4q9pdR6iDuj2p/M3ir2l1HqIBVQEq7o9qfzN4q9pdR6iDuj2p/M3ir2l1HqIBVQEq7o9qfzN4q9pdR6iDuj2p/M3ir2l1HqIBz+Wce2DkraSxvQsjWPb91U1ix7wltQ63TGZzDb6Z9vJS6lt5KkkskrWklEWui1F9JjoO9O2WObTir1Np3wR8lt23miv5ooeRsjWrZVv0237XrdEaaol0S6s/Jfny6W8lSkvU6KltCE05ZGZKUZm4nkLQzFgASrvTtljm04q9Tad8Ec/ibHtg412kskULHNj2/atNfsez5bsOiUxmCw4+qfcKVOqbZSlJrNKEJNRlrohJfQQuolVueVPkP0f2b7xuMBVQAAAcplj5rLy/Z+o/ZnB1Y5TLHzWXl+z9R+zOAGJ/mss39n6d9mbHVjlMT/NZZv7P077M2OrASrZp+bqr+kC+/vVVBVRKtmn5uqv6QL7+9VUFVAAAAAAABlXso/kJ5N/cvviEAdlH8hPJv7l98QgAaqAAAfhNmwqbCkVGoy2YsSK0t9999wkNtNpIzUtaj5EpIiMzM+QiIZwdVlS+prW1ZatOnaUFiREtaz3GkNu1u3XVoXLccUvRTUqWbEd+OkzSlJRYqXCI3Xd3q7sLj+vmXjBltw8f2lKZcuqW2v8HWqigycbo6TI/CZb8ByV9CjNtg9SN9KbWA8e0LsoN9WxTbvtiemZS6tHTJjOkRke6fjSpJ8qFpPVKkHopKkqSZEZGQ9gRSsl3v8Af712x23OL2/Kmk6+k1/grerDuiUVAtT0RGkr3UP6ciHjQ8ehOPKK1gAAAAAAACVMeVPN9H8X3i+KqJUx5U830fxfeL4CqgAAAAAAAAADxHL0tpq9GcerqWlwSKY5WG4fAueFDQ6lpTm/u7haLWkt01b3LrppqY9o9dD0IjP6NRjq96zkPIlxXZf0TCV0tTKHi+o0Co0aTHqEVL1SdnJV2tEktoYcnp4Jlbm/DVotJoSlZKWQDYwD/n1aVkX1Y8S78l2Ji2WRWfX6Bc1CpFt47mWsxV2TiyIVRRFpcp1x1LxtOHv7xoW4bTajSSVIWr8s84gvCn2VT7BTitq4K7DsB+XGrTtk1O5XZVwynnn5qYTjEhuNR5JPaO9tOka3OEbSne4IkGG4Mi5Ns7FVHiVy9Jk9iNPns0uIiBSpdRkSJbu9wbTbERpx1albqtNEH4hzU3aOxhS7cTdNWRedOhO1NijMNTbDrseZJmPEZttMRHIZSH9SSrwm21JIy0MyPkHC7U9NuKp40xvMgd2DL9NvKhVGfNt6iOVSqU9lCHOFkpilHkGs0GZa7zCy1PlSY4XK0mrXRja2HaJe+c7hXRMi0aozaxUMbOxaxTIqUO7zsaGmispkIRpqau1X9DXoo+VJANPWRkGg5BiSZtBgXLFbiOE04muWzUqK4pRlrqhE5hlTif6yCMiPk11HSib4RrrdYo1RbK9skXOtiSk1S73tBVAkIJSeRtlB06Cl1BbpmaiQsyNWhq8RCkAAAAAAAAAAAJVnj8uxf6QKd9nlCqiVZ4/LsX+kCnfZ5QqoAAAA5rJlRTR8cXXV1K3Sg0SdJM/qJDC1f+Q+PDNOVR8P2NSVJ3VQrapkYy+o0RW0/wDkPA2opT0XZyyUiKrdlTbYqFOjH9T8lhTDX/8AN1IpUSKzBiMwoyd1qO2lptP1JSWhF/sIB+wAAAJVtY+SxmT0f3D7ufFVEq2sfJYzJ6P7h93PgKqAAACVbNPzdVf0gX396qoKqJVs0/N1V/SBff3qqgCqiVbLnzFWz/rv2x4VUSrZc+Yq2f8AXftjwBs0/N1V/SBff3qqgqolWzT83VX9IF9/eqqCqgA5+9MhWDjalt1vIl8W/a1OeeKM3MrVTZgsLdMjMmyW8pKTUZJUe7rroR/UOgGfNo6Ta9u5Dsa+qjlOHjSu0iJUWKXcVxwGJNtPIeUx2xAlG48wpD7iW0ra4N9lZk05opaUqQYXilVal16mRK3Q6lFqNOnsokxJcR5LzMhpZEpDja0maVpMjIyURmRkfIP8q1XpNApsms12qRKbT4bZuyJct9LLLKC8alrUZJSX6TMYEj3tZUVdjRLxyBU8aWTVKRe1QU9bdxVCh0utzk1Jg49QirU/wjTb5uOyI7KXVJPhCbSbratF+xMrOVKjZuQL7vS9L0pd0W3ie25bMFmtTIDUOoyWpfbT64rLqWjfVuI130GaFJ1TumA3cRkZEZGRkfKRkP8ARiuiyb8gXPRr/peQLwqNZquU7pt1FMmXBLcpbkBqLUVR4hw1rNgiS7HbUlwkE4n8UlbpEkvu2V7yiVzKlsRaXlu6bomzseyaheFOqVflTmYNwlLiE+hTDqjRDfQa3EHGQSCaTu6NoJeqw1hTbstWs1aq0CkXNSp1ToS20VWFGmtuvwFOJ32yfbSZqaNSfCIlEWpcpcg+O3MjY9vFxhq0b8t2uLksvSGE02qMSTdaad4J1xJNqPeShzwFGXIlXgnofIMWXrVrgx/mTKFyWk3IVPyLdTmOEEwyatyoyaXTF0+QtRF4CWiOaZqPxb5cnKP7psigbOeLbazbT6VKOkY3v27bdmx4TRrWqkzJ8lhDe6RGZkUpqCfIXJyn9YDZlayfjW26RUrguLIds0ql0aYVPqU6bVo7EeFKPd0YecWsktueGjwFGSvCTycpD1qBcFAuujRLiteuU+sUme2T0SfAkokR5DZ+JbbiDNK0/pIzIZRg29BwhXsN3pmmVCp1HKPXqpXqvNfJNPpt21NTTxPvuuESWiNCpkZp1ZpIt5KC0NZEd6wvWsa3LTriuXFNPeTRKpXpEhdRQau0avKNDZPTIRms0qZUsjSbjZJQ44h1Zb28a1BRAAAASrZp+bqr+kC+/vVVBVRmrCWRb+oNsXDS6NgK77kgsZAvjgqnTqnRmmX9bnqSj3USZrTpbpmaT3kFypMy1LQzDSoCVccWSU/j7KOTj/0dUtg//GrkP+e+2ntfZ52aNpKnXtYMW6rWZuqkMS6vZV5SoFQhSVMmphMhlqHNkFGQtDSEmbamVqWys95WqiIP+hFx+VPjz0f3l7xtwVUZB2dc+3XtEZexxet3YbuHH8srBu9KWqmn8BPSdQtw+HimokuKbPTXwkEXhESVL5TGvgGdNo/ItzWzlvHlmwshXza1DrlKrkyeuzbVbrtQefjKhkwXAnT5q0tkTzu8pLRFqadVFyD9cP5/uKoUG26JdbLVcqky3bgrT1UJ1uM+pNNmtsNtSYzaN1iUtt5BvNlucC6laDbSeqU0DI+GUX/d1u33TsjXVZ9dtqJOgxJdDRTnOEYlmybqHETokhB8sdvQySky5eXlHKzdkyzZFPpceDfd7UyfDZq0ao1WJNjdtVpqpupdnolb8dTSeFcQlW8w2ypsy0aNsuQB5ND2rJ9w3ZZltw7Lt+Gd1Uej1btaq3e3BqUhE5s3HPkyK4wSaiiMkjN1ROtKLdUSUKVok+U772+qbR61IoeKzudm2KNU7nq8yp3M1DdRCjVWbEUyylmBuOO7sTebSomyNJGS3N5O+5U2NmyhMNW7SCyHerttW/HpLXc4/LiPU+a5Tdw4rzm/HN5pZKaaWpMd1ltamyNSD1VvfjD2WcfQaPdFFarFwmxdtCmW9NUqQxvtxpMuXKcU2fA6E4Tk50iNRKLdSgjIzIzUHF1rbgs2k5bTjoo1udpM16m23L7autiNXe25rTa23o9JU2an4qFSGELdJ5KiM3DS2pLep/dStrGp1KFfdVbsCjyGrNhzZK6bT7rbkVqKtiQbKG6rTzYS5T+EJKnSUk5CSbbWZmRkkldu1s/0mFePdRRMhXvRoMidFqlSoFOqDLFPqU1hlLKHnlEz2yW8htkltNvoZc4It9tWq97529naCqdOqVQyvkOoS1QZVOosmRUo5SbfZkPNvOFEkNx0vOnvMsFrLXI1S0ST1SpZLD2MS5TmZHsaZecmnW6+3GffbYetG5Wrip9QQ2kjNUaShtlSlbxqbNC2kKJaFFyp3VHJYW2pGbxbXMnXBb1nx40B+mQoqKffTEtqNNnPcEmJVnFMNqpbrJqQp8lNupQk1bqnFJNB2mxcXQLJpdcivXLXK9UrllKmVetVBxhibLdNlDCVaw2mGmjQ002hJtNoMtwlHqozUfHFsxW9Mp1TZufIl63HV5jNPYhV+oyISajS0wXjfhmw4xGbQtTbyjc330PKWZmThrSZpMOKtjbFqN+MUCmWBY9rXDX6rd0y05RwL0KRRWFR4SpvbTNQZiOKfaUwSdCNhtROKNCiLdMx/Vz7Wb8iwZU+j2pOh1eJQK5VK0iNUWkvUV2nTShcGlb8VxDinHydJCltabrSlbp+IU6h4Op1Nn29W63f95XPV7dq8ytNT61OZcW+/IjLjKQptpltlllLbh7rUdtpJKLeMjM1GrzJWzBjmUrJyyl1tlWVibKr7kpBlEJKDIyiJUgyaJa1LdURkreccUr6dCDzV7RlWZj3Te5Y8RJxtaK6tGqFej1pCqgh+nNrOQrtBTSUmybrTjKVpfU4aySZtJQZrT+OzxtS0jO1erFrJYtRFSplMhVlKrau5i4IpxpJrSTTzrbbRsym1tmTjW4pJbyDS4sj5PbVs22o7Vayci7ructivPTpU60CqDbVIdkzGjbkuq4NpMlZLJbiuCW+plK1mtLaVEk0+/jXFb2O3ZT8vJt7Xc4/GjwmO6CeytuHGZJRIQ0zHZZa3j3j3nloU8vRO+4okkRB3YlVx+VPjz0f3l7xtwVUQrLN8UWwNpLG9ZrsK4JUd6x7wjJRRLeqFZfJZz7eURqZgsvOpRog9VmkkEZpIzI1JIwuoCVd8tjr83Mq+ye6urhgvI3ZLMmbNG0hcdp1uDUr9xzVJZVWmxq7Qplv1ulsSPDOO2mVHaWptpanEo4Rte+hKCJxPKRBvS3PKnyH6P7N943GPDypUb/rWfbIxhbOUq/ZlJqltVqrzXKLCpjz778Z+EhojVOiSCSkifc1JKSM9S5eQc9s15ntfP2XruyjZ1OrcGl1bHtnG0zWKeuJISZVG49eQ9UrTy8i21LQfLoozIyKlZEwsm+70oWQaVkq7LOrtAgTKYxJoaKa4TseStlbqXEToklJ+FHb0NJJMuX6wElVtM3bjm1qlS7wn2NVqpbl11C13rium7YlrQJjbEduQytauCdNUxxt5CFNMMcHvtuq1ZTupHz2ztSZBr1ard9M2zRCsgsaUK7oEKbckeEcaRLdkEtb8l1hLTbJbiiccN5RIbYStDa1uG2nv+9UtCKVDmUK+Lyo1bpDlTcl1yLKiOTqwqoqbVOOUp+O4glOqZbPeZQ0pskklo20kSS+B7Y5sBVDi29FvO8YkSHbtKt1rg5ENa92mS+2oMs1ORlGchp0z8f4JZGZLbXyGQdHs+Z2i50pVxymmLb4a2qx8kvSbauNNdpcvWOy+lyPMJlk1lo8SVEbaTSpCi5fGJrh/arpF35cuuk1HKNq1eiTI1Tn0alU+bFcmURmlSDYfKQhszd/xhs0yUm5ykRLSRERCs2lhCn2lR7zgN33dlTn324ciq1idIjHMTIOIiLwzPBMIaaPcaQZJJvcSovBSReCP9m4FsiVa1iWhFdqUCBjx6O5STiuoStbbcVyKpl41IMltuMuuJWRElR72qTSZEYDjYu0ZeybHi33V8RRIkC6fktNmG1cyXflF6ovE3GYm6x0qhOElbbjnBpkoSg17q3FJJCvCylte1bEHyXb99WTZ1Au2XCqNUfhVu/49PprsSK4lCe0prkfWS+8a0m2y4ywfgr4Q29C3ush7LVvR7ZXacnJ2QZsCE3Cat5D9TjkVuJhvE9FOIhEdLbq21pbInJaZDikoJC1KSakq/eobNrE1qLOj5oyXBuZtmbElXOxUYaqjNiylpW7HUlyKqMy2SkIU2Udlk2jTq2aDUs1B4Vp7VzN85Do9q2zbNF+TKvChVBhNRuhqHX5MWTCKUUuJS1NGUqKjeJtbqJG8S0PESFcH4XvYEz3PzXJq3CW9blPj09ttZt026m6lPgOKWtJxKpD4FpyBLSSCM2vwqSMlp4TVHL6T+BKXLuSn1afkO+J1HpsqNUGLdnVNuXCKbHZJpqST7zSpqVluks0pkkg3NVmg1KUavux/huJYtfeuedfl13dUvk9NIhSLheiuuwYJOcJwCHGWGlukat0zckKddVuFqsz11DkESMpZbvC+k2tleoWRT7JqpUKmw6fSoEpM+WmKxIcenHLZdWpo1PpQluOqOrdSszcNS0m3Lba2t8sTH6pei7AiVa26RYlGueuxflJEIqYZvzW564h8C6uU4oo++hlxbaNxn+kSpWirtdWC4deuKqXHbuR7zsxy4kNor8e35MRDNW3EE2la+2I7y2HSaLg+FiqZcNJJ1UZobNPO17ZGxzWJzyqdX7noNHm0GnWtUaFTJMdMGfSIanVNxHeFZW6lKuGUS1tuIdMuQllqreDiLv2y6bYVbqtAcXQlVCTcU+HTXLxuyNQaWiJFgQn16SyiGaFKVLbS2ypDq1KUs1OpQkiT1dq7T1Wyk3RZOG8as3G0/QKZcdaamXA1BkQ401xxDbUYibdakvp4CQpSVusN6ITo4Zq0T+dv7NdYmyKvdleuqXZN2Tbin1SBMs2a1IVBgyI0aMqIa50M2nkrTEZcVvRyNCyTuK1Rvq6Wbs50Z2o0+qUjJeQ6K+zSodFqzsOtpXIrsSK4pxlMuU+25ISslOPavR3WXTJ1RGvQk7oNmu9cjX3Z1eqmSmKYibDu2uUyIqDM4dPasec60hCv8XYItzcNsj0Ua0oStRkpRpL9bc8qfIfo/s33jcY6jHWOKfjWJWafSa5VZ0SsVqbXEsT1MKKG7KdU880yptpCjb4Ra1FwhuLLeMt7QiIuXtzyp8h+j+zfeNxgKqAAADlMsfNZeX7P1H7M4OrHKZY+ay8v2fqP2ZwAxP81lm/s/TvszY6scpif5rLN/Z+nfZmx1YCVbNPzdVf0gX396qoKqJVs0/N1V/SBff3qqgqoAAAAAAAMq9lH8hPJv7l98QgDso/kJ5N/cvviEADVQ5PJrV+zLYVR8cLYi1aqvtwV1R5SdKTGXqT0xLZ/wBK42gj4NvxG4aN7wSUOsE3vPaDxlYV0ybLrr9zSKxBgNVSXHo1oVerpjRXVOJbddchRXUNkZtOfjKI/AMB1ViWTb+ObRpdk2vHcZptJZ4FrhXVOuuKMzUt11xXhOOrWpS1rVqalrUo9TMx7w+ChV2i3RRYNx25VYtTpdTjolQ5kV0nWZDKyJSFoWnkUkyMjIyH3gPkq1KptepU2h1qCzNp9RjuRJcZ9BLbfZcSaVtrSfIaVJMyMvpIxxeIbZvCw6ZNx/XpK6nQ6C42zbVXkSjdlyaepOqGJO8ZqN6OZcFwpmfCoJtZ+Gax7duZCtW7ijuW5LmTmZL8+Kl9FNkkyl6G+bEhC3TbJDZk6lSUksy391Ro3iIzL7K1d1vW9VaHRKxUO15tyS1wKY1wS19sPoYcfUjVKTJGjbTitVGReDprqZEYewAAAAAAAlTHlTzfR/F94viqiVMeVPN9H8X3i+AqoAAAAAAAAAA+GuV2iWxSJlw3JWINJpdPZVIlzp0hDEeO0ktVLccWZJQki8ZmZEQ+4T/O1tTbsxpUKTTbaqFclJkQ5bEWm1CPCmocYktuofjOSUnHU80pBOIbf0aWpBIWZJUYD7ZeasNwLNi5FnZasyPak53teLXXa9FRTn3dVFuIkm5walaoWWhKM9Uq+ox+tZy/ia3azFt24MoWjTKrOZRJiwZlbjMyH2V67jiG1rJSkq3VaKIjI9D08QzLcWIc9T2rPv5ynXic6ky7iakwaMm1GLidZnpZJqTNKQhVHdeMmFtuqZ3VcG63umoycSr28c7LlYiUC6rLuShvUyn1vFtEs+NJXVGJjzD7JzzcZ4VlpglGyb7GiyYbSrQt0j0MBoq4skY7tCLU512X7blEjUXgPlN6o1RiMiFw56M8MpxRE3wh8iN7Te+jUfhIyvi2G9QI0vJVqsPXYlC6A25WY6VVZK9Nw4pGvV8lbydDb3td4tPGMuvYNzzPsa0ckV+n1uDkNm83bnuKm2zUKS9UG0fJ7lNjlEcqSVwHDbaJpZpdMvBcd3VksiI+ywDgy67EvCx69WLXnwYtLtS4Izx1GqQJcmFLn1ViWTCzhssM7xoSszJho2m9DQlayJKlBpoAAAAAAAAAAAABKs8fl2L/AEgU77PKFVEqzx+XYv8ASBTvs8oVUAAAASnaN/x+1LatFPKu5r1t6Caf89lmoNTJCf7Y8R8v1GYqwlF9f+kO0BjG2E+G1b8StXhI+pt1DKKdHI/0qTUpRp/0SvqIVcAAAABKtrHyWMyej+4fdz4qolW1j5LGZPR/cPu58BVQAAASrZp+bqr+kC+/vVVBVRKtmn5uqv6QL7+9VUAVUSrZc+Yq2f8AXftjwqolWy58xVs/679seANmn5uqv6QL7+9VUFVEq2afm6q/pAvv71VQVUAAAAePItG3pV2Qr4fp+9W6dAkUyNK4VZcHGfW0t1G4Stw95TDR6mRmW7yGRGevsAAD+XG0utraUaiStJpM0qNJ6H9Rlykf6S5Rxdj4dsTH1XmXDQWK3Kq06OiG7UK5cVRrUpMdKjWTLb0995bTe8ZqNCDSk1aGZGZEZdsAAAAAAAAAAAAJVs0/N1V/SBff3qqgqolWzT83VX9IF9/eqqAKqJgezVhiRl2o50rNlxq1ek/tcmqhVVKllT0MMpbbTEacM24/4pqNSEko1OLPe5dCp4AJVcflT489H95e8bcFVEquPyp8eej+8veNuCqgAAAAAAAzznXJ1wY4yqzOp1xw4MZqw6hIaYqi5blPVNVUoDLLiosVK3ZLxcMpLbTaeEcUsm0qRv7xctaO0tly8pSceUpVvN3TLvNy3o1dqll1elREQ2qSiorddpEuQiUl3QzaSlUhJK14Qj3S3VXq/MNY3ya+qVetvKnvnAOmpeROkR3G2DkMyC4NTLiDbcS9HZcS6kycSpBbqi5RP702Vbal2s5QcauwaBOl1tmvTKrWXa1VJjktuPwBSESmKpFltSDbJKFPFIM1o30rJW+ZgJdN2t8xPUS3KVTbfpLV1TafXqlPcgWbXLihuKgVJyEzEbYp5m+xwqk6nKdM0I3f6NRrJKazhPKuUsqXzciq3SKVbltUOJSSKjyaXJKsImTKcxLcbeeW8lLfAqdUg0HHJStS5UGk97+qFsl4riY1tzHdxsVCpnb8aZHKowKlLo77yZjinJbJqhPNr7WcWrljKWtvRKCUSjSShSrUx/ZtjP1F+0aCxSzqqoxyW45qJo+AjojskhvXcbSlpptBJQSS0T4tdTAdCAAAAAAAlVx+VPjz0f3l7xtwVUSq4/Knx56P7y9424Aqoz5R9h7BxZguLPF/Ul6/byr1SXOak3CSH49NaIyJiPHjkkm91ltDSErcJay4MjJSddBoMAEptsiTtTZCSkiIix/ZpERf/MbjFWEqtzyp8h+j+zfeNxiqgAAAAAAAzdkjK1z2DlPIq4Fzw4qGKHabFNYqzE+oRWJMubPacWxT4RKflSFJSnRlrcU6baSNaCLeLwLX2tr2jUKRcF8U6kv06JMuOhpkNUGoUWRNqsJpqRBbKFNcU9GN9lT6TacNSt9ojJWiiSLteWEMZ39LqVQuegSHptVTT0yJcapy4chBwXXHYi2XWHULYW2t5wyW0aFHvGRmZcg5aobMdjmzQKBQGo9PtqnXS3eVUgyUP1CVUqoylPAvdtSH1G0ZuIS46rdWt0yMzUk1uKWE1rO07mKnZIkWfBssqn3LzqHSa7Aptk1yedQflssOzJEepRt+LARHTJSompBOLWTS9VN7yVCsYAvfI2RqPXrqvd63m4CbgqtKpEKmU95l5piFOkRuEfeckOE6pZNJPRLbZJPe/G1LT1bmwLiq8bvavm4baek1RDsR91KKnLZhzHYqt6M5KhtupjSltK0NCnm1qRup3TLdLTqLVtG3rJpS6JbFP7ShLlyp6muFW5q/JfW+8vVajPwnHFq010LXQiIiIgHsAAAAAAAJVbnlT5D9H9m+8bjFVEqtzyp8h+j+zfeNxgKqAAADlMsfNZeX7P1H7M4OrHKZY+ay8v2fqP2ZwAxP81lm/s/TvszY6scpif5rLN/Z+nfZmx1YCVbNPzdVf0gX396qoKqJVs0/N1V/SBff3qqgqoAAAAAAAMq9lH8hPJv7l98QgDso/kJ5N/cvviEADVQznWLvbxjtRXrdNxWffUyl1ezKHGgSqHZtVrDT8hiRPU4zwkOO6hCyJ1vkWpP45fQNGAA/50XzhLKEa2LZgXxabyae9alUVTabGsOZdjtDrMupPytyKUGYwmmzUNPRkNy1r4FJsrSTqCTqvv7jwTUqjXbtv6t2FVKvedPu6xDpVadpajmJZZbpqJ78ZaDXuJMuHJ82nFoMmzStSiRqNsAAwFT8Q/Jtv9zlLxVdlBgxFZFjVcqBabjLmkioxlRVttmhpExtcVLZJS2o+FaaW02ZqTul0VqY3pCqli2uS8E05ik0PJUl2NKpOPKjSWEtPUpaUTE0aSTz9KaKYlhKlGaW1OMJkGad8lDbYAAAAAAAACVMeVPN9H8X3i+KqJUx5U830fxfeL4CqgAAAAAAAAAAAndCzlZ9ey1dmHG4tUiVm0IbE2VJlNNohyW3G23FcAslmpRtpeZ395KdOETpr4wFEASbFO0pYmX6fDq1vwKnTok1+qMoXV3IcVZJgqbJx3gu2DdU2onUKStCFElP9JweqSV9Ft7TGFbqk3W7SL+ojlCs6NCl1G5PlWIdGNuSbhI3JaXTR4KmlJXvbpEoyItfoCogJPZO0xja/wCsxKVby5rjM6RW2GKiZxzhLTS1spfeJ1DqiNpfDoU2oiPeSRme7ya9xaOQLGyHRXLix3eFDuymtOLYOVRKkxNZN1JEZt8I2s0EvQ08hmWmpa6AOgARKlbTUqo3TX7Sl4ByJSZNqxGp9akVCbbrcaAw60440tbiaqojJRMr5U6knxr3S5RQk5Vxy3WKFbNRvm3qfcFyRETaXRZNXilOltKSat5lpLhm8RElXhN7yT3TMjMi1AdWA5+2cg2FesupwLNvegV6VRXij1NmmVJmU5CdMzLceS2ozbVqlRaK0PwT+ox0AAAAAAAAJVnj8uxf6QKd9nlCqiVZ4/LsX+kCnfZ5QqoAADxryuiDZNpVm8Km265FosB+e620k1OOE2g1biElyqWrTdSRcpmZEXKYCf40PuozNlC/TLej012nWVT1n+KpEJlUqStH65NQcaV9JnF08REKyOBwTaNVsrFNBpVxJIq/Lbdq9cMvpqk11cqZy+My4d5wi1+giHfAAAAAJVtY+SxmT0f3D7ufFVEq2sfJYzJ6P7h93PgKqAAACVbNPzdVf0gX396qoKqJVs0/N1V/SBff3qqgCqiVbLnzFWz/AK79seFVEq2XPmKtn/XftjwBs0/N1V/SBff3qqgqomlW2ZNm2v1WbXa7s+Y1qNSqMhyXMmS7TgPPyX3FGpx1xxTRqWtSjNRqMzMzMzMfL3p2yxzacVeptO+CAqoCVd6dssc2nFXqbTvgh3p2yxzacVeptO+CAqoCVd6dssc2nFXqbTvgh3p2yxzacVeptO+CAqoCVd6dssc2nFXqbTvgjic37J+zanC9/qoWz1jWBUiteqnDlxLTgNPx3+1HODcbWlolIWlWhkojIyMiMgGiwEUtPZj2WK7atGrfe14qV8oU+PK17jady8I2lWv9D+ket3p2yxzacVeptO+CAqoCVd6dssc2nFXqbTvgh3p2yxzacVeptO+CAqoCVd6dssc2nFXqbTvgh3p2yxzacVeptO+CAqolWzT83VX9IF9/eqqB3p2yxzacVeptO+CO/ta07VsahRbWsq2aVb9Fhb/a1OpcJuJFY31qWvcabJKE7y1qUehcqlGZ8pmA9YAABKrj8qfHno/vL3jbgqolWS7Xynxp2hkzGdBtSt/Ilv16hTYVdr8mlfl0mlvNutOMwpW/u/Jy0qSpKf6RJkZ6GQd0e1P5m8Ve0uo9RAKqAlXdHtT+ZvFXtLqPUQd0e1P5m8Ve0uo9RAKqAlXdHtT+ZvFXtLqPUQd0e1P5m8Ve0uo9RAKqAlXdHtT+ZvFXtLqPUQd0e1P5m8Ve0uo9RAKqAlXdHtT+ZvFXtLqPUQd0e1P5m8Ve0uo9RAKqAlXdHtT+ZvFXtLqPUQd0e1P5m8Ve0uo9RAKqAlXdHtT+ZvFXtLqPUQd0e1P5m8Ve0uo9RAKqJVcflT489H95e8bcDuj2p/M3ir2l1HqIfJbdt5or+aKHkbI1q2Vb9Nt+163RGmqJdEurPyX58ulvJUpL1OipbQhNOWRmSlGZuJ5C0MwFgAAASq3PKnyH6P7N943GKqI/clt5ooGaK5kbHNq2VcFNuC16JRHWq3dEukvxn4EuqPKUlLNOlJcQtNRQRGakmRtq5D1Ix9fdHtT+ZvFXtLqPUQCqgJV3R7U/mbxV7S6j1EHdHtT+ZvFXtLqPUQCqgJV3R7U/mbxV7S6j1EHdHtT+ZvFXtLqPUQCqgJV3R7U/mbxV7S6j1EHdHtT+ZvFXtLqPUQCqgJV3R7U/mbxV7S6j1EHdHtT+ZvFXtLqPUQCqgJV3R7U/mbxV7S6j1EHdHtT+ZvFXtLqPUQCqgJV3R7U/mbxV7S6j1EHdHtT+ZvFXtLqPUQCqiVW55U+Q/R/ZvvG4w7o9qfzN4q9pdR6iDGlr5T407vyZkyg2pRPlu36DQoUKhV+TVfyGTVHnHXXHoUXc3vlFCUpSlX9GozMtSIBVQAAAcplj5rLy/Z+o/ZnB1Y5TLHzWXl+z9R+zOAGJ/mss39n6d9mbHVjlMT/NZZv7P077M2OrASrZp+bqr+kC+/vVVBVRKtmn5uqv6QL7+9VUFVAAAAAAABlXso/kJ5N/cvviEAdlH8hPJv7l98QgAaqAAAAAAAAAAAAAAAAASpjyp5vo/i+8XxVRKmPKnm+j+L7xfAVUAAAAAAAAAAZEzBgbMlavq8bwx9RGWp9w3AxSUTlz2WjK35tIjw6hISW9qamXWW3Utq0Uo2PBI9S112ADFt07LuTK3DuC26Pb0eDAmJvpiEt2XH4E2ZyoXaKFpSpSiQ8mO4g9EGaC13iLkI/vqeLsr3PdtWysWCJFFbi1ez6uza71SpKplWKmdtNvpNTT6oyHWyeaca33SSomWiNbZ6pb2GADDlc2acyXxb1bhM2O1aLlwKvmSmMqpQ1FF+U3oTsVpxTJrRvOky8lZpS4hKt7e30mRrtWzTYF5W9X70vW9KPelPl3CVMjF3VVCguzJCYrK0k5wFEjojNJTwvBpUp1xxaWy1S2SUkd5ABBq9jG+Jt258qcaib8a9bRgUuhL7ZZLtuS3DmNrRoa9W9Futlqskke9qR6EZlHp+zflw7vVCl0y8J1IuKVaNSdOmVa349MgOUxiMhaZjkuM/PStlyMpxsoe825wm7q0ZrWNtAAmeztY9Xx7jQrer1JTTp665XKg4yTqHNUyanJfbWakKUWqm3EK011LXQyIyMipgAAAAAAAACVZ4/LsX+kCnfZ5QqolWePy7F/pAp32eUKqACRZvSu9LmsXCzCiNi4KkderpaGZlR6Wtp5aeQyMidlrgMnylqhxzx6GR10SbHRd1Wbcl3054bFDVAsmmqPxEmOyUyWtH/WenJaV+mGX1coVkAAAAAABKtrHyWMyej+4fdz4qolW1j5LGZPR/cPu58BVQAAASrZp+bqr+kC+/vVVBVRKtmn5uqv6QL7+9VUAVUSrZc+Yq2f9d+2PCqiH2binaHx9bse0bWzNjo6TBcfOIVQx3OfkJQ48tzdccRWm0rMt8y1JCSPTxEAuACVdzm1P55MVezSo9eh3ObU/nkxV7NKj16AqoCVdzm1P55MVezSo9eh3ObU/nkxV7NKj16AqoCVdzm1P55MVezSo9eh3ObU/nkxV7NKj16Aqo8+4aYVboFToyiIynw3opkfi8NBp/8AMTruc2p/PJir2aVHr0O5zan88mKvZpUevQHobN9TVWtnjF9YUZmqbZlFkK18e8uE0Zkf6dTFFGW9nKk7RTWErNp9Ky/jCBEix3KPDjTbAnPvkcRbrPB8ImtNk4oiYWfIhPIk+TkMxT+5zan88mKvZpUevQFVASruc2p/PJir2aVHr0O5zan88mKvZpUevQFVASruc2p/PJir2aVHr0O5zan88mKvZpUevQFVASruc2p/PJir2aVHr0O5zan88mKvZpUevQFVASruc2p/PJir2aVHr0O5zan88mKvZpUevQFVASruc2p/PJir2aVHr0O5zan88mKvZpUevQFVASruc2p/PJir2aVHr0O5zan88mKvZpUevQFVASruc2p/PJir2aVHr0O5zan88mKvZpUevQFVASruc2p/PJir2aVHr0O5zan88mKvZpUevQFVASruc2p/PJir2aVHr0O5zan88mKvZpUevQFVASruc2p/PJir2aVHr0O5zan88mKvZpUevQFVASruc2p/PJir2aVHr0O5zan88mKvZpUevQFVASruc2p/PJir2aVHr0O5zan88mKvZpUevQFVASruc2p/PJir2aVHr0fjKpG03BaS/OzdiSO2pxtklu43qCEm44skIQRnXvxlLUlJF4zNREXKYCtgM+2/VdqivZDu6y28p4sbZtZmm70vi7qCieekodcUjc+WyNO4gmj13lb3CeJOmqut7nNqfzyYq9mlR69AVUBKu5zan88mKvZpUevQ7nNqfzyYq9mlR69AVUBKu5zan88mKvZpUevQ7nNqfzyYq9mlR69AVUBKu5zan88mKvZpUevQ7nNqfzyYq9mlR69AVUBKu5zan88mKvZpUevQ7nNqfzyYq9mlR69AVUBKu5zan88mKvZpUevQ7nNqfzyYq9mlR69AVUBKu5zan88mKvZpUevQ7nNqfzyYq9mlR69AVUBKu5zan88mKvZpUevQ7nNqfzyYq9mlR69AVUBKu5zan88mKvZpUevQ7nNqfzyYq9mlR69AVUcplj5rLy/Z+o/ZnByvc5tT+eTFXs0qPXo8+4bB2nLloFTtydmjF7caqw3oTy2ca1AlpQ6g0KNJnXTIj0UempGWv0GA7rE/zWWb+z9O+zNjqx5Vp0LuXtWjWz212z8kU+PB4fc3OF4JtKN/d1Pd13ddNT018Zj1QEq2afm6q/pAvv71VQVUSrZp+bqr+kC+/vVVBVQAAAAAAAZV7KP5CeTf3L74hAHZR/ITyb+5ffEIAGqgAAAAAAAAAAAAAAAAEqY8qeb6P4vvF8VUSpjyp5vo/i+8XwFVAAAAAAAAAAABHVZByJlyU5Fwj8m0m1WnFsvXvVGFSUy1oVotNMhkpJPpI95PbTi0tbxeAh9OpkFiASdOzla9ULh8gXtf15y1crjlSueVFjqP6dIUFTEQv/8ADyeLUf0ey7hBHLEtKZBc+h6BXahEdL9JOMvpUR/p1AVYBJlYVu63fw2Ms63jSlJ/Eg3G8VyQFf6Tts+3T/8Aolo+nXXkMvxXmW6sbnwWf7Sj0amJ5O7CiOrlUNJf50slkT1PLlLwnCWyX0v/AEAK+A8+XcFBp9IKvz63AjUs20vFNekoRHNtRapVwhnu7pkZGR66GJ7I2p9mmM8uO5n7HynGz3XCbuOI5wZ/Uo0rMkn+vQBUgHKWfljFuQlbthZKta5FaGZppFYjzDIi8fI0tQ6sAAAAAAAEqzx+XYv9IFO+zyhVRKs8fl2L/SBTvs8oVUAEp2YC7bw7TroXyu3bUarc61/SpM+oPyW/7CadbSX9VKSFSfNwmHDZLVwkHu/r05BMdlUmy2YMQ8Eeqe4SgHr9J/8AJ7Opn+n6wFSAAAAAAASrax8ljMno/uH3c+KqJVtY+SxmT0f3D7ufAVUAAAEq2afm6q/pAvv71VQVUSrZp+bqr+kC+/vVVAFVATTaHrlzUDGzT1oXJLt+pVG6LXohVKIxHefjMT67BhyFNpktusmvgZDpEa21ERmR6cg+XibyLzscq9G2r1MAqoCVcTeRedjlXo21epg4m8i87HKvRtq9TAKqAlXE3kXnY5V6NtXqYOJvIvOxyr0bavUwCqgJVxN5F52OVejbV6mDibyLzscq9G2r1MAqoz1tu4cvzKmHnqxiC5a3Q8iWW4ut24/SZzsd2S4lBk7EPcURK4VvVKSP/LJJGZJNWvYcTeRedjlXo21epg4m8i87HKvRtq9TAP8An12KS28k5wyjWM55Yr1Sq1Nx2iTT7fYlqPtdiqz1uOS3GWy8BCkocd39EkeslHLyaF/1aEIsrZYqGOYtTg2RtH5Lo8es1WVW5zcem2uSX50hRKeePWjnoajIuQtCIiIiIiIiHRcTeRedjlXo21epgFVASribyLzscq9G2r1MHE3kXnY5V6NtXqYBVQEq4m8i87HKvRtq9TBxN5F52OVejbV6mAVUBKuJvIvOxyr0bavUwcTeRedjlXo21epgFVASribyLzscq9G2r1MHE3kXnY5V6NtXqYBVQE/2erprt84Cxpet0zu3a1cFn0aqVGTwSG+HlPwmnHXNxBJQneWtR6JIklroREXIKAAAAAAAAAAAAAAAACVZ0qF3/K2MLStK+6raXdbeD1LqNRpcaE9K7VbodVmk2gpsd9pOr0NjU+DNW6RkRlqHE3kXnY5V6NtXqYBVQEq4m8i87HKvRtq9TBxN5F52OVejbV6mAVUBKuJvIvOxyr0bavUwcTeRedjlXo21epgFVE22j8TRs5YMvTFjyGzfrtKdbgLWeiWpzejsVwz+gkvoaUfi5CPlIfHxN5F52OVejbV6mDibyLzscq9G2r1MA/5gdj2oW07tJ5Tl0688qXrBsG0J0afdCmai/EfqkyO22xGguSGzS8s92OjeI1eAhpR+CtSTP/soIVZuy3UsexqnDsraPyVSGazVZVbnojUy1iKROkK3nnla0f8AGUZF+giIiIiIiIdBxN5F52OVejbV6mAVUBKuJvIvOxyr0bavUwcTeRedjlXo21epgFVASribyLzscq9G2r1MHE3kXnY5V6NtXqYBVQEq4m8i87HKvRtq9TDn6tSck41yTixl7Pt63VTbquiXRKlTa3T6ElhxhNCqkxKkqh06O8laXoTJkZOaabxGR6gLqAAAAAAAAAAAAAAAAAAAAAAAlWzT83VX9IF9/eqqCqiVbNPzdVf0gX396qoKqAAAAAAADKvZR/ITyb+5ffEIA7KP5CeTf3L74hAA1UAAA4jLOQp1gUOCi3qEVcue4qg3RrfpSn+BRKmLQtw1OuaGaGWmWnn3VERmTbK90lK3UnziMZZwmM/KlS2lKrCq6i3zhUu26WVFbWfLuE0+w5MUgvF+Vkoy+kjH5Z3nx7LuLHmW6zvJt21KxJYrkjdNSafFmxHI6Zq9PE228bJOLPQkNOuLMySgxW2H2ZLLcmM8h1p1JLbcQolJWky1IyMuQyMvpAT/ABZkC5q9Uq9YORqTBp15WsphyV2gau0qlBkb/a0+MSzNaG3DaebU2szU24w6neWRJWqiCO2FVoOQs93dflsvJk2/b1Fi2iVQb5WZtSRJeflIaV4nEMEtls1pMy4VbyORTahYgAAAAAAABKmPKnm+j+L7xfFVEqY8qeb6P4vvF8BVQAAAAHyVaq02g0qbXKxMaiQKdHclypDp6IZZbSalrUf0ESSMz/UA/d99iKw5KlPNsssoNxxxxRJShJFqajM+QiIuUzEuc2lMcTnnI1iR7jvxxpZtqctSiSKhDJRHoae3UpKIR66lob2vIfJyDxrdsidn1qNkHMUN07XlKTNtuyXtUxm4p6GzJqbeukmStOi+Ac1aZ3iTuKcSbgtTDDEVhuLFZbZZZQTbbbaSSlCSLQkkRchERcmgCH3jWMlZphQ8bxsO3vZtv1uY23cdcq02lNEmkpSpb8dlEac9I4SQaUR9eCIktvOK3kqSnW2woUOmw2KdTojMWJFaSwwww2SG2m0kRJQlJciUkREREXIREP3AAAAAB/LjbbzamXm0rbWk0qSotSUR+MjL6SH9AAmVM2Z8CUqp/K7GLKFIfbdU7FROZOYxANR6qKGy+a24iTMzPdYShOpnycpikx48eIwiNFYbZZbLdQ22kkpSX1ERchD9AAcleOJMXZCTpfGPLdriyMlIenU5p15tReJSHDTvoUX0KSZGX0GOKkY7yZivWqYcuedclIa0N6zbnqS5JG2XKZQKi6an2HNORKH1usHoSSJktVlYgAc7Yd90DItvN3Fb630IJ1yLLiSmjZlQJTZ7rsaQ0fK26hWpKSf6DIzSZKPohI3o6bI2lYLtOSTUDJdAlqqTSfEdVpio5MP6f5zkWQ82tX0lFYLl05K4AAAAJVnj8uxf6QKd9nlCqiVZ4/LsX+kCnfZ5QqoAJRsxq+T8VM2O74MmxapUbUdb+lDcOU43GP8AUuL2s4X9VxIq4jVfklhrMir1mKQzZmSVRKfWZClaIptfbSliHIXyciJTJNxlLM9EuR4if+kMyCygAAAAAAJVtY+SxmT0f3D7ufFVEq2sfJYzJ6P7h93PgKqAAACVbNPzdVf0gX396qoKqJVs0/N1V/SBff3qqgBtLfN1SPSBYn3qpY6bL9/qxVi268lJpBVU7ZpMmqFCORwBSDabNfB8Jur3NdNN7dVp9Rjmdpb5uqR6QLE+9VLHs54sSr5Qwve2OqA9CaqVyUKZTIq5q1IjpddaUlJuKQlSiTqfKZJUen0GA8an5Rv+3LcqN/5vtOyrQtCmUtVTkVKlXXNq7zSSJKvDYVTI+iSSajNSVqMjIi3TI9S/CmbV2C6tXWbajXRVWqi7UGKWpmXbNUilHkP7vaxSFPRkpjpf30ky46aEPHqTalmR6TNrZtuJ/G94WDRtnXBmO5VyW45STrFs1Vxx6S7qjdRIQmjxjNozJSjPfWZGReCeupdfdmBburlw3VVYVRozbFcum0K3GS486SkR6UuOqQlZE2ZEtRMq3CIzI9S3jTy6B71U2oMSR3K3TqZcK3qhSYNUltOS6VUo1MmKp6TOUhmoFFWy+bRkZOFHN5ad1fgKNJkPdx1laNfirvU7TEQWLTqaKep9EhTyZKFQI0s3iI20KSWknd3TIzPc15DPdLOta2Uc83RWJ1RuS66TPkHFuqCifNvKszEzUVONIZirTTnGu06bwJOMoU3HSveTvGSy3dxy5YsxTcVjwL9i1abTnV3TUW5cM47i1E2hNLiRDJzeQWh8JHWfJveCaT8epEH+WltT4HvaJPqFEvlTUOm0Xujel1OlTabHXSyMyVLZdlMtofZSojSpbRqJJ8h6GZEPDq+17jNpq3nLYi1+srrNzwralxVW9VIsymnJZU82+7FcicMlKkEk0byEJcSajSoyQrTkpmyhdtVx/b9kSLgosBVMxS/Yz8hg3nEpqKlxFoeQjdQa2N6Mre1UhRkZFu8p6fpIwTmy4buRlq5GbHi3OmvW5IKjQatKXBTT6Y3KStRzFw0uqfWqc8okmwSUk2hG8eprIP3rG2VFiXGmhUu16bJixKPVa1VatJfrLMCKzDluRiS26ikuE6o3G9HNdwkKPdQbx7u9U5OfcTQbolWhULr7UmwUvdsSX4MpumocZY4d5n5QU2UQ3m2dXFMk7wiUpUo0kST0ikjZRyI9bFfoqazbhP1W1a/Q2VHIf3Evzq2uc0pR8DqSCaUSVGRGZL1IiUXhDrKdi3aCtSBeNi2HcFnUqiV2dXKzAuN9+VIqseTPS442yUQ2yZRwUl3e4c33NW0EngCNW8kPouvbIxdRrUkXJbsO5K0/DqFGiP0522KvClFHqMkmWpaGXYfCuNGknVIWhBocUgm0q31pI/dm7TmLrdpK6pd1bOOaqpVacxGpVNqVTkKRAWpMh5xhqITzaWiSRur4M2WzURcKojSo4vTtlXNDUe5KvIk0E6rVI1rHFh1G/K5XSVIpNUVLd4SfPYW6228k/BJtndbUZluK5Vq6ZOAs1WlXDvqxnbJqFcfk3bHdp9XqUtiGiHV5iJTLyXW47hqdaUy2S2jaJKyUoicRoRmFIuHajwXa9ZZodVvVxTz0WnzjkQ6TOmQ2Ys5ZoiSHpTDK2GWnVkZJccWlGvjMhUn32YzLkmS8hpppJrccWokpQki1MzM+QiIvpGYI2yVc9DsC7LFo1fo8r5Vs22bYp8yTwjKlOU1TxuuPJQ2rg0K4UjQSTX9JHp4z01UozkynSojPa3CPsLbR2yzwrOppMi30EZb6eXlTqWpalqXjATmmbS2Gqrb9Wuhi5Z8enUZiNKeXOoNRhuSGZKzRGcitPMIcmJeWk0NKjpcJxRklG8ZkR/mvacwwikUqsJuGqulWqw/QIkFm26m7UvlFlCluxnIKY5ymXEoQpZpcaTogt78UyMSB3ZayjXseVi06rOpdCZakUWfRqDAvatz6f25T5PDqW1LeQiXSWnUpQ0hmKa0xyQlaN8y3T6HHOzfdlu1+1Lqq0SgwJNOu6o3HU4zVyViuumh6lrgs/wCPVI1OyXyLgzUrcjoJHgkgzTvLCg3LtE41o9mR7up1xQ5KalS51WpqZTUxlt1iGpKZCnTbjuusEha0oVvNGrePdJJnyD0HM84qj3ZIsqXdBxqhEJ5L0h6BKbpyXWWeHeY7fU2UQ30M6uKZJ3hEpSpRpIknpGpmyZdqouYIESt0JUS6Ycun2SwtTyCpbE2QqbOTIMkGRb8tw9ODJX4NtvXlLQvbVgvK7lAvrDaahabFg3rJr0t6tLflv1dKamhxRxkxNxDSODeeUfDnIXvNoJPApNW+kKnjnNGOcruTo9k1qU/JpzbEh+NOpUunSO13yM2JCGpbTa3GHCSrceQRtr3Vbqj0PTtxm3EOJ8iYZkVO86vaNKn1WRDo1vMMRb4uGvvvx0yd159T9S3kx2kk8pxEZtnRG6vekGlWqdJAJVsneSxhv0f297uYFVEq2TvJYw36P7e93MCqgAAAAAAAAAAAAACVZk+cXBPpAmfdWvCqiVZk+cXBPpAmfdWvCqgAAAAAAA5e6Mp4wsesU23b1yPa9v1WsqJFNg1SsR4kiao1kgiZbcWSnDNRknwSPlMi8Y9R66bZjfKxSLipbXyC2TtV35jae0EG3whKf1P8ERo8PVehbvL4hm470xDjbIWcKTtC1KlU+Xd8xhyCxV1JNdw0H5OaZaiQWzIlSjQ8Uts47RLWTjuu7q6k1c/uxajX75xvS6ZUqY1e9XsugogVJxS5jED5LQ/LZeWpa1cKUOO+hSjWpW9/lGfKA03Nyxiym3bBsGo5KtWLc9UQh2DRX6zGRPlIXqaFNRzXwiyVuq0NKT13T08Q+Cp52whRLs7gazmSxoFz8O1F+RZVwxGp/DObvBt9rqcJzfVvJ3U7up7xaeMhny3bwwtZ9q5IxZnBLMi9a3eFSlyraS5pW7kJ6VvUx6ntJUh58uAKK2060ZE0pgyNbZtKNPmysm4Yt2o7Tlg5Gua311Ku1rgolqy5zS6lV+FoUJttmPE3jefWtzwE8GlRmvxcpANnAOUxNAuKl4ss6mXep1VdiUGAxUjdXvr7aTHQTu8r/KVvkrU/pMdWAAAAAlWZPnFwT6QJn3VrwqolWZPnFwT6QJn3VrwCqgAAAAAAAAAAAAAAAAAAAAAAJVs0/N1V/SBff3qqgqolWzT83VX9IF9/eqqCqgAAAAAAAyr2UfyE8m/uX3xCAOyj+Qnk39y++IQANVDxLvu+k2RRlV6tRK3JjIcS0aKPQ5tWkaq8RlHhtOumX1qJGhfSZD2wASd/aPxpJZcjSbWyk606k0ONrxLdKkrSZaGRkdO0MjL6BnatStnZrNNs23S7OzFTbMqFs3BNqVswbUvaFTn5jUukpjLTSm2ENqaQ2/MSrg2eBSbrZOaKUyR7hEquPyp8eej+8veNuAPio2fMRW7SotCt+xsk0ymwWiZiw4eH7nZYYbLxIQ2imklKS+giIiHe2PkKg5BiyZlBgXLFbiOE04VctipUVajMtSNCJ7DKnC/rIIyI+Qz1HSgAAAAAAAAJUx5U830fxfeL4qolTHlTzfR/F94vgKqAAACY7TVMn1jAF9wKfCdmrVRn3HYjSd5cqOgiW+wkv8o3GkuIIvp3tPpFOAB8dHq9MuCkQa9RZrUynVKM1MiSWlbyHmXEkpC0n9JKSZGR/UY+wQm66TcWzlTahd1gXRbTVituLlSbWuaUuHHiPOL1NNNmtocUyS1me7FUy6k1rImzaI906bjC9JuQ7EpN51Gz6xa0iptrcVSauybUuOROKSk1oMiUneJJLSSiSrdWneSlWqSDqQAAAAAAAAAAAAAAABIaTKTknaCfr9O1coOMadMoRSSL8HKrc1TC5CEH4ldrMR221GR6b8pxB+E2ZFXhBadTq/sq01qK1Jcr2HoRKN1bjZKqtrpWtS1vurSRduw95RqcWou2GyNTi1PJ3jRdo8iPLjtSor7bzDyEuNuNqJSFoMtSUky5DIy5SMgH6AAAJVnj8uxf6QKd9nlCqiVZ4/LsX+kCnfZ5QqoAPOuK3aFd1BqFr3PSYtTpNVjriTYclsltPsrLRSFJPxkZGPRABEabU762emio13FWb1x2yrdp9fjsrmVahMF4mqi0nVyUwguRMpslOEki4ZB6KeVWrZum2r0okW5bRr9PrVJmoJyNNgSUPsOp+tK0GZGPUE2uLANjVWtSbsth+rWPckxfCSaxa0soT0pf+fJZNKo0tXi5ZDLh8hAKSAk5UzaatXwadcljX/FR+K3WIz9BnGX9eTGKQys/0pjNl/4j+uNzJ1K8G6Nmu8D0/Gk0GqUqpRy/US5LMg/7Gf8AYAqwlW1j5LGZPR/cPu58O+MtWNyVmwcqU1ReMlY9rEsi/wDqiR3k/wBuugmm03tE4xrWzbleiw1XY1Ln2PXYrCJllVqInhFwHkpJS3oiUoLUy1UoySXjMyLlAagASnvnMSn/AETl4vH9TNh110/9iYZj/e+Qsp8v+TbMynNP6N3G1eYI/wBSn4jaf94CqiVbNPzdVf0gX396qoP84867K5KHs8ZVqRn4tYNOgkf/APuzGdP7RNdny+M3OWHVWbXwTFW2u+L0d4auXYxCShxdyVJa2lFGalHq2tSm1GRGkzQZpNSTIzCl7S3zdUj0gWJ96qWKqM05tdz9Mti3pF6wMf0mipyBY5yolLlzahKX/wCk9N3CQ+43HQnRe6ZmbR6pIyIiMyMtLAAAAAAAAAAAIHnrOF0Y6vujWmzdll48oVRpjstN33rS5MulSZ5KUSacTjcmKzGd4NCnN51/VZaJQ2oyUZeNQdpjIS8yWDZF52pQKPRbrtqLKnHGl9vOR6rJVLOPwUtpw2HIriIS909zeM3m+Uj1SKre9l5OnXEm5caZPgUFx+CUCbTq9RHqxTlkhalofZZblxVMv+GtKl76krTuEpGqEmUnqOxayqzJNq2/lKoUuX3NU2i0+qlTW1yIUyJUHpxTUJStCNFLfUkmUkkkpLQlGXIA86i7QWb7+tvLV0WnKseiRLFeXUaJ8oUCXUDqVI7Tcfa4XcnMbjrm4lZOJ1SSFkW4Z8o/y7M+ZgsTHGLbovPJuJqG5kipxkP1qp23KiUujRHaY7LJDiHKsXCOcI2lBOG+2kyX+Jr46ZRNnel25QL+tmiV0o1PvKhQ6FFaKHr8mtR6b2ilX4/4bUiJengfVr9I+x/CHDQ8RRO6fd4q5DL+92lr8pcHTXoWmnCfgdeG4TXw/wAXd+neIPx2e8p1nKFMuN6o162rniUWr9oQLotmK5HpVZa4BpxS46VvyCPgnHFsrNL7iTU2fKk9UprAAAAAAAAAAAAAlWyd5LGG/R/b3u5gVUSrZO8ljDfo/t73cwKqAAAAAAAAAAAAAAJVmT5xcE+kCZ91a8KqJVmT5xcE+kCZ91a8KqADga5nXF1vUaNXZ9xPvMT6lIpFPYgUuXOl1CWwtSHkRIsdpb8okG2s1KZQtJJQpWu6RmOtuNmoyLeqkejuE3PdhvoirP8AyXjQZIPxl/lafSQzFayJFrRsKZdjW1WqtbNGsKVatU+RKa9UJ9FnOnD3nu0mUred/CxHWXCbacWhWhqTuEs0he7by9Yl3UlqtUGbU346pkiA+hyiTmH4MhltTjjcxlxlLsMySnUuHS3vbzempuI3voszKdh5BeTHtCu9vuLpECukXarzWsGaThxnfwiE/j8C54P4yd3wiLUtcp06yb9va44M2v25dlzWxUr1nuRp102nCp06fAO2ZMRbs+NHiRlJbU/+BQctlC1I4MuVJo14C2sAN1HE1aqkfC9ZiVm3sW2w3bzTltSYUmHcEaROXJdiNKaQtMtL2ijcbLfUTu9qpLuqg/6KqUSEmtR6EktTHk2lddAvm2qdd9rT+3aRVmEyYcjglt8K2rxK3VklSf1GRGMoV6Ld7GQKjZRY5vF+TNzJR7oKe1RJLlOKklDipVK7cSg2D3XGzQpvf4RJ6qNJJI1D4NkfH8i3bkx29QsUXJadXpdt1RjINRqtGkwPlBx1xo4DKn3kJTNUndUpBIUvtdsuDUbeu4YbVHl3RctEsy26pd1yze06TRojs+dI4NbnBMNINa17qCNStEkZ6JIzP6CMYz2gbYu24c+SKrS8TqOpUe5LVdp1ZRZNUqtQfpzcmMuTIiVon0xKayjfeQ5EbbUtZJdcUkycNSfyunG9GuOyspW9dWBbmruWp8W7jfr6baf7XlxFrdcpqFTVaMzkcEUJLEZtT62XG06NtG2akhtWlV2BWXJLcBMwyim2SnHoTzLbhONpcSbS3EJS6W6otTQaiJWqTMlEZF6Aw9TsLQL0yFQKdOxHPOwnLypcz5Om209FglBatE2kpejPNJJDKXyS0pDiCIlkSDIj5B5UnGSaVZ9n0fKOGbuuey6PRbvpNGokWgTKkunVM6moqaso6CUtg+00miPKUhKGkn/SoJZGYb1M9CMz15PqIeZbVy0S76LHuC3ZxS4MnfJDhtrbUSkKNC0LQsiWhaVpUlSFESkqSZGRGRkMfY/sG7KLl6yalelj1C4L5aZojdZqdZtSY5JhKbpiGpMiDc8d3tVEUlE5vwXUb7zynz00dQoaFwb+GeyHUoXLSJ17VBynKT+IskNsNSFI/QctuVqf0q3lfTqYVASrMnzi4J9IEz7q14VUSrMnzi4J9IEz7q14BVQAAAAAAAAAAAAAAAAAAAAAAEq2afm6q/pAvv71VQVUSrZp+bqr+kC+/vVVBVQAAAAAAAZV7KP5CeTf3L74hAHZR/ITyb+5ffEIAGqgAAASq4/Knx56P7y9424KqMyVa+rruG72tqa1KR8oWBY0Wo281EaiuOVCt0qQ8wupVSIRfjIbdgxVMoJJm+3HkKQf4ZnUNNgPkpNVptepUKuUWczNp9Rjty4klhZLbfZcSSkOIUXIaVJMjI/pIx9YAAAAAAAAlTHlTzfR/F94viqiVMeVPN9H8X3i+AqoAAAAAAkMKh0/Ief65WLlcZmsY1ahRKDTHCUaYs6Uwb79RUky3FOKbcaZaVqamybkabvC6nXhIb8aqmLMjLzVT4EifbFWprFKvKLEYU9JiIjrcVEqbTadVOJaJ95t9CCNZtqbWRHwO6dPoVeol0UeHcNt1eHVaXUGkvxJsN9LzD7avEtC0mZKI/rIwH3gAAAAAAAAAAAAAAAD+HWmn2lsPtIcbcSaFoWkjSpJloZGR+MjISjZ3aO3qdemLGXFLp+PLreoVK1PXgqe9DiVGLHI/wDNYaqCI6fpJLKddT5T9O9s6WjbNWVZdtk5eF7ueCxbVFWl6S2o9d1ctZaogsakerz5oTyGSd9WiD9DEdiVOxrdmKuWosT7kuKpyK7XpMdJkwqa/ulwbO94XBMtIZYbNXhGhlBq5TMB24AACVZ4/LsX+kCnfZ5QqolWePy7F/pAp32eUKqAAAAAAAAAAACVbWPksZk9H9w+7nxVRKtrHyWMyej+4fdz4CqgAAAlWzT83VX9IF9/eqqCqiVbNPzdVf0gX396qoAbTKJnFdHmwqRVan8mXhaFUkR6XTn58rtWLcVOkSHER46Fuu7jLTizJCFK3UHycgd8tjr83Mq+ye6urhVQASrvlsdfm5lX2T3V1cHfLY6/NzKvsnurq4VUAEq75bHX5uZV9k91dXB3y2Ovzcyr7J7q6uFVABKu+Wx1+bmVfZPdXVwd8tjr83Mq+ye6urhVQASrvlsdfm5lX2T3V1cHfLY6/NzKvsnurq4VUAEq75bHX5uZV9k91dXB3y2Ovzcyr7J7q6uFVABKu+Wx1+bmVfZPdXVwd8tjr83Mq+ye6urhVQASrvlsdfm5lX2T3V1cHfLY6/NzKvsnurq4VUAEq75bHX5uZV9k91dXB3y2Ovzcyr7J7q6uFVABKu+Wx1+bmVfZPdXVwd8tjr83Mq+ye6urhVQATTZkpNVoGzbiihV2mS6dUqdY9CiTIctlTL8Z9uAylxpxtREpC0qI0mkyIyMjIxSwAAAAAAAAAAAAAAASrMnzi4J9IEz7q14VUTTM9pX9X52P7lxzTrfqNSsu6HK27BrdVepzElhykVGApKX2Y0lSVkqchZEbRkZIUWpcg+Xuj2p/M3ir2l1HqIBVR8tPpVMpKHm6XTYsNMl9yU8mOylsnHnFbzjiiSRarUozM1HymZ6mJp3R7U/mbxV7S6j1EHdHtT+ZvFXtLqPUQCqgJV3R7U/mbxV7S6j1EHdHtT+ZvFXtLqPUQCqgJV3R7U/mbxV7S6j1EHdHtT+ZvFXtLqPUQCqgJV3R7U/mbxV7S6j1EHdHtT+ZvFXtLqPUQCqgJV3R7U/mbxV7S6j1EHdHtT+ZvFXtLqPUQCqGRGRkZEZHyGRj5qZS6ZRafHpNGp0aBBiNk1HjRWUtNMoLkJKEJIiSRfURaCad0e1P5m8Ve0uo9RB3R7U/mbxV7S6j1EAqolWZPnFwT6QJn3Vrwd0e1P5m8Ve0uo9RDyZNAz7fOQMdVe9bIx/b9Fsy4JNdkvUu8ZtUlP79HqMFDSGXKXGR+PPSs1G7yJQehGZkAtYAAAAAAAAAAAAAAAAAAAAAACVbNPzdVf0gX396qoKqJVs0/N1V/SBff3qqgqoAAAAAAAMq9lH8hPJv7l98QgDso/kJ5N/cvviEADVQAOTybW7wotsKRYFBOqXFU326dT+ESZxYbrupdtyjLlJhkiNxRF4St0kJ8JZAOHyZPm5cuyRgG2J8uHTIjTEu+6rGM0GzCc8JulNOEXJIlJ5XDIyU1HMz8FTzKhXYUKFTYUenU6IzFiRWkMMMMNkhtptJESUISXIlJERERFyERDm8ZY9p2MrRjWzDnSalKNa5dTqssk9tVSe6e8/LfNJERrWszPQuRKSShJElKSLqwEUox97/AH+zaUhxzi9vypqKgKJH4K3qw7qpdPPQtERpK95bGvIh41sloTjKStY8e77ToN9WxUrQueAmZS6tHVGktGZke6fiUlRcqFpPRSVlopKkpURkZEY5jEL1+06mTbFyKUyoVG2HG4se43EJJuvw1J1ZknukRJkEktx9BERcIg1p8BxBEHfgAAAAAAJUx5U830fxfeL4qolTHlTzfR/F94vgKqAAAAAAAl9VwFQGarKuLGlz17HVXmum/LXbzrXaUx0/Gt+BIbdiqWrl3nEtJdVqf4TXQyqAAJT3IbS7ZdrNZzsdcfxcM/j19UvT699FUQ1r+ngdP0DzaljLLtqvMZDt7K1xXtc1PNXbNCqr8eFSapDVpwkZlhltDUd8tEqafc31EpO4tfBuLMrQADlMe5Ps/JtPky7Ynr7bprpRarS5bZsT6VJ3dTjymFeE04Rcpa8ii0Uk1JMlH1Y4e+sOWTftRYuGaxNpNyQ2zaiXDRZa4NSYRrrucM3pwjevjadJbZ/SkxzyKJtK2eRNUW8rSyFCb/EbuSKujVFRf/EmQkOMLM/6sJvl18evIFZASksoZmgeBWNmavTFl41UG5aRJbP9Ry34qj/tSQ/3jdyg/wCBE2V8gsrPxKn1i3G2/wC02qm6r/8AiYCqj8pMmPDjuzJkhthhhCnHXXFklDaElqalGfIRERGZmYliqvtPXGRtU2zLAsplXImXVavJrchH6Thx2o7Z6folcv6PGf8AjOz/ABLjkN1DNF7VnIrrbiXW6bPS3EojKyMjI009gibd0MtSOSp9RGZ6KLk0DxqldFx7RFQYt7GFUqFIxu04TlZvODIcivVlKVfkVIeQaVk2oy0dnIMiJOqGFKWo3GvdVsxYfklu1in3NXWz8bVdvKs1VpRfUpEuU4ky/QZCpNNNMNIYYbS222kkIQgtEpSXIREReIh/YDxbTsqzrCpKKDY9qUe3qa2eqYdLgtRWSP69xtJFr+nQe0AAAAACVZ4/LsX+kCnfZ5QqolWePy7F/pAp32eUKqAAAAAAAAAAACVbWPksZk9H9w+7nxVRKtrHyWMyej+4fdz4CqgAAAlWzT83VX9IF9/eqqCqiaVbZk2ba/VZtdruz5jWo1KoyHJcyZLtOA8/JfcUanHXHFNGpa1KM1GozMzMzMwFLASrvTtljm04q9Tad8EO9O2WObTir1Np3wQFVASrvTtljm04q9Tad8EO9O2WObTir1Np3wQFVASrvTtljm04q9Tad8EO9O2WObTir1Np3wQFVASrvTtljm04q9Tad8EO9O2WObTir1Np3wQFVASrvTtljm04q9Tad8EO9O2WObTir1Np3wQFVASrvTtljm04q9Tad8EO9O2WObTir1Np3wQFVASrvTtljm04q9Tad8EO9O2WObTir1Np3wQFVASrvTtljm04q9Tad8EO9O2WObTir1Np3wQFVASrvTtljm04q9Tad8EO9O2WObTir1Np3wQFVASrvTtljm04q9Tad8EO9O2WObTir1Np3wQFVASrvTtljm04q9Tad8EcHmLBuzRY1tMRbX2XsST7vuSUmj21Acs6nbr85xKj4RejOvAstpcfdP6G2V6cpkRh2VwbQjFDyaVqotZ6TaVPmxaHX7rTJSUelVeWneixVI08IuVhLi94ibXNikZHvLNFfEFtfYb2XaDYEOx6phKxa081AOHLrEq2oSZ8txaT4V/hUtkptalKUpO4ZE3yEjdJKSLlMKbOuzs0iqYjv7Z7xfNu2yDaZXOkWbTCdrVLc3u06noTOhm4lC23dOQn2XiIiTu6hqUBKu9O2WObTir1Np3wQ707ZY5tOKvU2nfBAVUBKu9O2WObTir1Np3wQ707ZY5tOKvU2nfBAVUBKu9O2WObTir1Np3wQ707ZY5tOKvU2nfBAVUBKu9O2WObTir1Np3wQ707ZY5tOKvU2nfBAVUBKu9O2WObTir1Np3wQ707ZY5tOKvU2nfBAVUBKu9O2WObTir1Np3wQ707ZY5tOKvU2nfBAVUBKu9O2WObTir1Np3wQ707ZY5tOKvU2nfBAVUBKu9O2WObTir1Np3wQ707ZY5tOKvU2nfBAVUBKu9O2WObTir1Np3wQ707ZY5tOKvU2nfBAVUBKu9O2WObTir1Np3wQ707ZY5tOKvU2nfBAVUBKu9O2WObTir1Np3wQ707ZY5tOKvU2nfBAVUBKu9O2WObTir1Np3wQ707ZY5tOKvU2nfBAVUBKu9O2WObTir1Np3wQ707ZY5tOKvU2nfBAVUBKu9O2WObTir1Np3wQ707ZY5tOKvU2nfBAVUBKu9O2WObTir1Np3wQ707ZY5tOKvU2nfBAVUBKu9O2WObTir1Np3wQ707ZY5tOKvU2nfBAVUBKu9O2WObTir1Np3wQ707ZY5tOKvU2nfBAVUBKu9O2WObTir1Np3wQ707ZY5tOKvU2nfBANmn5uqv6QL7+9VUFVHk2tadq2NQotrWVbNKt+iwt/tanUuE3Eisb61LXuNNklCd5a1KPQuVSjM+UzHrAAAAAAAAyr2UfyE8m/uX3xCAOyj+Qnk39y++IQANVDiLzzlhTHFWRQch5hsi16m4ymQiFWrgiQn1NKMyS4TbziVGkzSoiPTTUj+oduMy1SkZQq+1zf8AHxtedr2+o7Ft9Etdbtp+r8IRyakSeDJqdFJsy8LXe3yPUuQtD1DSsWVFnRWZ0GS1IjyG0usvNLJaHEKLVKkqLkMjIyMjLkMh5jV42i/ORTGLppDkxya7TUR0TmjdVLab4RxgkkrU3UN+GpGm8SeUyIuUYTzzXl4Rfj4qs+9q7FqGPbaoPyUudkCVRnJCSkLN2RDo8KMbdVTuNK7YOUvgWkJ0Im0ktR+pHq1dsi9bvpuJbkq8i6Hsi3W65R1VyTON13udekQUuRnXVFurdIloI0kS9xGmpITuhvAfHNrNIpsqDBqNVhxZNTeVHgsvPpQuU6lCnFIaSZ6rUSELUZJ1PdSo/ERj/nta185Bq2PrqboGaFOsSKfajc16i39V7imU6qyKsy0+6qTKhMJp7rrSlpcgIdPc3C/BISozPspNGpdDztbdAuO/LrdolqZfKBRnazeNQdUx21bKX0RlSHX99/fknohDqlmZOLaLVDikKDcYAAAAAACVMeVPN9H8X3i+KqJUx5U830fxfeL4CqgAAAAAAAAAAAAAAAAAAAAAAAAAAAAAAAAJVnj8uxf6QKd9nlCqiVZ4/LsX+kCnfZ5QqoAAAAAAAAAAAJVtY+SxmT0f3D7ufFVEq2sfJYzJ6P7h93PgKqAAAAAAAAAAAAAAAAAAAAAAAAAAAAAAAAAAAAAAAD+HXWmGlvvuJbbbSa1rWeiUpLlMzM/EQkGJmncp3dM2gqnvqpLrDlJsWO4RbrdJNZG7UkkfKS5q0IUk/ojtR/Ea1kf17SFCyNddkw7SsOgFVoNZqTUe5WW6m3CkLpBJUt5lpbhbpE8aEMLPXeJt5ZpLXwk+Fd+asqYxsOtXlV9nE4tCtOkSanKRFuiEZtRIrKnFk22SS10Qg9El9REAuglua7brkJdKzJYkB+Xc9kk6t2nxiLhK3SHNO3KeevjUZIS8z/8AHYbLUkrXrUhGqNmrJ12FVJ9m4KdqdJgVyr0NqY7csWOchdPnvwnXODUkzSRuxlmRHy6aAKlbVyUO8bept12xU2ajSavFamwpbJ6oeZcSSkLL9ZGXIfKX0j0xGcA0LJls1y8qbcdjtW1aE6YisUKEqrMzFw5Mg1qmx2iaLRLHCpJ9JK0NK5LiU6pIiTZgAAAAAAAAAAAAAAAAAAAAAAAAAAAAAAAAAAAAAAAAAAAAAAAAAAAAAAAAAAAAAAAAAAAZV7KP5CeTf3L74hAHZR/ITyb+5ffEIAGqgAAAAAAAAAAAAAAAAEqY8qeb6P4vvF8VUSpjyp5vo/i+8XwFVAAAAAAAAAAAAAAAAAAAAAAAAAAAAAAAAASrPH5di/0gU77PKFVEqzx+XYv9IFO+zyhVQAAAAAAAAAAASrax8ljMno/uH3c+KqJVtY+SxmT0f3D7ufAVUAAAAAAAAAAAAAAAAAAAAAAAAAAAAAAAAAAAAAAAASrax8ljMno/uH3c+PSzPlWo4opdCqMCzHa8mtVqPRVrOoNQ2Ia3yUllbrrhHoTj3BMp5NN91Oqi5COe5kmbQGTcQ3xjaBgNqFJuy26nQ2ZL12RFIYXKiuMpcURJ1MkmsjMi5dCAaFEq2afm6q/pAvv71VQVUQWwV5xxlTa1a0fCjVbjOXZctYiz2rmisE/HqFamTmTNtad5Jk3JQRkf0kYC9AJjivLtwZAu27LRrmOnbfetLtNmVJbqrM5g5TyFOKimpsi3XUNGw4ZFvaJfRrunoR04AAAAAAAAAAAAAAAAAAAAAAAAAAAAAAAAAAAAAAAAAAAAAAAAAAAAAAAAAAAAAAAAAAAGVeyj+Qnk39y++IQB2UfyE8m/uX3xCABqoAAAAAAAAAAAAAAAABKmPKnm+j+L7xfFVEqY8qeb6P4vvF8BVQAAAAABD867W+O8J1uHYEal1q98h1VCV06zrainKqDqFHoTrungsNcmpqWeumpklREYnra+yNZeIpTSsc4Io0jwmm3WlXHXWUn4t8j0iGemnJyHr4xNexuZVxpcN8Zgj3ZUaexmS4r2qU2UuUrdkVKlpXusoiKX+Myytt9PBIM9wkkZ8m7pvWbNhU2G/UajLZixYrann333CQ202ktVKUo+RKSIjMzPkIgGWi2Kso3H+FyXt0ZsqLy/6Qrbmx7fZV9ZcGyhZEX6CPxD+v8AB0Yne5arlrNVTUf4ypd9yVGo/rPdIh9Vw9kFxC/WZFrYSte88zVuOe463ZFHXLhsLPxcLMVutJTpy76DWQ+JOWOyF3po5aOy1YVisL5W3LxvDt5ak/Qam4KSUg/6p8pAP6PsdmM4/hUXNWc6O4X4jkG/JCVIP6y3kqH+Hsd5ytf8Li3byyxCdR+IV2sxLkQf1Eonko1/WP8AStvsmlT/AAs7JOAqKpXjap1HqclCP1KeMjP+0f73EdkljcrOccNTD8e7ItmW2X6vAUA+Zy7uyE4YIpN32FY2b7fj/wBLItd5dIru59Kzju6sOGXj4NrlPxal4yrWBNpzFu0RAnFZkydT6/RTSit21WYqodVpLhmZbj7Cvo1Iy3kmpOvJrrqRSw652TS2PwlRsbAl6sN/9FR6nUqdJdL9JySNtJ/7hnrMGW8x2xtI4q2hcg7IV141ftd6XTr0r1LeTX4c6ivNkgkOuw0aK4MzcWnf5Unu6b2hEQf9MQHEYozbifOVBVcuJb9pNzQGzSl5UN38LHUotSS80oicaUZcu6tKT/QO3AAAAAAAAAAASrPH5di/0gU77PKFVEqzx+XYv9IFO+zyhVQAAAAAAAAAAASrax8ljMno/uH3c+KqJVtY+SxmT0f3D7ufAVUAAAAAAAAAAAAAAAAAAAAAAAAAAAAAAAAAAAAAAAHkXdatDvm2KpZ9zQky6XWIrkOUyZ6GptZaGaT8aVF40qLlIyIy0MiHEYUu2tutVXFV+VE5V5WMpqNLkuaE5Vqc4Su0qpoXJ+HQ2tLhFyJfZfSXIRa04SvNdBrVIepea7Ip70y4bLS6UynsF4dZorhpOZD/AKziSSl9kv8A3zKU8hOL1CqDhcw5ClWBa7RW/DYqF13BLRRrZprqzSmZUXUqNO8ZcpNNoQ4+6ovxWmXD8ZER9RQLkoV029T7st6qx59HqsRqfDmsr1aejuIJaHEn/mmkyMS7FWuWrylZ/m/hKGhl2kWI0fKhVONRG/VCI/EuWtCSQf8A+HaaMtOFWQDuMYY/h4zs2Ha7FQeqUtKnJdTqkhJE/U57yzckSndOTfccUpWniSWiS8FJEXVgAAAAAAAAAAAAAAAAAAAAAAAAAAAAAAAAAAAAAAAAAAAAAAAAAAAAAAAAAAAAAAAAAAAAMq9lH8hPJv7l98QgDso/kJ5N/cvviEADVQAAAAAAAAAAAAAAAACVMeVPN9H8X3i+KqJUx5U830fxfeL4CqgAAAAADBmyRs6Ye2gdnasU/KFnR6i/AyFcjlPqTLi41QgLKaZkpiS0aXG/C0PdI90zItSPQcXScHv3pthztjnKGfsg3pjC0beYu9m37iqJKeqj5rQhEZyS3uuPMNJdSoyMy5U6EkiI1C+9jf8AmJuD0gXJ9sUJdfOAaBnrb+yREmXJXbXr9t2ZQanb1w0OUbE2mS951BrSfiWhSVGlaD5FJPTUj0Mg3LatpWtY1Di2zZlu02h0iEgkR4NPjIjsNERaciEERF4h6wyQu6uyFYRcKHXse2jn6346S3arQ5iKBWjQXIanozu8ytf0khkj1+v6v2b7I1jC3tGcy4ky7jF9PI4q4bQkHHM/p4N1jfNaf626WoDWIDNFO7JLsR1VBLjZ7piCPxds02fHP/Y6wkyH2y+yHbF0NO89tAW+otNfwTUl0/8AYhowGigGVJHZNdk2Us4tk3Jc97ziPdTCt61Kg+8tX+anhGm0mf8A9WnKPjd2pdq7JesXA2xdcFKYd5EVvJU1ujNMa+JSoSTN5xP0+AvUBzu3ZiqysHWdP2yMRORbByPZ8qI8uTT0EzGuFp2Q2yuFMYToh7fJzXe03vB5T0LVOxLTr7V2WtRrpYiuxmqzT49QQw7+O0l1tKyQrT6SJWh/pIYB2t9mHJVZ2dr/AMy7UeYXL1uS3qI7KoNvUWOcC3aJIVog3W2vx5TpEtRJdd0MiUZaHoRlujE/zWWb+z9O+zNgOrAAAAAAAAABKs8fl2L/AEgU77PKFVEqzx+XYv8ASBTvs8oVUAAAAAAAAAAAEq2sfJYzJ6P7h93PiqiVbWPksZk9H9w+7nwDjkyLzTsq9JWr1yHHJkXmnZV6StXrkVUAEq45Mi807KvSVq9chxyZF5p2VekrV65FVABKuOTIvNOyr0lavXIccmReadlXpK1euRVQASrjkyLzTsq9JWr1yHHJkXmnZV6StXrkVUAEq45Mi807KvSVq9chxyZF5p2VekrV65FVABKuOTIvNOyr0lavXIccmReadlXpK1euRVQASrjkyLzTsq9JWr1yHHJkXmnZV6StXrkVUAEq45Mi807KvSVq9chxyZF5p2VekrV65FVABKuOTIvNOyr0lavXIccmReadlXpK1euRVQASrjkyLzTsq9JWr1yHHJkXmnZV6StXrkVUAEq45Mi807KvSVq9chxyZF5p2VekrV65FVABKuOTIvNOyr0lavXIccmReadlXpK1euRBFZby9WLkyE1bORcoz7moV8y6Nb1tQLEYftt+O08yTbMqpfJZk0ndWvhFqnNrSktdSPQjq7W07VTu1LbmMnHLJk3RNsuHXIlWJ+c9VoyHDUSoBNESWFusPMoc4c1mtKTU0lKt4g6TjkyLzTsq9JWr1yHHJkXmnZV6StXrkR6s7VOUrxxTIu7HVv2PFnx6/bkNXaV7N1E4yJs9tp6DOb7RNyHMSSkNuNG0okE6pSHFLb3D7NG1Bcz1005mPi2E9aFWuepWnEriLj/xhUyBHkOPuKidraJZN2I80hROmpW7vqQgjSRhNarH2gUR69iq3NmfIULGl01ZNQkaVq3G6jTYLxrcqVOipRVDaJp50kEhRuJNtEyUSS/BNEdyiZZvuBFZgwdkXKEaNGbSyyyzOtRCG0JLRKUpKs6ERERERFyERCUVPblqNCsmy7huax7HtyrX1RZFzU2DXshJp0UqY02yZIVLehERzXFvpSiOlBoMkqUp5JFoP0vfMeRLpk0a+6FcmQLPxrcFnxa1b1ZtW0Y9wEuoupW44zVmkxpkhptCOANJstttmRvEp/e3CIKzxyZF5p2VekrV65DjkyLzTsq9JWr1yOJtu68q5rupFrQMsRrShUG0qNWKjVLLixZqavUKgl1RKjvVGM82UJKGN5JE1wijcLVxJINKvPxbm7JdzZWsuwrmq8Jaozd5Um4DhRG0R6nMpUqG1HloI99bOrbylKbSvQlLUXKSU6BRuOTIvNOyr0lavXIccmReadlXpK1euRVQASrjkyLzTsq9JWr1yHHJkXmnZV6StXrkVUAEq45Mi807KvSVq9chxyZF5p2VekrV65FVABKuOTIvNOyr0lavXIccmReadlXpK1euRVQASrjkyLzTsq9JWr1yHHJkXmnZV6StXrkVUAEq45Mi807KvSVq9chxyZF5p2VekrV65FVABKuOTIvNOyr0lavXIccmReadlXpK1euRVQASrjkyLzTsq9JWr1yHHJkXmnZV6StXrkVUAEq45Mi807KvSVq9chxyZF5p2VekrV65FVABKuOTIvNOyr0lavXIccmReadlXpK1euRVQASrjkyLzTsq9JWr1yHHJkXmnZV6StXrkVUAEq45Mi807KvSVq9chxyZF5p2VekrV65FVABKuOTIvNOyr0lavXIccmReadlXpK1euRVQASrjkyLzTsq9JWr1yHHJkXmnZV6StXrkVUAEq45Mi807KvSVq9chxyZF5p2VekrV65FVABKuOTIvNOyr0lavXI9XHmW3b5uqvWVV8a3XZlat+n06qPRq65TXOHizXJbbLjS4MuSj8eBIJRKNKi0SehkeooAlVueVPkP0f2b7xuMBVQAAAAAAAAAAAAGVeyj+Qnk39y++IQB2UfyE8m/uX3xCABqoAAAAAAAAAAAAAAAABKmPKnm+j+L7xfFVEqY8qeb6P4vvF8BVQAAAAABlXsb/AMxNwekC5Ptigx3/AM45lz0f0D+9WHY3/mJuD0gXJ9sUGO/+ccy56P6B/erAaqAAAeVUbUtesLNyr23Spy1eNUmG26Z/2qIx8cXHWPoKt+FYtvR1a66tUxhB6/2JHQgA/hppphtLLDSG20FolKEkREX6CIf2AAM/7fnkbZY/Z9z+8QKrif5rLN/Z+nfZmxKtvzyNssfs+5/eIFVxP81lm/s/TvszYDqwAAAAAAAAASrPH5di/wBIFO+zyhVRKs8fl2L/AEgU77PKFVAAAAAAAAAAABKtrHyWMyej+4fdz4qolW1j5LGZPR/cPu58BVQAc/kKsVK3rBuWv0c2in0yjzZkU3U7yCebZWtG8X0lvEWpfUAjGXtsy1bHvVzEOLLJr2WMlNF/jFu24kibpxaakqdLUXBRknqRcu8otS1SWpa8s3bXZG8qEUiuZHxvhOnOlqmJQ6Sdw1NtJ+NLq5BlH3vo3mz0+kcn2KW/sR1zZ8j29b8+I3kXtqVUbzjyXP8AlObJdfWtua4a/DebWytndWWqS1NOu9rrtwBlMthy8a9+FyJts57qrq+V1uj15qjxnP0Gy02oiL9BGP6/wc2H3eWfk/Ms5X+dIvqUZ6/XyEQ1UADKh9jwsGL4dvZ+z7QXi/Eep1/PIWj9W+hRf7h/Ktk7aUtLV3FW3hfqDRypj3jSIdwIc/qqccJCkkf1kWo1aADJMnL+3Ng1tUvMWELdyrbUZJm9WMcSHGqmy2XKbjlPk8rytCPwWjIi+v67thXPGL9oK0zvDF1yIqcVl3tebHcbUzKgSCLVTEhlZEptZfpLQ9NUmZco79SkoSa1qJKUlqZmehEX1jAtjZUxtXuylPsYKnwJVMrdlSoN6TaeZqhVKqR3OFStCk/g3XmkcAlTqTPkWtPj3tQ32AAAAAAAD4a7XKRbNEqFyV+oMwaXSYrs6bKeVo2xHaQa3HFH9CUpSZn+ghkak5R2rtsBB1bArkHDuKJCnGol31mAU2uVtol7vDw4a9EMNKIlaKc8LxKSrxkQbCkyo0KO5LmSGmGGi3luurJKEF9ZmfIRCa3BtRbNlqqW3cOfcewXWzMlMuXJD4UjLx/gyc3v9wkkPscmEq5IRVc33TkDL1VSe+ci7bmkraQv/wCGywptKE/Uk94iIU23tkPZatVCComz1j5pbZESXnbfjPvF/wDcdQpf+8B4b23hsdsLJte0PZxmZ6eBN3y/2kRkPTpO2dsmVp0mIO0Zj0lq8RSK/Hj6/oLhVJ5f0DtWcM4fjoNpjFNnNoMtDSihRSIy/USB5dW2cdnqvNGzW8E49noP6JFswnNP0lq3yH+kB1dtXrZt5xjmWfdtGrsci1N2mz2pSCL/AKzajIe0M13P2OjZAuOR8owsTtWzU0HvMVC26hJpjzCv85CWXCbI/wBaDHNy8BbXmCkHVdnnaFm5FpUfRSrPyYopbj6CP8Ripp3XG1bupJJREgj03jMiAaPsTHlFx73Q/Isqa93S16XcUvtpaFbkmRu76W91KdGy3C0I9T8epmOJ72SzFXqu63rouxynFWJVxRrbKe2imRKvIaU27OaNDSZSXDJbqiSb5tIW4paUJVoZNnLaNou0DRa0y7bVQtO8bRmlTLptepHrJpUo97c8MiInWlklRocIiJRJPkLQV8BFpOy7RanRqpBuLKF9VuqVBFLYYr052nKqEBmnSu2orbSkQ0tObr2qlKkNvLXqe8pQ4uJs05CmZli12fVmaVYNLuCo3JHpzFxnON6ZKivR3Foi/JsftU3VSFvrJUqShC94m0J4RSi06ACRTdm6glbto0W1b/vK059mUM7bhVujyInbz1NU22lbD3DxnWVbxstL30tJWhaNUKRqoj+it4AjzJPblqZXv+0JEmlsUiqPUydFlu1VllBoaXIcqMeSrh0pUsuHbNDqt7wlK3UbtVABFrk2U7FqVMg02zLqu6wDh0Bq1nJFtzmSdl0trU2WHjlsvpNTalKUh9JJfSalaOESjI/OpWyNR7bRbbtp5jyHRahap1dMGpMnSJEpbVRdadkNvqkwHUvnwjKVcK4lTxmpRrcWZ6joc97TmLdneBBK85k6oV+tGpFEtqjRVTKrVnCMi3GGE/RqZFvKNKdeTXXQjkrd3dkJzORybQsKxsIW/IP8FIuh5dXru59CyjtaMNmfj4N3lLxan4zDUtDp8uk0iHTZ9dnVqRGZS27UJyGESJSiLlccJhttolH4z3G0J+oiH3DKZbHecroPhspbeWWJjq/xytJmLbaC+skpZSvT9Y/3/B2YzkeFWs1ZzrDh/juTr8kKUs/rPdSkBqsBlX/B0YnZ5aVlrNVMUX4qol9yUmk/rLeIx/J7FWUbc/C4026M2U55H9GVyTY9wMp+ouDeQgjL9GviAasAZNcX2RrEJHKeVjnO9Gj+E6200duV15JePcItYhHprycp6+IULBW1vjvNlbmWBJpdasnIdKQpdRs65Ypxag0hJ6G61r4L7XLqSkHrpoZpSRlqFwAAAAGeMvbZlq2PermIcWWTXssZKaL/ABi3bcSRN04tNSVOlqLgoyT1IuXeUWpapLUteWbtrsjeVCKRXMj43wnTnS1TEodJO4am2k/Gl1cgyj730bzZ6fSA1gAymWw5eNe/C5E22c91V1fK63R681R4zn6DZabURF+gjH9f4ObD7vLPyfmWcr/OkX1KM9fr5CIBqoBlQ+x4WDF8O3s/Z9oLxfiPU6/nkLR+rfQov9w/lWydtKWlq7irbwv1Bo5Ux7xpEO4EOf1VOOEhSSP6yLUBq0BkmTl/bmwa2qXmLCFu5VtqMkzerGOJDjVTZbLlNxynyeV5WhH4LRkRfX9d2wrnjF+0FaZ3hi65EVOKy72vNjuNqZlQJBFqpiQysiU2sv0loemqTMuUBQAAAAAAAASDaO2jaLs/UaistW1ULsvG7pp0y1rXpp6SarKLd3/DMjJppBKSa3DIySSi5D1EmiYC2vM6oKq7Q20LNx1SpOqk2fjNRRHGEKP8R+pr3nHFbuhKJJGgz13TIjAaeuW9bNsyMUy8Lto1CjmWpO1Ke1FQZf8AWcURCZ1bbO2TKK6bM7aMx6a0+Mo9fjyNP0HwSlcv6ByNsdjo2QLdkfKM3E7VzVNZ7z9QuSoSam8+r/OWl5w2zP8AUghT6Ts47PVBaJiiYJx7BQX0R7ZhN6/pPRvlP9IDi2tvDY7eWbaNoeziMj08ObuF/tMiIdVb+1Fs2XUpDdvZ9x7OdcMiSy3ckPhTP6PwZub3+4e89hnD8hBNP4ps5xBFoSV0KKZEX6jQOTuHZD2WrqQtNb2ecfOrcIyU81b8Zh4//uNISv8A3gKxGlRpsdEuHIafYdLeQ40slIUX1kZchkP1GVZnY5MJUOQ5VcIXTkDENVUe/wBsWlc0ltpa/wD4jL6nErT9aS3SMh4VWyjtXbH6Cq2enIOYcUR1NtS7vo0AoVcojRr3eHmQ0aofaSRp1U34XjUpXiIw2OA+GhVuk3NRKfclAqDM6l1aK1OhSmVatvsOoJbbiT+lKkqIy/QY+4AEqtzyp8h+j+zfeNxiqiVW55U+Q/R/ZvvG4wFVAAAAAAAAAAAAAZV7KP5CeTf3L74hAHZR/ITyb+5ffEIAGqgAAAAAAAAAAAAAAAAEqY8qeb6P4vvF8VUSpjyp5vo/i+8XwFVAAAAAAGONh286Di6vZC2Vb+mool9Ui86tWKbEmmTJVulzHjdYlwzV/SkZb2qU6mkiLX6SL3cd/wDOOZc9H9A/vVivZu2cMO7QtIYpmULQYnvwVE5T6mwtUaoQFke8SmJLZk4jwtD3dd0zItSPQZj2asfLwRt6X7jWv5IuK511fH9Nm29NueWl+fJhNSVpU0T2hcNwRkotdCPdI+TROoDdAAAAAAAAAAM/7fnkbZY/Z9z+8QKrif5rLN/Z+nfZmxHeyIVulUTY0ycqqzmY3b1KTAiktWinpDryEttoLxqUZ/QX0EZ+IjMWrG9PmUnHdrUuox1x5cOiwY77S/xm3EMISpJ/pIyMgHRgAAAAAAAAAlWePy7F/pAp32eUKqJVnj8uxf6QKd9nlCqgAAAAAAAAAAAlW1j5LGZPR/cPu58VUSrax8ljMno/uH3c+Aqo5TLHzWXl+z9R+zODqxymWPmsvL9n6j9mcAZK2cNlHC+etkHDteu+gyqddFPt1sqfdFBlrp1YhnvrItyQ3yrIiM9EuEtJanoQ6lrB+3nivRGKNqe3sg0xr+hpeSqIvhUJL6FTopm+6oy05Vbv9nKY7fYD8jbE/wCz7f8AeLHT7UV2XZZmIn6tZNxP0KqyK3Q6aioR48d51hqVU40d00IkNuNGrg3VkRqQoiMyPTkASpGbOyA20RsXJsW23dZt8i5lt5Biw21f1ksykm4f6tdR/ffabSUbwansBZBbV4v8Vr0CSWv606f7R7V0ZbuHZouatwckZAq1+24izZt2x5FSi0+NVIr0OQwy5H3ojEeOtlztpk0qU2SkKS5vLUkyJHjUDbdlXVu2/adl2bc11LuGm0NDVvX63UqOaZ0WQ80+dQai76eDVFdQ62cfeQRbyeEIyIw/zvpNrWoeBb/Y+LoeWf4pVG9qbAT/AGqWk9B+Ll29kqvojZoeI8RYxZXyLeuCvP1mS2X1tlDLgzV/1i0HxV/ahy5PmwKtEtWFQaVEtW+H6/AYrrbshqo0aQhjhIrzkBaXCSoiNs1pSlRPrNxv8ElLlKszaLqVz5Waxgi3KE0lptonimXWyzX1tnCRIOcilKYRw0I1rJrh23dTVvGTREk9AnrWxJkPKDvDbWO1Dd+QKc4X4W16GgreorhHyG28iMolvpIuQjM0K+s/Hr5suwrLxpt7YXs6wLYptv0SBj2vpjwoEdLTSfwqNVGRfjKPxmo9VKPlMzMbIGVcif8AOOYj9H9f/vUANVAAAAAADP8At+KeTsbZYNiQ6yrufcI1Nq3TNJuI3k6/UotUmX0kZkJps0bZVlWZYtmYW2kYqsVXfSaFBhQXq2RMUiuRGmUNtS4czQmd1aCQakKNO6pRpLXQ9KXt+eRtlj9n3P7xA7m2rEsvI2DrUte/rUpNw0iTb9O4WFU4iJDJn2sjRW6sjIlF9Ci5S8ZGQDvqdUqdV4TNTpM+PNhyE77MiO6lxtxP1pUkzIy/SQ+kZSmdjgwpRpz1WwtemScRTXlcIvuOumQww4v61tPcIRp/qkaS05PECNmzbQoBcHaO37PfjI/EjV+wadOWovo3pBrJZ/r05QGrQGVOK7sijH4Jralx1KSfJwr9kEhZfpIkK0H+Hg7b8q3gVLbioVGQf43yXjaE8oy+ojeXyfr8YDVgkGY9rPAGC23I9+ZFp3yyRk2xQKcsptWkumeiG0RWtXCUpRkkjUSU6+NRcpiWObB9wXoRlnHa8zHebK/6anQam3Raa+X0kuMwk9S/UohWMObKOzxgJXbGKsWUejzzTuqqS0rlTjI/GXbL6lukR/SklEn9ADMmx7dd/wB+bdOaL6v2x6hZD9w2pR5kS35qyKSxCSsmYy5SC/FfUho1mk+VHCmn6BvUZVx3/wA45lz0f0D+9WNVAAAAAAAAwHgHKuNP8IhneNlmo0+LfEibDoVlTJ6txvtBhrdehRVr8BDqt6OtSCPecNajIvxtd+DEOFsM4vzjk3ans3K1l064qUvILC0NyUGTjC+0klwjLqDJxlenJvIUlWnJroOnVskbROK3VObNO13cEKktnqxbF9Q0V2EhP/um5K/wzDZfQSUmen+UfLqGtwGUG8i9kgswyj3Js54wyNucnD2rdqqRvkX0mU8j0M/1aaj+y2qtqeF4Nd7H5eTS0/jlAu2nTUl+o0kWoDVgDKh7WG03M5KNsAX26Z/i9u3JT4ha/pNWug/heWeyJXZ/i9tbJlh2Kpf4sq6r5RU2k/pU3BSlf9hANXDAfZI8rY0t6+cPxrTqNPfzJbl7U2bFciq35FMpal7ryJakfisvLcYTwSzI1kozItN7WiK2atsLKyiLPO167b9IdP8AxigYzphU4lJP8ZKai7/jGhlyaKSotP7deD2ttnPDuz7s60enYus6PTX5+QrbcqFSecXJqE9w5pGan5Lpqcc1UZnume6RmehFqA3oOfyFWKlb1g3LX6ObRT6ZR5syKbqd5BPNsrWjeL6S3iLUvqHQDlMsfNZeX7P1H7M4Ayd2KW/sR1zZ8j29b8+I3kXtqVUbzjyXP+U5sl19a25rhr8N5tbK2d1ZapLU0672uu3Bh/Zw2UcL562QcO1676DKp10U+3Wyp90UGWunViGe+si3JDfKsiIz0S4S0lqehDqWsH7eeK9EYo2p7eyDTGv6Gl5Koi+FQkvoVOimb7qjLTlVu/2cpgNbgMoozZ2QG2iNi5Ni227rNvkXMtvIMWG2r+slmUk3D/VrqP777TaSjeDU9gLILavF/itegSS1/WnT/aA1WAyp30m1rUPAt/sfF0PLP8Uqje1NgJ/tUtJ6D8XLt7JVfRGzQ8R4ixiyvkW9cFefrMlsvrbKGXBmr/rFoA1gpSUJNa1ElKS1MzPQiL6xgWxsqY2r3ZSn2MFT4EqmVuypUG9JtPM1QqlVI7nCpWhSfwbrzSOASp1JnyLWnx72tFa2JMh5Qd4bax2obvyBTnC/C2vQ0Fb1FcI+Q23kRlEt9JFyEZmhX1n49fNl2FZeNNvbC9nWBbFNt+iQMe19MeFAjpaaT+FRqoyL8ZR+M1HqpR8pmZgNkAAAAAADBW2Fdl/WHt04XvqxLHqN7vW9adYmS7fgqI5L0JSzZkuRUH+M+lDpLJJaGvgiT9I0vh3aywBnNDcew8i006yZ7j9AqDhQ6rGdI9Ftriu6ObyVapM0kpOpchnyCZ5E/wCccxH6P6//AHqBUMybKGzxn1XbOVcWUesTyTuJqSEriziIvEXbLCkOmRfQk1Gn9ACtAMmt7CFw2WRFg/a8zHZjKP6GnTqm3WqawX0EiM+ktC/Wox+3Edt+UrwKbtxUKsoL8X5UxtCZURfUZsr5f1+MBqwBlTiu7Io/+Cd2pcdRUlycKxZBLWf6TJatB/KtmzbQr5cHd237UGIy/wAeNQLBp0FaS+ndkEs1l+vTkAakqNSp1IgvVOrT40KHHTvvSJDqW2m0/WpSjIiL9JmMebS+2XZV62NeeFdm2IvKt31ahTYc5+ipJ+j0OI6ytt2XMmaGzupQazShJq3lJJJ6bxa+/D7HBhSszmatmi88k5dmsqJxB3jdMh9htf8AUaZ4MiT/AFTNRacniFmuWxbLxzg667XsG1KTb1IjW/UeDhUyIiOyR9rL1VuoIiNR/So+U/GZmA4bYEU6rY2xOb0h15Xc+2RKcVvGSSWvdTr9SS0SRfQREX0DQAz/ALAfkbYn/Z9v+8WNAAAlVueVPkP0f2b7xuMVUSq3PKnyH6P7N943GAqoAAAAAAAAAAAADKvZR/ITyb+5ffEIA7KP5CeTf3L74hAA1UAAAAAAAAAAAAAAAAAlTHlTzfR/F94viqiVMeVPN9H8X3i+AqoAAAAAACQ7QOzPZO0BFpNQqFTqts3fbLqpNu3XQ3+16lS3jLQySv8Ay2lcm82fIf0Gk+UV4AGSY11dkCwa2mn3Zju2M+UKMkiTWbfnIola4MuTefivEbTq+TXdZ8evj+r6U9kXxXQNGsuYqy9jR5PI4dxWbJJnX6TQ4xwm+n6j0LUatABmum9kf2Jqq0l6NnyktkrxFJgTY6i/WTrKTIfZI7IVsXxS3ndoG3FFpr+DS+5/wtmLjUbQtOsOqfq9r0ic4v8AGXJhNOqP9ZqSY+OPjfHcM96JYVuMHrrq3S2E/wDgkBnmR2THZOkuqiWXctzXrNSe6US3rVqMhxavqTvtISZ//UPwc2qNpzJJHFwNsYXTBbcLRNZyRLaoTDGviWcQlKeeT4uRCiPQasZYZjNJYjsoabQWiUISSUpL9BF4h+gDLVl7It8Xte1KyvtgZPayDXKFJTNodsUuOcW2aM+RaE6hhXhSXSPlS46RGX0krQjLUoAAAAAAAAAAAAlWePy7F/pAp32eUKqJVnj8uxf6QKd9nlCqgAAAAAAAAAAAlW1j5LGZPR/cPu58VUSrax8ljMno/uH3c+Aqo5TLHzWXl+z9R+zODqxymWPmsvL9n6j9mcASrYD8jbE/7Pt/3ixT8s4ypWXrJkWRWKzVaSy9Lhzm5tLUyUlh+LJbkMrRw7brZ6ONI1JSFEZaloJhsB+Rtif9n2/7xY0AAkjOzda9RbuJ3Il33RflSuSlfIT1SrbsRl+LA3t/gIyYEeM0z+E0cNxLfCGpKN5ZkhBJ/ek4AiR5tLq10ZSv27qlSK2xXI0qtToxklxmK7GQyliPHajtt7r7ilG20lxazI1rVoRCqAAitX2U7HqrKmEXVdMJDzdzMSSjvRD7YYrrnCy2lcJHVolLm6ps0bqk7hEpSyNRK9yFgemRrspdxTL/ALwqdNokpNRptvz5MZ6nxJqYxxyfbUbHbSfAUsyaJ/gSUtRk2XJpTgABgfa+2isbbO221jzIl9T3n41EsGsMvQaclL8xTz7qeBb3DURINeijI1mlOiT5Rvgf879sTZRxdtCbcVlWZXo8iiPXZZNSn1CqUokNyX5URSER3HN5Jpc3UETZ6lqaCJJKLRJkGgNlja4i51xxNynkE7WsanVKrPt27TpFZb7aVTmkoRw0hTiklvqeS/pupSRJJPj/ABlVGXtB4Dp+vb+b7AjaePhrlhI0/wBrgj2yLsfL2frMqeOchxLIvSBAqKnrdrfyMhNQXFcLecalJWg900ubxo0dc5FmWpEkiGiolpWrT9O0LZpMbTxcDCbRp/sIBwK9qzZiSo0I2hsbvLLxoYueE8ov7EOGYjW1ftgwLWxK/fGzplm1ahcdtS26lJpT8c5kerwEpWl6MpSdDb030uktC0K/Amkj8LQ9boQhtJIQkkpLxERaEQl20pg5zaMxdJxK/e062aTV5sZdZfgR0uSJUJpfCKjNqUZE0a1pbPfMllok0mhRKMB/z5yB2T/Hu0pstZGxncdl1W1r1qFvPJYbjpVNp8lSDSpRpdSRLaMySo9HE7peLhDMf9LsT/NZZv7P077M2Mv7RezfhnZ02F8sW/iayIVIJy3FplTjTws2YZOIPV6QrVay11Mk6khJme6lJcg1Bif5rLN/Z+nfZmwGd83WH3e7XFOgcS2N8kdrY5N7tK95XARov/KZlwrJ9oTNXOXd03Echn4X0Hx+ULtyns8Y5TYlsX7cZVbH1lPXDPjW1S6L8lwOFkvdqolSKw6TrkJHBqjNMw20v7jRmZkam2y2r8h0X5a7pfkeF8r9q9o9v9ro7Z7W39/geF03uD3/AAt3XTXl01Hi3TizGN81OJWr2xza9wVGnsuR4kuq0iPLejtOEZOIbW4hSkJURmRkRkR6nqAyZDqtyW5li47kKtP1pVUypTT+T5tOgutsmdqm/pHUUfhWl/iNEslmvcbSWpmpxTnh0TaK2k3MY1u85danxZFbxrIu2nu1k7aUiBUkutbiqbHgvrlOwNHzQZzGlrSbTZKWSlqSNptY1xyxXVXQxYFtt1lS47h1FFKYKUamG1NMKN0k7+rbbi0IPXwUrURaEZkPkp+HsSUlVeXSsW2hCVdRmqunHokZs6qZqUozlbqC4fwlrPw97lUZ/SYDLV5pyfMyTR8e3Rmi4Ku1bmRbUmQp50ylMSdJkCWtxlfBxCbUhK2VGg9wlkTqiUpZkky2oOerOO8f3GqQu4bFt6qKlvRZL5zaYw+brsYzOO4vfSe8pozPcUfKjU93QdCA/wCeGZtpKHsu7aOYMiTMeXJdqe4SgsIYpDH4FhW+4oly3z1KOyem7v7qvCNJbp6jkNk/byzJtL7Qcq5r3drVKsm0YL0qPaVmUGVUTlvvEphs5htNuOrQhK1LMzNKOFQ0ZIL6NJWA2292RjL7LzaVtrx9QUqSotSURur1Iy+kh31t7HuFrEzbGzxjajPWfXTjSYdUhUZSGadVWHk8qX45pNKd1xLbhG1weqmyNRKAez3x9mJ/prJyq3/+mlfX/wAEQw75bHJf0tAyg1/pMWXOkv8AadP0FVABKe+axUX9I3fLP+lx9cDen/7oRDB1m9lWuXCuVq7iDaBgSL0oNKqbsWBdUKnnAqiohr1Zckw3ENJUrgzRvJJLSiPe/HPTX/qOMlWr2NLAVOh3LVb4fq95Xzd6ZS6pd1RNrttqRJ1N1+IyaFMML3lGpKjQtaD5SUAh2xLtU0Cp3vtUX7BKNUkTHpF+UiCT/AOyYcZlRKbWRpNTZ7qoyN40n4W/yHumNI1Pa0vW3aWvulwemPXprFBqFFpMS5EvnLh1SamIjhnVR0FHkNOKLfaInEcpbrquUyhmJ9n2l5HvvaYoFtz3qLUreuWXSqETTqW4polUM4fa8kuDWZsaKbUe4RKI2kGR8hkdwuLY8dn2MzSI2QK3U7kcftuOusVWYyl2m0umTW5BRYamIyS8EycUhbyFuLWaeFcURFoHtHtK3gb7NitYtpaslOXO7bKqMdzKKlINuCU85Xyh2pwptHFUgyIom/wiiQaSLwxyju2JVVtuVyj49qkycqDR4arck1VhhliqSa5IpT7ZOpjKcPg3mT/Cb6kLQlJpbQepnRFbMNtFS2lsX9eUe7G6+5cyrxaehFVnJ62O1lrWjtbtI0HG0Y4LtbcJBEZJJZb4/Cm7JGMaQ1T2oFRuFHaCKURrVLbWuS9BqblSJ95SmzNTr0l1xTp6kRkoySSPGA4mqbRWY5t0WbSotj0KiSId9VS2LtgFcJyWX249LcmIOM+cElrQps0ukZoZWS20tn4K1LT8LW2Zk522WbrVs+U1uHIshOQkJXeZk4mkI5H0LT2jySiNSDbbTvNrSozW6yZbp1qr7OlqVSrnXWbluKnzVXW5dxuRnIp6yHIHaLsfR1hZcAtjUjLThCNRmlxPJp86tmOwlWy3ah1ev9qNWEvHZL7YZ4T5NVu6u68Fpw/gF4Wm54/AAcLWtuCzaTltOOijW52kzXqbbcvtq62I1d7bmtNrbej0lTZqfioVIYQt0nkqIzcNLakt6nmXb32kr/vLBFJW5i2DQaTPvZTdEqhXCcqQuXSanwJm9FOKlLbbhpUtCiccPwdFI5SMbfa2f6TCvHuoomQr3o0GROi1SpUCnVBlin1KawyllDzyiZ7ZLeQ2yS2m30MucEW+2rVe9mPsguCrQoWzvZtKiz6u4zTMgxTa4V5s1K+VKkbsglGTZfiqWZI000LTXe8YDY2LavcdwY2teu3czEarNQpEWVNTFfN5o3VtJUZpWbbWuuuum4kiMzIi0LUfzlj5rLy/Z+o/ZnB6Nl20VmWnSLTTWqhVkUeG1CbmzyZKQ8htJJSbnAttt72hEXgoSXJ4h52WPmsvL9n6j9mcASrYD8jbE/7Pt/3ixy+ZMhZotO+rtk1O9LlsikU5qM/ZsmPardUtSoNpbQp463LZiSZcIuGUtDizXEQhkkrQpZpWouo2A/I2xP8As+3/AHix0157OtJu+bcBMZGvWgUO71Eu5LfpUiGmFVVG2lp01LejOSY5usoQ2vtZ5nUk7xaLM1mHyO7QrkZFWS9abLrlIvmkWUpTFS3m3jnNw1nKQfBfio7c5Ef5RN67yd7Quaom05kO5YtMbouH6IdUui4qtRbbhyrtcZTJj01yQiXMlLKCrtdP4BPBobS+azdTqaCIzHR1PZYsuoXgd0MXfd0CCqu025V2/Glx/k1VTgoabZkGS2FPlq0whCmyeJsyLeJBL0WXmZAwHcFOsu26Nhl1wq3bldn1mFVZtyopcmGc1chchKV/Jk1p5CzkLQbS2CLd3VEvfQSgE8uDshFEt6gUmqVS0rcpNRcoUi4qrSq7esenPojNTX4va9PNbJpqExRxnlcERtILRBcLqsjHfxNpu4ahXq9Jh40hLsmgXFSLefriq+opSzntw1okJidqm3wSO3WyUZyNeQzIjIfhZeyUigWPbtIXlK7rfr8OjLo9cqNrzm2DqsdyS5KNlbshp11JNuPvEiQ0pqQROKPhEmrQunvnCK3sd5Jtexjal1HJLqlyzrtQcQxEW5EZhqebW00p1RttMJdSlR7y3C0N1BK3kh22O724waFIuNimdqQflKbDgr4bhO22I76mSkfiluktTalJLl8HdPXl5Ms7Q+SLGxNt34wvvI9zQqBQadj6unImy1GSEmp5BJSRERqWozMiJKSNRn4iMa1sy1qdY9o0WzaRvdpUSAxAYNX4ykNIJBKV9ZnpqZ/WZjLGbrSti+tvzF9qXlQIFao9Qx5X2pUKcwl5l1PDIMtUqLTUj0Mj8ZGRGWhkA5+hdk5tnMuarewvs2WFJuJVRno+Ubgrzx02DHgNqJcl1tGinFGbRLJBuE2fCGgtxepJPb5GRlqR6kYwnSuxf2VjDaFoeU8TxaBVLKlPuxbjsu7WCmRm4TraiNcRxbbprUhfBrQ26Wpmnld0M9NMHsq7OTZ60/DNq0o/rpMBNPMv1dr7mgCqjk8qZMtrDtg1bJV4InnRKIlp2cqDFVJdaaW6hs3eDT4RpRv76zLUyQlR6HpoOV72fGLPLS51+0ky8RU3INejIL/7aJhIP9RpMhJtqnFdwWhgq6W7BuHM14VauQ10KDb8WoKrDclyUlTX+MlIZeNMZKVKU4pSklulu7yTURgPEkZBsjKG3thi8seXTTrgos3H1f4GbAfJ1szJ1GqFacqVl4lIURKSfIZEY2UP+L2yNsgbRWENrnG9Hum7WLArdYpFRrZMxUs1RxMJk0peivJMzZTwxHpqlSzT+NyKItP+0IAMaZyxwvI21Fd0FvDONb9XHxnTN1d6TDjlTDXMqJE9GMoUkzWenLopk/AT4f0p2WOKvXCOF8k1Nqt5FxFZV01FhkozUutUCJOeQ0Rmom0rebUokkalHukempn9YDILF2lc0K1SizZFQgph4pkMz6jBjt1KUpdRkpU5Ieb3luGfBkokm64hJqUaT8JSlaZ2TfJtx3/8iY/8x30ixrKlSe3JVn0R6QXahcK5T2VL/wAVUa43hGnX8EpSlN/5hqM06GZj0KTSKTQKbGo1CpcSm0+G2TUeJEYSyyygvElCEkSUl+giAfYOUyx81l5fs/Ufszg6scplj5rLy/Z+o/ZnAEq2A/I2xP8As+3/AHixoAZ/2A/I2xP+z7f94saAABKrc8qfIfo/s33jcYqolVueVPkP0f2b7xuMBVQAAAAAAAAAAAAGVeyj+Qnk39y++IQB2UfyE8m/uX3xCABqoAAAAAAAAAAAAAAAABKmPKnm+j+L7xfFVEqY8qeb6P4vvF8BVQAAAAAAAAAAAclfOXMUYwXDayVk607TXUCWqImuVqNAOQSNN82yeWnf3d5Oumumpa+MB1oD4qNWqPcdJiV63qtDqlMqDKJESbCfQ+xIaUWqXG3EGaVpMjIyMjMjIf63WaQ7Vn6A1VYa6nGYblPQkvpN9plxSkocU3rvJQpTayJRloZoUReIwH2APwnToVMhSKlUpjESJEaW/IkPuE22y2kjUpa1K0JKSIjMzPkIiE8pm01s3VqSqFRtoPGs+Qlpx9TUW7IDqyabQa3FmlLpnupQlSlH4iIjM+QgFKAf4lSVpJaFEpKi1IyPUjIf6AAAAAAAAAAAlWePy7F/pAp32eUKqJVnj8uxf6QKd9nlCqgAAAAAAAAAAAlW1j5LGZPR/cPu58VUSrax8ljMno/uH3c+Aqo8e8qG7c1oVy22H0Mu1amyYKHVkZpQp1pSCUZF9BGrUewADKHY8cn24/hKj4CrbxUTI+M23aHcFtzlE1MZU06o0voQfK4ytCkKJadU6npr4jPV4jmcdk3C+fpUSu3fRJdMuim8tPuigSlU+sRDItC3ZDfKoiIz0S4S0lqehEJk3hvb0xaRNYt2mbWyLTGuRmnZIoi2320F/knNhnwryv6yyLlAawAZTLNm35bP4K5Ni63LpJvkcl23kCNGQf8AWSzKQbh/q11H9d9ttGMck/YEyKhX/wCXrUF8tf1kZANVAMqHtTbV1Q/B292Pu7XnlfiFUrxpsBH9q1kZEP5VePZJb11aoeHMQ43bXyKduK4ZFXebL60FDIkGr6t7kAaqddbZbW884ltttJqWtR6Eki5TMzPxEMe2td1G2gtv+LemMJJVi0sT2dNotWuCP+EgyKrLeSZQ2HS8FxSG/DUpJmRbqi+oz9FzYqyRlrQ9rDadum96YvwnLWt1hNv0Zev/AEbxMHwkhGmuhqNCuXx/XpWxrCsvGdtRLOx/a9Nt+iwU7rEKBHS02n61GRfjKPTU1HqpR8pmZgPfAAAAAAGf9vzyNssfs+5/eIFVxP8ANZZv7P077M2PPztjBnNOG7yxS9N7TO56PJp7UkyMyYeUg+CcMi5TSlwkKMvpIjL6Rn7BW19RsdQaHs+7WEQ8Y5BoMNumMzKqXBUWvssETSJcOaejRksiSakqNOijMi+kiDXgD8Yc2HUYrU6ny2ZUZ9JLaeZcJaFpPxGlRchl+kh+wAAAAAAkWatq/A+Ao5t5AvuGVYXoiLQKcZTKrLcUZElDcVszXqozIiNW6nU+VRAJljv/AJxzLno/oH96saqGX9lKy8m3Rk/Im1Xlq0XrPm38zBpVvW1JPSZTqPEJW6uWX+S86o0rNHjRoZfSRFqAAAAAAAAGVdj/AOfbaj9IDH2NI1UMcYevOg4J2xsz4wyfNRQnso1aFdVn1GaZMw6u2cdLb8dt1WieGbc0Tua6q5dC8WuxwAAAAAAABlXskHzE2/6QLb+2JGqhjjbivOg5Qr2PdlWwpqK3fVXvOk1ipRIRk8VEpcN4nX5cvd/oiIt3RKtDURnp9GobHHKZY+ay8v2fqP2ZwdWPHvKhu3NaFctth9DLtWpsmCh1ZGaUKdaUglGRfQRq1ARfYD8jbE/7Pt/3ixoAZQ7Hjk+3H8JUfAVbeKiZHxm27Q7gtucompjKmnVGl9CD5XGVoUhRLTqnU9NfEZ6vAAAAAAAAGVcif845iP0f1/8AvUDU7rrbLa3nnEtttpNS1qPQkkXKZmZ+Ihj21ruo20Ft/wAW9MYSSrFpYns6bRatcEf8JBkVWW8kyhsOl4LikN+GpSTMi3VF9RmGxQAAAAABlXIn/OOYj9H9f/vUDVQy/tW2Xky18n472q8S2i9eE2wWZ1KuG2ox6zKjR5ZJ3lxC/wAp5pRKWSPGvUi+gyOh4V2r8EZ9jk3j++4Z1hGqJVAqJlDqsRxJmSkORXDJeqTIyM07ydfEowFdAAAAAAAcplj5rLy/Z+o/ZnB0sybDp0V2dUJbMWMwk1uvPOEhCEl4zUo+Qi/SYyTnXa+o2RYNc2fdk+IeTsg16G7THplKLhaNQGXyNpcuZNLVoiQRqNKUmrVRER/QRh3mwH5G2J/2fb/vFjQA4TBGMGcLYbs3FLM0ph2xR41PdkkRkT7yUFwriSPlJKnDWoi+gjIvoHdgAlVueVPkP0f2b7xuMVUSq3PKnyH6P7N943GAqoAAAAAAAAAAAADKvZR/ITyb+5ffEIA7KP5CeTf3L74hAA1UAAAAAAAAAAAAAAAAAlTHlTzfR/F94viqiVMeVPN9H8X3i+AqoAAAAAAAAAAznl/IFh442rsb13Id7UC16a5Zlxx0TK1UmYTCnTk04yQTjykpNRklRkWuvIf1DRgAP+f9bvin0ilGzSpc6iWje163LWrVWu/Jlm0mdGS1HIltzIUdyW8uRJckPxorW62+S3HNFkTevj0O/Y1HpEvJl2Xnc53VXsM2it51q7n6e89wk56PKkKU4S0R2m95o35SI5uMJcddTuOuGpX/AEYABm/Yvu2p3JByLCk19NUptKudtukm1d02547cVynxXf8AF6nObbfksqcU4pKjI0kalEgzSRGfLXPVqrQaJthVqh1OXTqhCksvxpcR5TLzDibfhmlaFpMlJUR8pGRkZDXIAMMTr+ygvaScpU2/4NJrLV5wYlKpEm86oiTNt04qFOJbt5mE7GktLSclZ1BTiTbcQZKdaJrdLQGyFT5qMC2xcdYuW4K7Vrjhpqc+ZWKxKnrU6vXRLZPuLJlBJJKdxskpMyNRlvGZnZwAAAAAAAAAAASrPH5di/0gU77PKFVEqzx+XYv9IFO+zyhVQAAAAAAAAAAASrax8ljMno/uH3c+KqJVtY+SxmT0f3D7ufAVUAAAAAAAAAAAAAAAAAAAAAAAHgXtYFj5Jobts5AtGj3HSniPfiVOG3Ja1003iJZHuqL6FFoZfQZD3wAZWldjqxBQ5btQwpf+TsRPuqNxTVoXU+1FcWf0rYf4QlF/VI0kP4LZv20Lf5LP2+JsqOjkRFuGwqfNUovo3pBKJf8AbpyjVgAMq8WPZFWfwbe0/jeQk+ThHrKNCi/SRJXoP8PCW37V/wAFU9tq3qI0f4yqTjmG+sy+ojfXyfr8Y1WADKKthm6ruIyzNtiZluxlf9NAptTbokB8vpS4xHSeqf0EohU8QbJ2zvgh3tzGOK6PTKkZeFVH0qmT1H9J9svmt0tddTJKiI/q8QrYAAAAAAAAAAAOKy1hfF+dLVdsvK1mU+4aW5qaESUGTsdZlpwjLqTJxlf9ZCiPTk105BAW9lDaLxIRo2atrKsNUdnlj2vf8FFbhoL/AN2iXyPstl9CUkZ6H4z8Z6zABlMsjdkcs/8AA3Ds4YwyCaP+mta710kl/wBk9JmRmP8AS2rdqCH4Fa7H/e7Tifxyg3RT5iSP9Ck6bw1WADKvfZbSkrkpWwFkBxR/i9t3BAikZ/pNWug/k8tdkNur8DbuyXYtkmv8SRdF9N1FtJfQakQUkv8AsLlGrAAZNc2dtsXLBG1nXaxatijv+DJoOMaV2jvoP8ZKajI1kJIy5NN0y5RZsI7OGHdnqkP0zF9oMQH5yjcqFTfWqTUJ6zPU1PyXDNxfhanu67pGZ6EWopgAAAACOZx2TcL5+lRK7d9El0y6Kby0+6KBKVT6xEMi0LdkN8qiIjPRLhLSWp6EQmTeG9vTFpE1i3aZtbItMa5GadkiiLbfbQX+Sc2GfCvK/rLIuUawABlMs2bfls/grk2Lrcukm+RyXbeQI0ZB/wBZLMpBuH+rXUf13220YxyT9gTIqFf/AJetQXy1/WRkNVAAyoe1NtXVD8Hb3Y+7teeV+IVSvGmwEf2rWRkQ/lV49klvXVqh4cxDjdtfIp24rhkVd5svrQUMiQavq3uQatABktzYqyRlrQ9rDadum96YvwnLWt1hNv0Zev8A0bxMHwkhGmuhqNCuXx/XpWxrCsvGdtRLOx/a9Nt+iwU7rEKBHS02n61GRfjKPTU1HqpR8pmZj3wAAAAAAAAEky/snbO+d3O3MnYso9TqRfi1RlKoc9J/QfbLBodPTTUiUoyL6vGK2ADKKdhm6rRIiwztiZmtNlH9DAqVTbrcBgvoS2xISWif0Gox/ZYS2/aR+Cpm21b1baL8VVWxzDYWRfUZsL5f1+MarABlXix7Iq9+Dc2oMbx0lycIzZRrUf6TJS9B/J7N+2hcHJeG3vNix18i4tvWFT4Skl9O7INRr1/TpyDVgAMrRex1YgrktqoZrv8Aydl19pROJau+6n3Yray+lDDHBkkv6pmohoqybAsfG1DatnH9oUe3KUyRbkSmQ24zWumm8ZIIt5R/So9TPxmZj3wAAAAASq3PKnyH6P7N943GKqJVbnlT5D9H9m+8bjAVUAAAAAAAAAAAABlXso/kJ5N/cvviEAdlH8hPJv7l98QgAaqAAAAAAAAAAAAAAAAASO9LZzBTcwJyRje2rOr0SRbTdDkR65ckqkuNOIlOPEtBswJRLSZLIuXdMjL6RXAASruj2p/M3ir2l1HqIO6Pan8zeKvaXUeohVQASruj2p/M3ir2l1HqIO6Pan8zeKvaXUeohVQASruj2p/M3ir2l1HqIO6Pan8zeKvaXUeohVQASruj2p/M3ir2l1HqIO6Pan8zeKvaXUeohVQASruj2p/M3ir2l1HqIO6Pan8zeKvaXUeohVQASruj2p/M3ir2l1HqIO6Pan8zeKvaXUeohVQASruj2p/M3ir2l1HqIO6Pan8zeKvaXUeohVQASruj2p/M3ir2l1HqIO6Pan8zeKvaXUeohVQASruj2p/M3ir2l1HqIO6Pan8zeKvaXUeohVQASruj2p/M3ir2l1HqIO6Pan8zeKvaXUeohVQARCt0HaFyBcNmFdlh47oNIt6449clyades6oyVoaaeRwbbLlJjpMzN0uU3S00Pxi3gAAAAAAAAAAAAJVtY+SxmT0f3D7ufFVEq2sfJYzJ6P7h93PgKqAwB32PYzuctlX1yyF8YO+x7Gdzlsq+uWQvjAN/gMAd9j2M7nLZV9cshfGDvsexnc5bKvrlkL4wDf4DAHfY9jO5y2VfXLIXxg77HsZ3OWyr65ZC+MA3+AwB32PYzuctlX1yyF8YO+x7Gdzlsq+uWQvjAN/gMAd9j2M7nLZV9cshfGDvsexnc5bKvrlkL4wDf4DAHfY9jO5y2VfXLIXxg77HsZ3OWyr65ZC+MA3+AwB32PYzuctlX1yyF8YO+x7Gdzlsq+uWQvjAN/gMAd9j2M7nLZV9cshfGDvsexnc5bKvrlkL4wDf4DAHfY9jO5y2VfXLIXxg77HsZ3OWyr65ZC+MA3+AwB32PYzuctlX1yyF8YO+x7Gdzlsq+uWQvjAN/gMAd9j2M7nLZV9cshfGDvsexnc5bKvrlkL4wDf4DAHfY9jO5y2VfXLIXxg77HsZ3OWyr65ZC+MA3+AwB32PYzuctlX1yyF8YO+x7Gdzlsq+uWQvjAN/gMAd9j2M7nLZV9cshfGDvsexnc5bKvrlkL4wDf4DAHfY9jO5y2VfXLIXxg77HsZ3OWyr65ZC+MA3+AwB32PYzuctlX1yyF8YO+x7Gdzlsq+uWQvjAN/gMAd9j2M7nLZV9cshfGDvsexnc5bKvrlkL4wDf4DAHfY9jO5y2VfXLIXxg77HsZ3OWyr65ZC+MA3+AwB32PYzuctlX1yyF8YO+x7Gdzlsq+uWQvjAN/gMAd9j2M7nLZV9cshfGDvsexnc5bKvrlkL4wDf4DAHfY9jO5y2VfXLIXxg77HsZ3OWyr65ZC+MA3+AwB32PYzuctlX1yyF8YO+x7Gdzlsq+uWQvjAN/gMAd9j2M7nLZV9cshfGDvsexnc5bKvrlkL4wDf4DAHfY9jO5y2VfXLIXxg77HsZ3OWyr65ZC+MA3+AwB32PYzuctlX1yyF8YO+x7Gdzlsq+uWQvjAN/gMAd9j2M7nLZV9cshfGDvsexnc5bKvrlkL4wDf4DAHfY9jO5y2VfXLIXxg77HsZ3OWyr65ZC+MA3+AwB32PYzuctlX1yyF8YO+x7Gdzlsq+uWQvjAN/gMAd9j2M7nLZV9cshfGDvsexnc5bKvrlkL4wDf4DAHfY9jO5y2VfXLIXxg77HsZ3OWyr65ZC+MA3+JVbnlT5D9H9m+8bjGVe+x7Gdzlsq+uWQvjDoLB25uxuY1qtWrttZyuB+pVuPEiTplb7q60+4xGU+phpLk9Dym0IVKkKJKDSWrqjPUBt8BlX/AAo+wn58/wDuzWP5QP8ACj7Cfnz/AO7NY/lAGqgGVf8ACj7Cfnz/AO7NY/lA/wAKPsJ+fP8A7s1j+UAaqAZV/wAKPsJ+fP8A7s1j+UD/AAo+wn58/wDuzWP5QBqoBlX/AAo+wn58/wDuzWP5QP8ACj7Cfnz/AO7NY/lADso/kJ5N/cvviEAz/t67euydmnZOvnGeNMrfLNyVn5M7ShfIVSj8LwVSivOfhHo6G06NtLV4Si100LUzIjAP/9k=;" vertex="1" parent="1">
          <mxGeometry x="60" width="903" height="559" as="geometry" />
        </mxCell>
        <mxCell id="GABv936FElZK7gfd_OVg-2" value="" style="rounded=0;whiteSpace=wrap;html=1;strokeWidth=0;strokeColor=none;" vertex="1" parent="1">
          <mxGeometry x="660" y="315" width="150" height="70" as="geometry" />
        </mxCell>
      </root>
    </mxGraphModel>
  </diagram>
</mxfile>
